<svg xmlns="http://www.w3.org/2000/svg" xmlns:xlink="http://www.w3.org/1999/xlink" width="1920" zoomAndPan="magnify" viewBox="0 0 1440 809.999993" height="1080" preserveAspectRatio="xMidYMid meet" version="1.0"><defs><clipPath id="265893bf4f"><path d="M 0 41 L 791.382812 41 L 791.382812 43 L 0 43 Z M 0 41 " clip-rule="nonzero"/></clipPath><clipPath id="9b850afe4e"><path d="M 0 73 L 791.382812 73 L 791.382812 75 L 0 75 Z M 0 73 " clip-rule="nonzero"/></clipPath><clipPath id="d9b6997502"><path d="M 0 104 L 791.382812 104 L 791.382812 106 L 0 106 Z M 0 104 " clip-rule="nonzero"/></clipPath><clipPath id="501327d098"><path d="M 0 136 L 791.382812 136 L 791.382812 138 L 0 138 Z M 0 136 " clip-rule="nonzero"/></clipPath><clipPath id="21677f771a"><path d="M 0 167 L 791.382812 167 L 791.382812 169 L 0 169 Z M 0 167 " clip-rule="nonzero"/></clipPath><clipPath id="15c7386dcd"><path d="M 0 199 L 791.382812 199 L 791.382812 201 L 0 201 Z M 0 199 " clip-rule="nonzero"/></clipPath><clipPath id="823b67d2ab"><path d="M 0 230 L 791.382812 230 L 791.382812 232 L 0 232 Z M 0 230 " clip-rule="nonzero"/></clipPath><clipPath id="3bb7f4b847"><path d="M 0 262 L 791.382812 262 L 791.382812 264 L 0 264 Z M 0 262 " clip-rule="nonzero"/></clipPath><clipPath id="c745592577"><path d="M 0 294 L 791.382812 294 L 791.382812 296 L 0 296 Z M 0 294 " clip-rule="nonzero"/></clipPath><clipPath id="c51ae7b0fd"><path d="M 0 325 L 791.382812 325 L 791.382812 327 L 0 327 Z M 0 325 " clip-rule="nonzero"/></clipPath><clipPath id="d7507e3cea"><path d="M 0 357 L 791.382812 357 L 791.382812 359 L 0 359 Z M 0 357 " clip-rule="nonzero"/></clipPath><clipPath id="6e59565f0c"><path d="M 0 388 L 791.382812 388 L 791.382812 390 L 0 390 Z M 0 388 " clip-rule="nonzero"/></clipPath><clipPath id="cc510ea892"><path d="M 0 420 L 791.382812 420 L 791.382812 422 L 0 422 Z M 0 420 " clip-rule="nonzero"/></clipPath><clipPath id="852bbc61e3"><path d="M 0 451 L 791.382812 451 L 791.382812 453 L 0 453 Z M 0 451 " clip-rule="nonzero"/></clipPath><clipPath id="a3f50de42e"><path d="M 0 483 L 791.382812 483 L 791.382812 485 L 0 485 Z M 0 483 " clip-rule="nonzero"/></clipPath><clipPath id="569aec0483"><path d="M 0 514 L 791.382812 514 L 791.382812 517 L 0 517 Z M 0 514 " clip-rule="nonzero"/></clipPath><clipPath id="8cbb84fb9b"><path d="M 0 546 L 791.382812 546 L 791.382812 548 L 0 548 Z M 0 546 " clip-rule="nonzero"/></clipPath><clipPath id="48ba495d90"><path d="M 0 578 L 791.382812 578 L 791.382812 580 L 0 580 Z M 0 578 " clip-rule="nonzero"/></clipPath><clipPath id="8f892d4202"><path d="M 0 609 L 791.382812 609 L 791.382812 611 L 0 611 Z M 0 609 " clip-rule="nonzero"/></clipPath><clipPath id="079f56598c"><path d="M 0 641 L 791.382812 641 L 791.382812 643 L 0 643 Z M 0 641 " clip-rule="nonzero"/></clipPath><clipPath id="b15a4d12bb"><path d="M 0 672 L 791.382812 672 L 791.382812 674 L 0 674 Z M 0 672 " clip-rule="nonzero"/></clipPath><clipPath id="3cbb608d92"><path d="M 0 704 L 791.382812 704 L 791.382812 706 L 0 706 Z M 0 704 " clip-rule="nonzero"/></clipPath><clipPath id="c64dba221e"><path d="M 0 735 L 791.382812 735 L 791.382812 737 L 0 737 Z M 0 735 " clip-rule="nonzero"/></clipPath><clipPath id="e6612ae35c"><path d="M 0 767 L 791.382812 767 L 791.382812 769 L 0 769 Z M 0 767 " clip-rule="nonzero"/></clipPath><clipPath id="b8fdef6d84"><path d="M 748 0.0078125 L 750 0.0078125 L 750 810 L 748 810 Z M 748 0.0078125 " clip-rule="nonzero"/></clipPath><clipPath id="520e97a972"><path d="M 717 0.0078125 L 719 0.0078125 L 719 810 L 717 810 Z M 717 0.0078125 " clip-rule="nonzero"/></clipPath><clipPath id="65d7102a8c"><path d="M 685 0.0078125 L 687 0.0078125 L 687 810 L 685 810 Z M 685 0.0078125 " clip-rule="nonzero"/></clipPath><clipPath id="9703dbed9f"><path d="M 654 0.0078125 L 656 0.0078125 L 656 810 L 654 810 Z M 654 0.0078125 " clip-rule="nonzero"/></clipPath><clipPath id="664d0a3aa7"><path d="M 622 0.0078125 L 624 0.0078125 L 624 810 L 622 810 Z M 622 0.0078125 " clip-rule="nonzero"/></clipPath><clipPath id="fb62a3705d"><path d="M 590 0.0078125 L 593 0.0078125 L 593 810 L 590 810 Z M 590 0.0078125 " clip-rule="nonzero"/></clipPath><clipPath id="cc982f7c2d"><path d="M 559 0.0078125 L 561 0.0078125 L 561 810 L 559 810 Z M 559 0.0078125 " clip-rule="nonzero"/></clipPath><clipPath id="5992e6fff4"><path d="M 527 0.0078125 L 529 0.0078125 L 529 810 L 527 810 Z M 527 0.0078125 " clip-rule="nonzero"/></clipPath><clipPath id="60e6264825"><path d="M 496 0.0078125 L 498 0.0078125 L 498 810 L 496 810 Z M 496 0.0078125 " clip-rule="nonzero"/></clipPath><clipPath id="0029ec1763"><path d="M 464 0.0078125 L 466 0.0078125 L 466 810 L 464 810 Z M 464 0.0078125 " clip-rule="nonzero"/></clipPath><clipPath id="2c42604338"><path d="M 433 0.0078125 L 435 0.0078125 L 435 810 L 433 810 Z M 433 0.0078125 " clip-rule="nonzero"/></clipPath><clipPath id="a4472269b5"><path d="M 401 0.0078125 L 403 0.0078125 L 403 810 L 401 810 Z M 401 0.0078125 " clip-rule="nonzero"/></clipPath><clipPath id="53ef256afe"><path d="M 370 0.0078125 L 372 0.0078125 L 372 810 L 370 810 Z M 370 0.0078125 " clip-rule="nonzero"/></clipPath><clipPath id="617538028f"><path d="M 338 0.0078125 L 340 0.0078125 L 340 810 L 338 810 Z M 338 0.0078125 " clip-rule="nonzero"/></clipPath><clipPath id="2338171a82"><path d="M 306 0.0078125 L 309 0.0078125 L 309 810 L 306 810 Z M 306 0.0078125 " clip-rule="nonzero"/></clipPath><clipPath id="58ec23a5dd"><path d="M 275 0.0078125 L 277 0.0078125 L 277 810 L 275 810 Z M 275 0.0078125 " clip-rule="nonzero"/></clipPath><clipPath id="7e9a8270d4"><path d="M 243 0.0078125 L 245 0.0078125 L 245 810 L 243 810 Z M 243 0.0078125 " clip-rule="nonzero"/></clipPath><clipPath id="dc475c96b0"><path d="M 212 0.0078125 L 214 0.0078125 L 214 810 L 212 810 Z M 212 0.0078125 " clip-rule="nonzero"/></clipPath><clipPath id="0b4c783d26"><path d="M 180 0.0078125 L 182 0.0078125 L 182 810 L 180 810 Z M 180 0.0078125 " clip-rule="nonzero"/></clipPath><clipPath id="89292af413"><path d="M 149 0.0078125 L 151 0.0078125 L 151 810 L 149 810 Z M 149 0.0078125 " clip-rule="nonzero"/></clipPath><clipPath id="bfded73a8b"><path d="M 117 0.0078125 L 119 0.0078125 L 119 810 L 117 810 Z M 117 0.0078125 " clip-rule="nonzero"/></clipPath><clipPath id="5a60b93406"><path d="M 86 0.0078125 L 88 0.0078125 L 88 810 L 86 810 Z M 86 0.0078125 " clip-rule="nonzero"/></clipPath><clipPath id="554f33cfd2"><path d="M 54 0.0078125 L 56 0.0078125 L 56 810 L 54 810 Z M 54 0.0078125 " clip-rule="nonzero"/></clipPath><clipPath id="35439c44af"><path d="M 22 0.0078125 L 25 0.0078125 L 25 810 L 22 810 Z M 22 0.0078125 " clip-rule="nonzero"/></clipPath><clipPath id="c0f659f406"><path d="M 745.5 41 L 1440 41 L 1440 43 L 745.5 43 Z M 745.5 41 " clip-rule="nonzero"/></clipPath><clipPath id="30b86175ac"><path d="M 745.5 73 L 1440 73 L 1440 75 L 745.5 75 Z M 745.5 73 " clip-rule="nonzero"/></clipPath><clipPath id="30467627d1"><path d="M 745.5 104 L 1440 104 L 1440 106 L 745.5 106 Z M 745.5 104 " clip-rule="nonzero"/></clipPath><clipPath id="f5fdde6cf1"><path d="M 745.5 136 L 1440 136 L 1440 138 L 745.5 138 Z M 745.5 136 " clip-rule="nonzero"/></clipPath><clipPath id="f49a24301d"><path d="M 745.5 167 L 1440 167 L 1440 169 L 745.5 169 Z M 745.5 167 " clip-rule="nonzero"/></clipPath><clipPath id="4e75003000"><path d="M 745.5 199 L 1440 199 L 1440 201 L 745.5 201 Z M 745.5 199 " clip-rule="nonzero"/></clipPath><clipPath id="1431a4512a"><path d="M 745.5 230 L 1440 230 L 1440 232 L 745.5 232 Z M 745.5 230 " clip-rule="nonzero"/></clipPath><clipPath id="bd190a29d5"><path d="M 745.5 262 L 1440 262 L 1440 264 L 745.5 264 Z M 745.5 262 " clip-rule="nonzero"/></clipPath><clipPath id="60a1ee9a46"><path d="M 745.5 294 L 1440 294 L 1440 296 L 745.5 296 Z M 745.5 294 " clip-rule="nonzero"/></clipPath><clipPath id="f31b83147c"><path d="M 745.5 325 L 1440 325 L 1440 327 L 745.5 327 Z M 745.5 325 " clip-rule="nonzero"/></clipPath><clipPath id="2252db3681"><path d="M 745.5 357 L 1440 357 L 1440 359 L 745.5 359 Z M 745.5 357 " clip-rule="nonzero"/></clipPath><clipPath id="15a4aaaf1d"><path d="M 745.5 388 L 1440 388 L 1440 390 L 745.5 390 Z M 745.5 388 " clip-rule="nonzero"/></clipPath><clipPath id="142a2ce8b0"><path d="M 745.5 420 L 1440 420 L 1440 422 L 745.5 422 Z M 745.5 420 " clip-rule="nonzero"/></clipPath><clipPath id="4462a82936"><path d="M 745.5 451 L 1440 451 L 1440 453 L 745.5 453 Z M 745.5 451 " clip-rule="nonzero"/></clipPath><clipPath id="2614245e62"><path d="M 745.5 483 L 1440 483 L 1440 485 L 745.5 485 Z M 745.5 483 " clip-rule="nonzero"/></clipPath><clipPath id="72f6e45abd"><path d="M 745.5 514 L 1440 514 L 1440 517 L 745.5 517 Z M 745.5 514 " clip-rule="nonzero"/></clipPath><clipPath id="250a957ac4"><path d="M 745.5 546 L 1440 546 L 1440 548 L 745.5 548 Z M 745.5 546 " clip-rule="nonzero"/></clipPath><clipPath id="6bfd9ec996"><path d="M 745.5 578 L 1440 578 L 1440 580 L 745.5 580 Z M 745.5 578 " clip-rule="nonzero"/></clipPath><clipPath id="0389236edb"><path d="M 745.5 609 L 1440 609 L 1440 611 L 745.5 611 Z M 745.5 609 " clip-rule="nonzero"/></clipPath><clipPath id="e64720a1bf"><path d="M 745.5 641 L 1440 641 L 1440 643 L 745.5 643 Z M 745.5 641 " clip-rule="nonzero"/></clipPath><clipPath id="2a0f73fdc4"><path d="M 745.5 672 L 1440 672 L 1440 674 L 745.5 674 Z M 745.5 672 " clip-rule="nonzero"/></clipPath><clipPath id="fbe2edc664"><path d="M 745.5 704 L 1440 704 L 1440 706 L 745.5 706 Z M 745.5 704 " clip-rule="nonzero"/></clipPath><clipPath id="2cfa14b915"><path d="M 745.5 735 L 1440 735 L 1440 737 L 745.5 737 Z M 745.5 735 " clip-rule="nonzero"/></clipPath><clipPath id="4d8e6c55a7"><path d="M 745.5 767 L 1440 767 L 1440 769 L 745.5 769 Z M 745.5 767 " clip-rule="nonzero"/></clipPath><clipPath id="10f175b66b"><path d="M 1418 0.0078125 L 1420 0.0078125 L 1420 810 L 1418 810 Z M 1418 0.0078125 " clip-rule="nonzero"/></clipPath><clipPath id="82d50ded59"><path d="M 1386 0.0078125 L 1388 0.0078125 L 1388 810 L 1386 810 Z M 1386 0.0078125 " clip-rule="nonzero"/></clipPath><clipPath id="838c6d3b66"><path d="M 1355 0.0078125 L 1357 0.0078125 L 1357 810 L 1355 810 Z M 1355 0.0078125 " clip-rule="nonzero"/></clipPath><clipPath id="671f779d9d"><path d="M 1323 0.0078125 L 1325 0.0078125 L 1325 810 L 1323 810 Z M 1323 0.0078125 " clip-rule="nonzero"/></clipPath><clipPath id="0786c8a642"><path d="M 1291 0.0078125 L 1294 0.0078125 L 1294 810 L 1291 810 Z M 1291 0.0078125 " clip-rule="nonzero"/></clipPath><clipPath id="18a870ebe7"><path d="M 1260 0.0078125 L 1262 0.0078125 L 1262 810 L 1260 810 Z M 1260 0.0078125 " clip-rule="nonzero"/></clipPath><clipPath id="7cb71a7ad6"><path d="M 1228 0.0078125 L 1230 0.0078125 L 1230 810 L 1228 810 Z M 1228 0.0078125 " clip-rule="nonzero"/></clipPath><clipPath id="bd85c42a47"><path d="M 1197 0.0078125 L 1199 0.0078125 L 1199 810 L 1197 810 Z M 1197 0.0078125 " clip-rule="nonzero"/></clipPath><clipPath id="b484fe310a"><path d="M 1165 0.0078125 L 1167 0.0078125 L 1167 810 L 1165 810 Z M 1165 0.0078125 " clip-rule="nonzero"/></clipPath><clipPath id="d484cf4af2"><path d="M 1134 0.0078125 L 1136 0.0078125 L 1136 810 L 1134 810 Z M 1134 0.0078125 " clip-rule="nonzero"/></clipPath><clipPath id="81539a7ae5"><path d="M 1102 0.0078125 L 1104 0.0078125 L 1104 810 L 1102 810 Z M 1102 0.0078125 " clip-rule="nonzero"/></clipPath><clipPath id="f058da1e7b"><path d="M 1071 0.0078125 L 1073 0.0078125 L 1073 810 L 1071 810 Z M 1071 0.0078125 " clip-rule="nonzero"/></clipPath><clipPath id="1d65abe790"><path d="M 1039 0.0078125 L 1041 0.0078125 L 1041 810 L 1039 810 Z M 1039 0.0078125 " clip-rule="nonzero"/></clipPath><clipPath id="a297cb5e06"><path d="M 1007 0.0078125 L 1010 0.0078125 L 1010 810 L 1007 810 Z M 1007 0.0078125 " clip-rule="nonzero"/></clipPath><clipPath id="9026249344"><path d="M 976 0.0078125 L 978 0.0078125 L 978 810 L 976 810 Z M 976 0.0078125 " clip-rule="nonzero"/></clipPath><clipPath id="7e79fbe491"><path d="M 944 0.0078125 L 946 0.0078125 L 946 810 L 944 810 Z M 944 0.0078125 " clip-rule="nonzero"/></clipPath><clipPath id="dd5cfaefb1"><path d="M 913 0.0078125 L 915 0.0078125 L 915 810 L 913 810 Z M 913 0.0078125 " clip-rule="nonzero"/></clipPath><clipPath id="8e765d3a9a"><path d="M 881 0.0078125 L 883 0.0078125 L 883 810 L 881 810 Z M 881 0.0078125 " clip-rule="nonzero"/></clipPath><clipPath id="cf525c8558"><path d="M 850 0.0078125 L 852 0.0078125 L 852 810 L 850 810 Z M 850 0.0078125 " clip-rule="nonzero"/></clipPath><clipPath id="4d5626401b"><path d="M 818 0.0078125 L 820 0.0078125 L 820 810 L 818 810 Z M 818 0.0078125 " clip-rule="nonzero"/></clipPath><clipPath id="e1f2629d10"><path d="M 787 0.0078125 L 789 0.0078125 L 789 810 L 787 810 Z M 787 0.0078125 " clip-rule="nonzero"/></clipPath></defs><g clip-path="url(#265893bf4f)"><path fill="#999999" d="M -18.617188 41.53125 L 791.386719 41.53125 L 791.386719 42.640625 L -18.617188 42.640625 Z M -18.617188 41.53125 " fill-opacity="1" fill-rule="nonzero"/></g><g clip-path="url(#9b850afe4e)"><path fill="#999999" d="M -18.617188 73.09375 L 791.386719 73.09375 L 791.386719 74.199219 L -18.617188 74.199219 Z M -18.617188 73.09375 " fill-opacity="1" fill-rule="nonzero"/></g><g clip-path="url(#d9b6997502)"><path fill="#999999" d="M -18.617188 104.648438 L 791.386719 104.648438 L 791.386719 105.757812 L -18.617188 105.757812 Z M -18.617188 104.648438 " fill-opacity="1" fill-rule="nonzero"/></g><g clip-path="url(#501327d098)"><path fill="#999999" d="M -18.617188 136.207031 L 791.386719 136.207031 L 791.386719 137.3125 L -18.617188 137.3125 Z M -18.617188 136.207031 " fill-opacity="1" fill-rule="nonzero"/></g><g clip-path="url(#21677f771a)"><path fill="#999999" d="M -18.617188 167.769531 L 791.386719 167.769531 L 791.386719 168.875 L -18.617188 168.875 Z M -18.617188 167.769531 " fill-opacity="1" fill-rule="nonzero"/></g><g clip-path="url(#15c7386dcd)"><path fill="#999999" d="M -18.617188 199.324219 L 791.386719 199.324219 L 791.386719 200.429688 L -18.617188 200.429688 Z M -18.617188 199.324219 " fill-opacity="1" fill-rule="nonzero"/></g><g clip-path="url(#823b67d2ab)"><path fill="#999999" d="M -18.617188 230.886719 L 791.386719 230.886719 L 791.386719 231.992188 L -18.617188 231.992188 Z M -18.617188 230.886719 " fill-opacity="1" fill-rule="nonzero"/></g><g clip-path="url(#3bb7f4b847)"><path fill="#999999" d="M -18.617188 262.441406 L 791.386719 262.441406 L 791.386719 263.546875 L -18.617188 263.546875 Z M -18.617188 262.441406 " fill-opacity="1" fill-rule="nonzero"/></g><g clip-path="url(#c745592577)"><path fill="#999999" d="M -18.617188 294.003906 L 791.386719 294.003906 L 791.386719 295.109375 L -18.617188 295.109375 Z M -18.617188 294.003906 " fill-opacity="1" fill-rule="nonzero"/></g><g clip-path="url(#c51ae7b0fd)"><path fill="#999999" d="M -18.617188 325.558594 L 791.386719 325.558594 L 791.386719 326.667969 L -18.617188 326.667969 Z M -18.617188 325.558594 " fill-opacity="1" fill-rule="nonzero"/></g><g clip-path="url(#d7507e3cea)"><path fill="#999999" d="M -18.617188 357.121094 L 791.386719 357.121094 L 791.386719 358.226562 L -18.617188 358.226562 Z M -18.617188 357.121094 " fill-opacity="1" fill-rule="nonzero"/></g><g clip-path="url(#6e59565f0c)"><path fill="#999999" d="M -18.617188 388.675781 L 791.386719 388.675781 L 791.386719 389.785156 L -18.617188 389.785156 Z M -18.617188 388.675781 " fill-opacity="1" fill-rule="nonzero"/></g><g clip-path="url(#cc510ea892)"><path fill="#999999" d="M -18.617188 420.234375 L 791.386719 420.234375 L 791.386719 421.339844 L -18.617188 421.339844 Z M -18.617188 420.234375 " fill-opacity="1" fill-rule="nonzero"/></g><g clip-path="url(#852bbc61e3)"><path fill="#999999" d="M -18.617188 451.796875 L 791.386719 451.796875 L 791.386719 452.902344 L -18.617188 452.902344 Z M -18.617188 451.796875 " fill-opacity="1" fill-rule="nonzero"/></g><g clip-path="url(#a3f50de42e)"><path fill="#999999" d="M -18.617188 483.351562 L 791.386719 483.351562 L 791.386719 484.457031 L -18.617188 484.457031 Z M -18.617188 483.351562 " fill-opacity="1" fill-rule="nonzero"/></g><g clip-path="url(#569aec0483)"><path fill="#999999" d="M -18.617188 514.914062 L 791.386719 514.914062 L 791.386719 516.019531 L -18.617188 516.019531 Z M -18.617188 514.914062 " fill-opacity="1" fill-rule="nonzero"/></g><g clip-path="url(#8cbb84fb9b)"><path fill="#999999" d="M -18.617188 546.46875 L 791.386719 546.46875 L 791.386719 547.574219 L -18.617188 547.574219 Z M -18.617188 546.46875 " fill-opacity="1" fill-rule="nonzero"/></g><g clip-path="url(#48ba495d90)"><path fill="#999999" d="M -18.617188 578.03125 L 791.386719 578.03125 L 791.386719 579.136719 L -18.617188 579.136719 Z M -18.617188 578.03125 " fill-opacity="1" fill-rule="nonzero"/></g><g clip-path="url(#8f892d4202)"><path fill="#999999" d="M -18.617188 609.585938 L 791.386719 609.585938 L 791.386719 610.695312 L -18.617188 610.695312 Z M -18.617188 609.585938 " fill-opacity="1" fill-rule="nonzero"/></g><g clip-path="url(#079f56598c)"><path fill="#999999" d="M -18.617188 641.144531 L 791.386719 641.144531 L 791.386719 642.25 L -18.617188 642.25 Z M -18.617188 641.144531 " fill-opacity="1" fill-rule="nonzero"/></g><g clip-path="url(#b15a4d12bb)"><path fill="#999999" d="M -18.617188 672.703125 L 791.386719 672.703125 L 791.386719 673.8125 L -18.617188 673.8125 Z M -18.617188 672.703125 " fill-opacity="1" fill-rule="nonzero"/></g><g clip-path="url(#3cbb608d92)"><path fill="#999999" d="M -18.617188 704.261719 L 791.386719 704.261719 L 791.386719 705.367188 L -18.617188 705.367188 Z M -18.617188 704.261719 " fill-opacity="1" fill-rule="nonzero"/></g><g clip-path="url(#c64dba221e)"><path fill="#999999" d="M -18.617188 735.824219 L 791.386719 735.824219 L 791.386719 736.929688 L -18.617188 736.929688 Z M -18.617188 735.824219 " fill-opacity="1" fill-rule="nonzero"/></g><g clip-path="url(#e6612ae35c)"><path fill="#999999" d="M -18.617188 767.378906 L 791.386719 767.378906 L 791.386719 768.484375 L -18.617188 768.484375 Z M -18.617188 767.378906 " fill-opacity="1" fill-rule="nonzero"/></g><g clip-path="url(#b8fdef6d84)"><path fill="#999999" d="M 748.753906 0.0078125 L 749.859375 0.0078125 L 749.859375 810.015625 L 748.753906 810.015625 Z M 748.753906 0.0078125 " fill-opacity="1" fill-rule="nonzero"/></g><g clip-path="url(#520e97a972)"><path fill="#999999" d="M 717.195312 0.0078125 L 718.300781 0.0078125 L 718.300781 810.015625 L 717.195312 810.015625 Z M 717.195312 0.0078125 " fill-opacity="1" fill-rule="nonzero"/></g><g clip-path="url(#65d7102a8c)"><path fill="#999999" d="M 685.632812 0.0078125 L 686.742188 0.0078125 L 686.742188 810.015625 L 685.632812 810.015625 Z M 685.632812 0.0078125 " fill-opacity="1" fill-rule="nonzero"/></g><g clip-path="url(#9703dbed9f)"><path fill="#999999" d="M 654.078125 0.0078125 L 655.183594 0.0078125 L 655.183594 810.015625 L 654.078125 810.015625 Z M 654.078125 0.0078125 " fill-opacity="1" fill-rule="nonzero"/></g><g clip-path="url(#664d0a3aa7)"><path fill="#999999" d="M 622.515625 0.0078125 L 623.621094 0.0078125 L 623.621094 810.015625 L 622.515625 810.015625 Z M 622.515625 0.0078125 " fill-opacity="1" fill-rule="nonzero"/></g><g clip-path="url(#fb62a3705d)"><path fill="#999999" d="M 590.960938 0.0078125 L 592.066406 0.0078125 L 592.066406 810.015625 L 590.960938 810.015625 Z M 590.960938 0.0078125 " fill-opacity="1" fill-rule="nonzero"/></g><g clip-path="url(#cc982f7c2d)"><path fill="#999999" d="M 559.402344 0.0078125 L 560.511719 0.0078125 L 560.511719 810.015625 L 559.402344 810.015625 Z M 559.402344 0.0078125 " fill-opacity="1" fill-rule="nonzero"/></g><g clip-path="url(#5992e6fff4)"><path fill="#999999" d="M 527.84375 0.0078125 L 528.949219 0.0078125 L 528.949219 810.015625 L 527.84375 810.015625 Z M 527.84375 0.0078125 " fill-opacity="1" fill-rule="nonzero"/></g><g clip-path="url(#60e6264825)"><path fill="#999999" d="M 496.285156 0.0078125 L 497.394531 0.0078125 L 497.394531 810.015625 L 496.285156 810.015625 Z M 496.285156 0.0078125 " fill-opacity="1" fill-rule="nonzero"/></g><g clip-path="url(#0029ec1763)"><path fill="#999999" d="M 464.726562 0.0078125 L 465.832031 0.0078125 L 465.832031 810.015625 L 464.726562 810.015625 Z M 464.726562 0.0078125 " fill-opacity="1" fill-rule="nonzero"/></g><g clip-path="url(#2c42604338)"><path fill="#999999" d="M 433.167969 0.0078125 L 434.273438 0.0078125 L 434.273438 810.015625 L 433.167969 810.015625 Z M 433.167969 0.0078125 " fill-opacity="1" fill-rule="nonzero"/></g><g clip-path="url(#a4472269b5)"><path fill="#999999" d="M 401.605469 0.0078125 L 402.714844 0.0078125 L 402.714844 810.015625 L 401.605469 810.015625 Z M 401.605469 0.0078125 " fill-opacity="1" fill-rule="nonzero"/></g><g clip-path="url(#53ef256afe)"><path fill="#999999" d="M 370.050781 0.0078125 L 371.15625 0.0078125 L 371.15625 810.015625 L 370.050781 810.015625 Z M 370.050781 0.0078125 " fill-opacity="1" fill-rule="nonzero"/></g><g clip-path="url(#617538028f)"><path fill="#999999" d="M 338.496094 0.0078125 L 339.601562 0.0078125 L 339.601562 810.015625 L 338.496094 810.015625 Z M 338.496094 0.0078125 " fill-opacity="1" fill-rule="nonzero"/></g><g clip-path="url(#2338171a82)"><path fill="#999999" d="M 306.933594 0.0078125 L 308.039062 0.0078125 L 308.039062 810.015625 L 306.933594 810.015625 Z M 306.933594 0.0078125 " fill-opacity="1" fill-rule="nonzero"/></g><g clip-path="url(#58ec23a5dd)"><path fill="#999999" d="M 275.375 0.0078125 L 276.484375 0.0078125 L 276.484375 810.015625 L 275.375 810.015625 Z M 275.375 0.0078125 " fill-opacity="1" fill-rule="nonzero"/></g><g clip-path="url(#7e9a8270d4)"><path fill="#999999" d="M 243.816406 0.0078125 L 244.921875 0.0078125 L 244.921875 810.015625 L 243.816406 810.015625 Z M 243.816406 0.0078125 " fill-opacity="1" fill-rule="nonzero"/></g><g clip-path="url(#dc475c96b0)"><path fill="#999999" d="M 212.257812 0.0078125 L 213.367188 0.0078125 L 213.367188 810.015625 L 212.257812 810.015625 Z M 212.257812 0.0078125 " fill-opacity="1" fill-rule="nonzero"/></g><g clip-path="url(#0b4c783d26)"><path fill="#999999" d="M 180.699219 0.0078125 L 181.804688 0.0078125 L 181.804688 810.015625 L 180.699219 810.015625 Z M 180.699219 0.0078125 " fill-opacity="1" fill-rule="nonzero"/></g><g clip-path="url(#89292af413)"><path fill="#999999" d="M 149.140625 0.0078125 L 150.246094 0.0078125 L 150.246094 810.015625 L 149.140625 810.015625 Z M 149.140625 0.0078125 " fill-opacity="1" fill-rule="nonzero"/></g><g clip-path="url(#bfded73a8b)"><path fill="#999999" d="M 117.578125 0.0078125 L 118.6875 0.0078125 L 118.6875 810.015625 L 117.578125 810.015625 Z M 117.578125 0.0078125 " fill-opacity="1" fill-rule="nonzero"/></g><g clip-path="url(#5a60b93406)"><path fill="#999999" d="M 86.023438 0.0078125 L 87.128906 0.0078125 L 87.128906 810.015625 L 86.023438 810.015625 Z M 86.023438 0.0078125 " fill-opacity="1" fill-rule="nonzero"/></g><g clip-path="url(#554f33cfd2)"><path fill="#999999" d="M 54.46875 0.0078125 L 55.574219 0.0078125 L 55.574219 810.015625 L 54.46875 810.015625 Z M 54.46875 0.0078125 " fill-opacity="1" fill-rule="nonzero"/></g><g clip-path="url(#35439c44af)"><path fill="#999999" d="M 22.90625 0.0078125 L 24.011719 0.0078125 L 24.011719 810.015625 L 22.90625 810.015625 Z M 22.90625 0.0078125 " fill-opacity="1" fill-rule="nonzero"/></g><g clip-path="url(#c0f659f406)"><path fill="#999999" d="M 745.5 41.53125 L 1555.503906 41.53125 L 1555.503906 42.640625 L 745.5 42.640625 Z M 745.5 41.53125 " fill-opacity="1" fill-rule="nonzero"/></g><g clip-path="url(#30b86175ac)"><path fill="#999999" d="M 745.5 73.09375 L 1555.503906 73.09375 L 1555.503906 74.199219 L 745.5 74.199219 Z M 745.5 73.09375 " fill-opacity="1" fill-rule="nonzero"/></g><g clip-path="url(#30467627d1)"><path fill="#999999" d="M 745.5 104.648438 L 1555.503906 104.648438 L 1555.503906 105.757812 L 745.5 105.757812 Z M 745.5 104.648438 " fill-opacity="1" fill-rule="nonzero"/></g><g clip-path="url(#f5fdde6cf1)"><path fill="#999999" d="M 745.5 136.207031 L 1555.503906 136.207031 L 1555.503906 137.3125 L 745.5 137.3125 Z M 745.5 136.207031 " fill-opacity="1" fill-rule="nonzero"/></g><g clip-path="url(#f49a24301d)"><path fill="#999999" d="M 745.5 167.769531 L 1555.503906 167.769531 L 1555.503906 168.875 L 745.5 168.875 Z M 745.5 167.769531 " fill-opacity="1" fill-rule="nonzero"/></g><g clip-path="url(#4e75003000)"><path fill="#999999" d="M 745.5 199.324219 L 1555.503906 199.324219 L 1555.503906 200.429688 L 745.5 200.429688 Z M 745.5 199.324219 " fill-opacity="1" fill-rule="nonzero"/></g><g clip-path="url(#1431a4512a)"><path fill="#999999" d="M 745.5 230.886719 L 1555.503906 230.886719 L 1555.503906 231.992188 L 745.5 231.992188 Z M 745.5 230.886719 " fill-opacity="1" fill-rule="nonzero"/></g><g clip-path="url(#bd190a29d5)"><path fill="#999999" d="M 745.5 262.441406 L 1555.503906 262.441406 L 1555.503906 263.546875 L 745.5 263.546875 Z M 745.5 262.441406 " fill-opacity="1" fill-rule="nonzero"/></g><g clip-path="url(#60a1ee9a46)"><path fill="#999999" d="M 745.5 294.003906 L 1555.503906 294.003906 L 1555.503906 295.109375 L 745.5 295.109375 Z M 745.5 294.003906 " fill-opacity="1" fill-rule="nonzero"/></g><g clip-path="url(#f31b83147c)"><path fill="#999999" d="M 745.5 325.558594 L 1555.503906 325.558594 L 1555.503906 326.667969 L 745.5 326.667969 Z M 745.5 325.558594 " fill-opacity="1" fill-rule="nonzero"/></g><g clip-path="url(#2252db3681)"><path fill="#999999" d="M 745.5 357.121094 L 1555.503906 357.121094 L 1555.503906 358.226562 L 745.5 358.226562 Z M 745.5 357.121094 " fill-opacity="1" fill-rule="nonzero"/></g><g clip-path="url(#15a4aaaf1d)"><path fill="#999999" d="M 745.5 388.675781 L 1555.503906 388.675781 L 1555.503906 389.785156 L 745.5 389.785156 Z M 745.5 388.675781 " fill-opacity="1" fill-rule="nonzero"/></g><g clip-path="url(#142a2ce8b0)"><path fill="#999999" d="M 745.5 420.234375 L 1555.503906 420.234375 L 1555.503906 421.339844 L 745.5 421.339844 Z M 745.5 420.234375 " fill-opacity="1" fill-rule="nonzero"/></g><g clip-path="url(#4462a82936)"><path fill="#999999" d="M 745.5 451.796875 L 1555.503906 451.796875 L 1555.503906 452.902344 L 745.5 452.902344 Z M 745.5 451.796875 " fill-opacity="1" fill-rule="nonzero"/></g><g clip-path="url(#2614245e62)"><path fill="#999999" d="M 745.5 483.351562 L 1555.503906 483.351562 L 1555.503906 484.457031 L 745.5 484.457031 Z M 745.5 483.351562 " fill-opacity="1" fill-rule="nonzero"/></g><g clip-path="url(#72f6e45abd)"><path fill="#999999" d="M 745.5 514.914062 L 1555.503906 514.914062 L 1555.503906 516.019531 L 745.5 516.019531 Z M 745.5 514.914062 " fill-opacity="1" fill-rule="nonzero"/></g><g clip-path="url(#250a957ac4)"><path fill="#999999" d="M 745.5 546.46875 L 1555.503906 546.46875 L 1555.503906 547.574219 L 745.5 547.574219 Z M 745.5 546.46875 " fill-opacity="1" fill-rule="nonzero"/></g><g clip-path="url(#6bfd9ec996)"><path fill="#999999" d="M 745.5 578.03125 L 1555.503906 578.03125 L 1555.503906 579.136719 L 745.5 579.136719 Z M 745.5 578.03125 " fill-opacity="1" fill-rule="nonzero"/></g><g clip-path="url(#0389236edb)"><path fill="#999999" d="M 745.5 609.585938 L 1555.503906 609.585938 L 1555.503906 610.695312 L 745.5 610.695312 Z M 745.5 609.585938 " fill-opacity="1" fill-rule="nonzero"/></g><g clip-path="url(#e64720a1bf)"><path fill="#999999" d="M 745.5 641.144531 L 1555.503906 641.144531 L 1555.503906 642.25 L 745.5 642.25 Z M 745.5 641.144531 " fill-opacity="1" fill-rule="nonzero"/></g><g clip-path="url(#2a0f73fdc4)"><path fill="#999999" d="M 745.5 672.703125 L 1555.503906 672.703125 L 1555.503906 673.8125 L 745.5 673.8125 Z M 745.5 672.703125 " fill-opacity="1" fill-rule="nonzero"/></g><g clip-path="url(#fbe2edc664)"><path fill="#999999" d="M 745.5 704.261719 L 1555.503906 704.261719 L 1555.503906 705.367188 L 745.5 705.367188 Z M 745.5 704.261719 " fill-opacity="1" fill-rule="nonzero"/></g><g clip-path="url(#2cfa14b915)"><path fill="#999999" d="M 745.5 735.824219 L 1555.503906 735.824219 L 1555.503906 736.929688 L 745.5 736.929688 Z M 745.5 735.824219 " fill-opacity="1" fill-rule="nonzero"/></g><g clip-path="url(#4d8e6c55a7)"><path fill="#999999" d="M 745.5 767.378906 L 1555.503906 767.378906 L 1555.503906 768.484375 L 745.5 768.484375 Z M 745.5 767.378906 " fill-opacity="1" fill-rule="nonzero"/></g><g clip-path="url(#10f175b66b)"><path fill="#999999" d="M 1418.195312 0.0078125 L 1419.300781 0.0078125 L 1419.300781 810.015625 L 1418.195312 810.015625 Z M 1418.195312 0.0078125 " fill-opacity="1" fill-rule="nonzero"/></g><g clip-path="url(#82d50ded59)"><path fill="#999999" d="M 1386.632812 0.0078125 L 1387.742188 0.0078125 L 1387.742188 810.015625 L 1386.632812 810.015625 Z M 1386.632812 0.0078125 " fill-opacity="1" fill-rule="nonzero"/></g><g clip-path="url(#838c6d3b66)"><path fill="#999999" d="M 1355.078125 0.0078125 L 1356.183594 0.0078125 L 1356.183594 810.015625 L 1355.078125 810.015625 Z M 1355.078125 0.0078125 " fill-opacity="1" fill-rule="nonzero"/></g><g clip-path="url(#671f779d9d)"><path fill="#999999" d="M 1323.523438 0.0078125 L 1324.628906 0.0078125 L 1324.628906 810.015625 L 1323.523438 810.015625 Z M 1323.523438 0.0078125 " fill-opacity="1" fill-rule="nonzero"/></g><g clip-path="url(#0786c8a642)"><path fill="#999999" d="M 1291.960938 0.0078125 L 1293.066406 0.0078125 L 1293.066406 810.015625 L 1291.960938 810.015625 Z M 1291.960938 0.0078125 " fill-opacity="1" fill-rule="nonzero"/></g><g clip-path="url(#18a870ebe7)"><path fill="#999999" d="M 1260.402344 0.0078125 L 1261.511719 0.0078125 L 1261.511719 810.015625 L 1260.402344 810.015625 Z M 1260.402344 0.0078125 " fill-opacity="1" fill-rule="nonzero"/></g><g clip-path="url(#7cb71a7ad6)"><path fill="#999999" d="M 1228.84375 0.0078125 L 1229.949219 0.0078125 L 1229.949219 810.015625 L 1228.84375 810.015625 Z M 1228.84375 0.0078125 " fill-opacity="1" fill-rule="nonzero"/></g><g clip-path="url(#bd85c42a47)"><path fill="#999999" d="M 1197.285156 0.0078125 L 1198.394531 0.0078125 L 1198.394531 810.015625 L 1197.285156 810.015625 Z M 1197.285156 0.0078125 " fill-opacity="1" fill-rule="nonzero"/></g><g clip-path="url(#b484fe310a)"><path fill="#999999" d="M 1165.726562 0.0078125 L 1166.832031 0.0078125 L 1166.832031 810.015625 L 1165.726562 810.015625 Z M 1165.726562 0.0078125 " fill-opacity="1" fill-rule="nonzero"/></g><g clip-path="url(#d484cf4af2)"><path fill="#999999" d="M 1134.167969 0.0078125 L 1135.273438 0.0078125 L 1135.273438 810.015625 L 1134.167969 810.015625 Z M 1134.167969 0.0078125 " fill-opacity="1" fill-rule="nonzero"/></g><g clip-path="url(#81539a7ae5)"><path fill="#999999" d="M 1102.613281 0.0078125 L 1103.71875 0.0078125 L 1103.71875 810.015625 L 1102.613281 810.015625 Z M 1102.613281 0.0078125 " fill-opacity="1" fill-rule="nonzero"/></g><g clip-path="url(#f058da1e7b)"><path fill="#999999" d="M 1071.050781 0.0078125 L 1072.15625 0.0078125 L 1072.15625 810.015625 L 1071.050781 810.015625 Z M 1071.050781 0.0078125 " fill-opacity="1" fill-rule="nonzero"/></g><g clip-path="url(#1d65abe790)"><path fill="#999999" d="M 1039.496094 0.0078125 L 1040.601562 0.0078125 L 1040.601562 810.015625 L 1039.496094 810.015625 Z M 1039.496094 0.0078125 " fill-opacity="1" fill-rule="nonzero"/></g><g clip-path="url(#a297cb5e06)"><path fill="#999999" d="M 1007.933594 0.0078125 L 1009.039062 0.0078125 L 1009.039062 810.015625 L 1007.933594 810.015625 Z M 1007.933594 0.0078125 " fill-opacity="1" fill-rule="nonzero"/></g><g clip-path="url(#9026249344)"><path fill="#999999" d="M 976.375 0.0078125 L 977.484375 0.0078125 L 977.484375 810.015625 L 976.375 810.015625 Z M 976.375 0.0078125 " fill-opacity="1" fill-rule="nonzero"/></g><g clip-path="url(#7e79fbe491)"><path fill="#999999" d="M 944.816406 0.0078125 L 945.921875 0.0078125 L 945.921875 810.015625 L 944.816406 810.015625 Z M 944.816406 0.0078125 " fill-opacity="1" fill-rule="nonzero"/></g><g clip-path="url(#dd5cfaefb1)"><path fill="#999999" d="M 913.257812 0.0078125 L 914.367188 0.0078125 L 914.367188 810.015625 L 913.257812 810.015625 Z M 913.257812 0.0078125 " fill-opacity="1" fill-rule="nonzero"/></g><g clip-path="url(#8e765d3a9a)"><path fill="#999999" d="M 881.699219 0.0078125 L 882.804688 0.0078125 L 882.804688 810.015625 L 881.699219 810.015625 Z M 881.699219 0.0078125 " fill-opacity="1" fill-rule="nonzero"/></g><g clip-path="url(#cf525c8558)"><path fill="#999999" d="M 850.140625 0.0078125 L 851.246094 0.0078125 L 851.246094 810.015625 L 850.140625 810.015625 Z M 850.140625 0.0078125 " fill-opacity="1" fill-rule="nonzero"/></g><g clip-path="url(#4d5626401b)"><path fill="#999999" d="M 818.585938 0.0078125 L 819.691406 0.0078125 L 819.691406 810.015625 L 818.585938 810.015625 Z M 818.585938 0.0078125 " fill-opacity="1" fill-rule="nonzero"/></g><g clip-path="url(#e1f2629d10)"><path fill="#999999" d="M 787.023438 0.0078125 L 788.128906 0.0078125 L 788.128906 810.015625 L 787.023438 810.015625 Z M 787.023438 0.0078125 " fill-opacity="1" fill-rule="nonzero"/></g></svg>