<svg xmlns="http://www.w3.org/2000/svg" xmlns:xlink="http://www.w3.org/1999/xlink" width="1920" zoomAndPan="magnify" viewBox="0 0 1440 809.999993" height="1080" preserveAspectRatio="xMidYMid meet" version="1.0"><defs><clipPath id="6305640cf6"><path d="M 0 25 L 505.5 25 L 505.5 27 L 0 27 Z M 0 25 " clip-rule="nonzero"/></clipPath><clipPath id="290fef5805"><path d="M 0 45 L 505.5 45 L 505.5 47 L 0 47 Z M 0 45 " clip-rule="nonzero"/></clipPath><clipPath id="db6f0f7be1"><path d="M 0 65 L 505.5 65 L 505.5 66 L 0 66 Z M 0 65 " clip-rule="nonzero"/></clipPath><clipPath id="de8bbb31e8"><path d="M 0 84 L 505.5 84 L 505.5 86 L 0 86 Z M 0 84 " clip-rule="nonzero"/></clipPath><clipPath id="fcf959f31d"><path d="M 0 104 L 505.5 104 L 505.5 106 L 0 106 Z M 0 104 " clip-rule="nonzero"/></clipPath><clipPath id="1987b7a8b4"><path d="M 0 124 L 505.5 124 L 505.5 126 L 0 126 Z M 0 124 " clip-rule="nonzero"/></clipPath><clipPath id="efd37569ae"><path d="M 0 144 L 505.5 144 L 505.5 145 L 0 145 Z M 0 144 " clip-rule="nonzero"/></clipPath><clipPath id="275a0ed42b"><path d="M 0 163 L 505.5 163 L 505.5 165 L 0 165 Z M 0 163 " clip-rule="nonzero"/></clipPath><clipPath id="06e2567732"><path d="M 0 183 L 505.5 183 L 505.5 185 L 0 185 Z M 0 183 " clip-rule="nonzero"/></clipPath><clipPath id="c56793494a"><path d="M 0 203 L 505.5 203 L 505.5 204 L 0 204 Z M 0 203 " clip-rule="nonzero"/></clipPath><clipPath id="eb12b3c066"><path d="M 0 222 L 505.5 222 L 505.5 224 L 0 224 Z M 0 222 " clip-rule="nonzero"/></clipPath><clipPath id="73af3226f8"><path d="M 0 242 L 505.5 242 L 505.5 244 L 0 244 Z M 0 242 " clip-rule="nonzero"/></clipPath><clipPath id="79e79d42d7"><path d="M 0 262 L 505.5 262 L 505.5 263 L 0 263 Z M 0 262 " clip-rule="nonzero"/></clipPath><clipPath id="1a52b6f063"><path d="M 0 281 L 505.5 281 L 505.5 283 L 0 283 Z M 0 281 " clip-rule="nonzero"/></clipPath><clipPath id="460edf7030"><path d="M 0 301 L 505.5 301 L 505.5 303 L 0 303 Z M 0 301 " clip-rule="nonzero"/></clipPath><clipPath id="11026cee86"><path d="M 0 321 L 505.5 321 L 505.5 323 L 0 323 Z M 0 321 " clip-rule="nonzero"/></clipPath><clipPath id="e8f908cea5"><path d="M 0 341 L 505.5 341 L 505.5 342 L 0 342 Z M 0 341 " clip-rule="nonzero"/></clipPath><clipPath id="7fc21c2ec9"><path d="M 0 360 L 505.5 360 L 505.5 362 L 0 362 Z M 0 360 " clip-rule="nonzero"/></clipPath><clipPath id="0859aaf913"><path d="M 0 380 L 505.5 380 L 505.5 382 L 0 382 Z M 0 380 " clip-rule="nonzero"/></clipPath><clipPath id="85a27b5484"><path d="M 0 400 L 505.5 400 L 505.5 401 L 0 401 Z M 0 400 " clip-rule="nonzero"/></clipPath><clipPath id="5a0756f4d4"><path d="M 0 419 L 505.5 419 L 505.5 421 L 0 421 Z M 0 419 " clip-rule="nonzero"/></clipPath><clipPath id="3fd4cdf68e"><path d="M 0 439 L 505.5 439 L 505.5 441 L 0 441 Z M 0 439 " clip-rule="nonzero"/></clipPath><clipPath id="42bd14421a"><path d="M 0 459 L 505.5 459 L 505.5 460 L 0 460 Z M 0 459 " clip-rule="nonzero"/></clipPath><clipPath id="27acf61be4"><path d="M 0 478 L 505.5 478 L 505.5 480 L 0 480 Z M 0 478 " clip-rule="nonzero"/></clipPath><clipPath id="c17f5a68ec"><path d="M 478 0 L 480 0 L 480 505.5 L 478 505.5 Z M 478 0 " clip-rule="nonzero"/></clipPath><clipPath id="2d2191a479"><path d="M 459 0 L 460 0 L 460 505.5 L 459 505.5 Z M 459 0 " clip-rule="nonzero"/></clipPath><clipPath id="dd3e2cd5e4"><path d="M 439 0 L 441 0 L 441 505.5 L 439 505.5 Z M 439 0 " clip-rule="nonzero"/></clipPath><clipPath id="c488fc4d79"><path d="M 419 0 L 421 0 L 421 505.5 L 419 505.5 Z M 419 0 " clip-rule="nonzero"/></clipPath><clipPath id="3560e3379a"><path d="M 400 0 L 401 0 L 401 505.5 L 400 505.5 Z M 400 0 " clip-rule="nonzero"/></clipPath><clipPath id="34d13da1bb"><path d="M 380 0 L 382 0 L 382 505.5 L 380 505.5 Z M 380 0 " clip-rule="nonzero"/></clipPath><clipPath id="9a99b2c6af"><path d="M 360 0 L 362 0 L 362 505.5 L 360 505.5 Z M 360 0 " clip-rule="nonzero"/></clipPath><clipPath id="0b52e88c9e"><path d="M 341 0 L 342 0 L 342 505.5 L 341 505.5 Z M 341 0 " clip-rule="nonzero"/></clipPath><clipPath id="dc390245ec"><path d="M 321 0 L 323 0 L 323 505.5 L 321 505.5 Z M 321 0 " clip-rule="nonzero"/></clipPath><clipPath id="900cf3befa"><path d="M 301 0 L 303 0 L 303 505.5 L 301 505.5 Z M 301 0 " clip-rule="nonzero"/></clipPath><clipPath id="668f3d5f29"><path d="M 281 0 L 283 0 L 283 505.5 L 281 505.5 Z M 281 0 " clip-rule="nonzero"/></clipPath><clipPath id="547e90fa53"><path d="M 262 0 L 263 0 L 263 505.5 L 262 505.5 Z M 262 0 " clip-rule="nonzero"/></clipPath><clipPath id="369b4bf9ce"><path d="M 242 0 L 244 0 L 244 505.5 L 242 505.5 Z M 242 0 " clip-rule="nonzero"/></clipPath><clipPath id="2797590904"><path d="M 222 0 L 224 0 L 224 505.5 L 222 505.5 Z M 222 0 " clip-rule="nonzero"/></clipPath><clipPath id="583c7f049f"><path d="M 203 0 L 204 0 L 204 505.5 L 203 505.5 Z M 203 0 " clip-rule="nonzero"/></clipPath><clipPath id="63e753f861"><path d="M 183 0 L 185 0 L 185 505.5 L 183 505.5 Z M 183 0 " clip-rule="nonzero"/></clipPath><clipPath id="c332df17bb"><path d="M 163 0 L 165 0 L 165 505.5 L 163 505.5 Z M 163 0 " clip-rule="nonzero"/></clipPath><clipPath id="fa4e4f2081"><path d="M 144 0 L 145 0 L 145 505.5 L 144 505.5 Z M 144 0 " clip-rule="nonzero"/></clipPath><clipPath id="3cafed1645"><path d="M 124 0 L 126 0 L 126 505.5 L 124 505.5 Z M 124 0 " clip-rule="nonzero"/></clipPath><clipPath id="6e85cc96a5"><path d="M 104 0 L 106 0 L 106 505.5 L 104 505.5 Z M 104 0 " clip-rule="nonzero"/></clipPath><clipPath id="6bebf0eacf"><path d="M 84 0 L 86 0 L 86 505.5 L 84 505.5 Z M 84 0 " clip-rule="nonzero"/></clipPath><clipPath id="d9241ca2a3"><path d="M 65 0 L 66 0 L 66 505.5 L 65 505.5 Z M 65 0 " clip-rule="nonzero"/></clipPath><clipPath id="b8835dee76"><path d="M 45 0 L 47 0 L 47 505.5 L 45 505.5 Z M 45 0 " clip-rule="nonzero"/></clipPath><clipPath id="d9a9912e11"><path d="M 25 0 L 27 0 L 27 505.5 L 25 505.5 Z M 25 0 " clip-rule="nonzero"/></clipPath><clipPath id="0c1baeb16e"><path d="M 478.566406 25 L 984.066406 25 L 984.066406 27 L 478.566406 27 Z M 478.566406 25 " clip-rule="nonzero"/></clipPath><clipPath id="c170b30556"><path d="M 478.566406 45 L 984.066406 45 L 984.066406 47 L 478.566406 47 Z M 478.566406 45 " clip-rule="nonzero"/></clipPath><clipPath id="e0dd52e0b4"><path d="M 478.566406 65 L 984.066406 65 L 984.066406 66 L 478.566406 66 Z M 478.566406 65 " clip-rule="nonzero"/></clipPath><clipPath id="cfde40a225"><path d="M 478.566406 84 L 984.066406 84 L 984.066406 86 L 478.566406 86 Z M 478.566406 84 " clip-rule="nonzero"/></clipPath><clipPath id="778a7bf0f5"><path d="M 478.566406 104 L 984.066406 104 L 984.066406 106 L 478.566406 106 Z M 478.566406 104 " clip-rule="nonzero"/></clipPath><clipPath id="5fbae9d508"><path d="M 478.566406 124 L 984.066406 124 L 984.066406 126 L 478.566406 126 Z M 478.566406 124 " clip-rule="nonzero"/></clipPath><clipPath id="f21a09446b"><path d="M 478.566406 144 L 984.066406 144 L 984.066406 145 L 478.566406 145 Z M 478.566406 144 " clip-rule="nonzero"/></clipPath><clipPath id="2ba3c10862"><path d="M 478.566406 163 L 984.066406 163 L 984.066406 165 L 478.566406 165 Z M 478.566406 163 " clip-rule="nonzero"/></clipPath><clipPath id="3a772f08e7"><path d="M 478.566406 183 L 984.066406 183 L 984.066406 185 L 478.566406 185 Z M 478.566406 183 " clip-rule="nonzero"/></clipPath><clipPath id="2b90ca72ed"><path d="M 478.566406 203 L 984.066406 203 L 984.066406 204 L 478.566406 204 Z M 478.566406 203 " clip-rule="nonzero"/></clipPath><clipPath id="d1c230d424"><path d="M 478.566406 222 L 984.066406 222 L 984.066406 224 L 478.566406 224 Z M 478.566406 222 " clip-rule="nonzero"/></clipPath><clipPath id="3187789948"><path d="M 478.566406 242 L 984.066406 242 L 984.066406 244 L 478.566406 244 Z M 478.566406 242 " clip-rule="nonzero"/></clipPath><clipPath id="120c3c721a"><path d="M 478.566406 262 L 984.066406 262 L 984.066406 263 L 478.566406 263 Z M 478.566406 262 " clip-rule="nonzero"/></clipPath><clipPath id="ed12eab9ec"><path d="M 478.566406 281 L 984.066406 281 L 984.066406 283 L 478.566406 283 Z M 478.566406 281 " clip-rule="nonzero"/></clipPath><clipPath id="bde3e56b94"><path d="M 478.566406 301 L 984.066406 301 L 984.066406 303 L 478.566406 303 Z M 478.566406 301 " clip-rule="nonzero"/></clipPath><clipPath id="57664100c0"><path d="M 478.566406 321 L 984.066406 321 L 984.066406 323 L 478.566406 323 Z M 478.566406 321 " clip-rule="nonzero"/></clipPath><clipPath id="50e9fab25d"><path d="M 478.566406 341 L 984.066406 341 L 984.066406 342 L 478.566406 342 Z M 478.566406 341 " clip-rule="nonzero"/></clipPath><clipPath id="60ae5387b6"><path d="M 478.566406 360 L 984.066406 360 L 984.066406 362 L 478.566406 362 Z M 478.566406 360 " clip-rule="nonzero"/></clipPath><clipPath id="4368a8affc"><path d="M 478.566406 380 L 984.066406 380 L 984.066406 382 L 478.566406 382 Z M 478.566406 380 " clip-rule="nonzero"/></clipPath><clipPath id="b5f8c19cb4"><path d="M 478.566406 400 L 984.066406 400 L 984.066406 401 L 478.566406 401 Z M 478.566406 400 " clip-rule="nonzero"/></clipPath><clipPath id="80507674c2"><path d="M 478.566406 419 L 984.066406 419 L 984.066406 421 L 478.566406 421 Z M 478.566406 419 " clip-rule="nonzero"/></clipPath><clipPath id="595c07bacf"><path d="M 478.566406 439 L 984.066406 439 L 984.066406 441 L 478.566406 441 Z M 478.566406 439 " clip-rule="nonzero"/></clipPath><clipPath id="99de048ba9"><path d="M 478.566406 459 L 984.066406 459 L 984.066406 460 L 478.566406 460 Z M 478.566406 459 " clip-rule="nonzero"/></clipPath><clipPath id="b619594f58"><path d="M 478.566406 478 L 984.066406 478 L 984.066406 480 L 478.566406 480 Z M 478.566406 478 " clip-rule="nonzero"/></clipPath><clipPath id="16062142c1"><path d="M 957 0 L 959 0 L 959 505.5 L 957 505.5 Z M 957 0 " clip-rule="nonzero"/></clipPath><clipPath id="1b45b82cfd"><path d="M 937 0 L 939 0 L 939 505.5 L 937 505.5 Z M 937 0 " clip-rule="nonzero"/></clipPath><clipPath id="175ebda2b8"><path d="M 918 0 L 919 0 L 919 505.5 L 918 505.5 Z M 918 0 " clip-rule="nonzero"/></clipPath><clipPath id="1b372f4099"><path d="M 898 0 L 900 0 L 900 505.5 L 898 505.5 Z M 898 0 " clip-rule="nonzero"/></clipPath><clipPath id="ce17907630"><path d="M 878 0 L 880 0 L 880 505.5 L 878 505.5 Z M 878 0 " clip-rule="nonzero"/></clipPath><clipPath id="7aece15f31"><path d="M 858 0 L 860 0 L 860 505.5 L 858 505.5 Z M 858 0 " clip-rule="nonzero"/></clipPath><clipPath id="fb1d21c55d"><path d="M 839 0 L 840 0 L 840 505.5 L 839 505.5 Z M 839 0 " clip-rule="nonzero"/></clipPath><clipPath id="5de76c3c3f"><path d="M 819 0 L 821 0 L 821 505.5 L 819 505.5 Z M 819 0 " clip-rule="nonzero"/></clipPath><clipPath id="2156b423c0"><path d="M 799 0 L 801 0 L 801 505.5 L 799 505.5 Z M 799 0 " clip-rule="nonzero"/></clipPath><clipPath id="92b289b693"><path d="M 780 0 L 781 0 L 781 505.5 L 780 505.5 Z M 780 0 " clip-rule="nonzero"/></clipPath><clipPath id="3066932698"><path d="M 760 0 L 762 0 L 762 505.5 L 760 505.5 Z M 760 0 " clip-rule="nonzero"/></clipPath><clipPath id="566f2f8b00"><path d="M 740 0 L 742 0 L 742 505.5 L 740 505.5 Z M 740 0 " clip-rule="nonzero"/></clipPath><clipPath id="af13d8c14c"><path d="M 721 0 L 722 0 L 722 505.5 L 721 505.5 Z M 721 0 " clip-rule="nonzero"/></clipPath><clipPath id="f1d2a4834c"><path d="M 701 0 L 703 0 L 703 505.5 L 701 505.5 Z M 701 0 " clip-rule="nonzero"/></clipPath><clipPath id="546d806339"><path d="M 681 0 L 683 0 L 683 505.5 L 681 505.5 Z M 681 0 " clip-rule="nonzero"/></clipPath><clipPath id="7cc52e1ee7"><path d="M 662 0 L 663 0 L 663 505.5 L 662 505.5 Z M 662 0 " clip-rule="nonzero"/></clipPath><clipPath id="2d09ec4128"><path d="M 642 0 L 644 0 L 644 505.5 L 642 505.5 Z M 642 0 " clip-rule="nonzero"/></clipPath><clipPath id="28ed66583f"><path d="M 622 0 L 624 0 L 624 505.5 L 622 505.5 Z M 622 0 " clip-rule="nonzero"/></clipPath><clipPath id="39650bd814"><path d="M 602 0 L 604 0 L 604 505.5 L 602 505.5 Z M 602 0 " clip-rule="nonzero"/></clipPath><clipPath id="6ae7612605"><path d="M 583 0 L 584 0 L 584 505.5 L 583 505.5 Z M 583 0 " clip-rule="nonzero"/></clipPath><clipPath id="81c30354b6"><path d="M 563 0 L 565 0 L 565 505.5 L 563 505.5 Z M 563 0 " clip-rule="nonzero"/></clipPath><clipPath id="21b29fdfa0"><path d="M 543 0 L 545 0 L 545 505.5 L 543 505.5 Z M 543 0 " clip-rule="nonzero"/></clipPath><clipPath id="81aedb2d19"><path d="M 524 0 L 525 0 L 525 505.5 L 524 505.5 Z M 524 0 " clip-rule="nonzero"/></clipPath><clipPath id="03fabfb7d1"><path d="M 504 0 L 506 0 L 506 505.5 L 504 505.5 Z M 504 0 " clip-rule="nonzero"/></clipPath><clipPath id="0a6cf7e99d"><path d="M 959.722656 25 L 1440 25 L 1440 27 L 959.722656 27 Z M 959.722656 25 " clip-rule="nonzero"/></clipPath><clipPath id="8d4c144664"><path d="M 959.722656 45 L 1440 45 L 1440 47 L 959.722656 47 Z M 959.722656 45 " clip-rule="nonzero"/></clipPath><clipPath id="eed26c1e10"><path d="M 959.722656 65 L 1440 65 L 1440 66 L 959.722656 66 Z M 959.722656 65 " clip-rule="nonzero"/></clipPath><clipPath id="34b693e439"><path d="M 959.722656 84 L 1440 84 L 1440 86 L 959.722656 86 Z M 959.722656 84 " clip-rule="nonzero"/></clipPath><clipPath id="3e387281f5"><path d="M 959.722656 104 L 1440 104 L 1440 106 L 959.722656 106 Z M 959.722656 104 " clip-rule="nonzero"/></clipPath><clipPath id="48fe682b0d"><path d="M 959.722656 124 L 1440 124 L 1440 126 L 959.722656 126 Z M 959.722656 124 " clip-rule="nonzero"/></clipPath><clipPath id="6541c072d6"><path d="M 959.722656 144 L 1440 144 L 1440 145 L 959.722656 145 Z M 959.722656 144 " clip-rule="nonzero"/></clipPath><clipPath id="f6517e852d"><path d="M 959.722656 163 L 1440 163 L 1440 165 L 959.722656 165 Z M 959.722656 163 " clip-rule="nonzero"/></clipPath><clipPath id="8fcd025420"><path d="M 959.722656 183 L 1440 183 L 1440 185 L 959.722656 185 Z M 959.722656 183 " clip-rule="nonzero"/></clipPath><clipPath id="51e8e9f42a"><path d="M 959.722656 203 L 1440 203 L 1440 204 L 959.722656 204 Z M 959.722656 203 " clip-rule="nonzero"/></clipPath><clipPath id="0e500a49e5"><path d="M 959.722656 222 L 1440 222 L 1440 224 L 959.722656 224 Z M 959.722656 222 " clip-rule="nonzero"/></clipPath><clipPath id="df626fa571"><path d="M 959.722656 242 L 1440 242 L 1440 244 L 959.722656 244 Z M 959.722656 242 " clip-rule="nonzero"/></clipPath><clipPath id="f8f1a5e967"><path d="M 959.722656 262 L 1440 262 L 1440 263 L 959.722656 263 Z M 959.722656 262 " clip-rule="nonzero"/></clipPath><clipPath id="852c5293df"><path d="M 959.722656 281 L 1440 281 L 1440 283 L 959.722656 283 Z M 959.722656 281 " clip-rule="nonzero"/></clipPath><clipPath id="48b7e0ebe6"><path d="M 959.722656 301 L 1440 301 L 1440 303 L 959.722656 303 Z M 959.722656 301 " clip-rule="nonzero"/></clipPath><clipPath id="2cd5a7c5ae"><path d="M 959.722656 321 L 1440 321 L 1440 323 L 959.722656 323 Z M 959.722656 321 " clip-rule="nonzero"/></clipPath><clipPath id="579dbf8b72"><path d="M 959.722656 341 L 1440 341 L 1440 342 L 959.722656 342 Z M 959.722656 341 " clip-rule="nonzero"/></clipPath><clipPath id="80398506af"><path d="M 959.722656 360 L 1440 360 L 1440 362 L 959.722656 362 Z M 959.722656 360 " clip-rule="nonzero"/></clipPath><clipPath id="07fb2aff6c"><path d="M 959.722656 380 L 1440 380 L 1440 382 L 959.722656 382 Z M 959.722656 380 " clip-rule="nonzero"/></clipPath><clipPath id="fd1de04a05"><path d="M 959.722656 400 L 1440 400 L 1440 401 L 959.722656 401 Z M 959.722656 400 " clip-rule="nonzero"/></clipPath><clipPath id="9e70798df9"><path d="M 959.722656 419 L 1440 419 L 1440 421 L 959.722656 421 Z M 959.722656 419 " clip-rule="nonzero"/></clipPath><clipPath id="74062de9aa"><path d="M 959.722656 439 L 1440 439 L 1440 441 L 959.722656 441 Z M 959.722656 439 " clip-rule="nonzero"/></clipPath><clipPath id="f23acd5585"><path d="M 959.722656 459 L 1440 459 L 1440 460 L 959.722656 460 Z M 959.722656 459 " clip-rule="nonzero"/></clipPath><clipPath id="6e08e3b26b"><path d="M 959.722656 478 L 1440 478 L 1440 480 L 959.722656 480 Z M 959.722656 478 " clip-rule="nonzero"/></clipPath><clipPath id="860a208854"><path d="M 1438 0 L 1440 0 L 1440 505.5 L 1438 505.5 Z M 1438 0 " clip-rule="nonzero"/></clipPath><clipPath id="04e260fea7"><path d="M 1418 0 L 1420 0 L 1420 505.5 L 1418 505.5 Z M 1418 0 " clip-rule="nonzero"/></clipPath><clipPath id="b11a85d7d5"><path d="M 1399 0 L 1400 0 L 1400 505.5 L 1399 505.5 Z M 1399 0 " clip-rule="nonzero"/></clipPath><clipPath id="3b7cd9aaba"><path d="M 1379 0 L 1381 0 L 1381 505.5 L 1379 505.5 Z M 1379 0 " clip-rule="nonzero"/></clipPath><clipPath id="2df636456d"><path d="M 1359 0 L 1361 0 L 1361 505.5 L 1359 505.5 Z M 1359 0 " clip-rule="nonzero"/></clipPath><clipPath id="60236caed9"><path d="M 1340 0 L 1341 0 L 1341 505.5 L 1340 505.5 Z M 1340 0 " clip-rule="nonzero"/></clipPath><clipPath id="3e557692c9"><path d="M 1320 0 L 1322 0 L 1322 505.5 L 1320 505.5 Z M 1320 0 " clip-rule="nonzero"/></clipPath><clipPath id="444fc140b5"><path d="M 1300 0 L 1302 0 L 1302 505.5 L 1300 505.5 Z M 1300 0 " clip-rule="nonzero"/></clipPath><clipPath id="bcf804ae1b"><path d="M 1281 0 L 1282 0 L 1282 505.5 L 1281 505.5 Z M 1281 0 " clip-rule="nonzero"/></clipPath><clipPath id="0182748210"><path d="M 1261 0 L 1263 0 L 1263 505.5 L 1261 505.5 Z M 1261 0 " clip-rule="nonzero"/></clipPath><clipPath id="c6a482f33b"><path d="M 1241 0 L 1243 0 L 1243 505.5 L 1241 505.5 Z M 1241 0 " clip-rule="nonzero"/></clipPath><clipPath id="20adea4dc4"><path d="M 1221 0 L 1223 0 L 1223 505.5 L 1221 505.5 Z M 1221 0 " clip-rule="nonzero"/></clipPath><clipPath id="6ff068f01a"><path d="M 1202 0 L 1203 0 L 1203 505.5 L 1202 505.5 Z M 1202 0 " clip-rule="nonzero"/></clipPath><clipPath id="188c6ec1cc"><path d="M 1182 0 L 1184 0 L 1184 505.5 L 1182 505.5 Z M 1182 0 " clip-rule="nonzero"/></clipPath><clipPath id="b9ed9b18be"><path d="M 1162 0 L 1164 0 L 1164 505.5 L 1162 505.5 Z M 1162 0 " clip-rule="nonzero"/></clipPath><clipPath id="3434469987"><path d="M 1143 0 L 1144 0 L 1144 505.5 L 1143 505.5 Z M 1143 0 " clip-rule="nonzero"/></clipPath><clipPath id="70be6c933e"><path d="M 1123 0 L 1125 0 L 1125 505.5 L 1123 505.5 Z M 1123 0 " clip-rule="nonzero"/></clipPath><clipPath id="ed41ef99e9"><path d="M 1103 0 L 1105 0 L 1105 505.5 L 1103 505.5 Z M 1103 0 " clip-rule="nonzero"/></clipPath><clipPath id="cca51cdf74"><path d="M 1084 0 L 1085 0 L 1085 505.5 L 1084 505.5 Z M 1084 0 " clip-rule="nonzero"/></clipPath><clipPath id="9df84d3c95"><path d="M 1064 0 L 1066 0 L 1066 505.5 L 1064 505.5 Z M 1064 0 " clip-rule="nonzero"/></clipPath><clipPath id="38101f3d8e"><path d="M 1044 0 L 1046 0 L 1046 505.5 L 1044 505.5 Z M 1044 0 " clip-rule="nonzero"/></clipPath><clipPath id="263da41ce0"><path d="M 1025 0 L 1026 0 L 1026 505.5 L 1025 505.5 Z M 1025 0 " clip-rule="nonzero"/></clipPath><clipPath id="198946a468"><path d="M 1005 0 L 1007 0 L 1007 505.5 L 1005 505.5 Z M 1005 0 " clip-rule="nonzero"/></clipPath><clipPath id="9015a3e080"><path d="M 985 0 L 987 0 L 987 505.5 L 985 505.5 Z M 985 0 " clip-rule="nonzero"/></clipPath><clipPath id="8df7f78e2b"><path d="M 0 502 L 505.5 502 L 505.5 503 L 0 503 Z M 0 502 " clip-rule="nonzero"/></clipPath><clipPath id="d89069b58c"><path d="M 0 521 L 505.5 521 L 505.5 523 L 0 523 Z M 0 521 " clip-rule="nonzero"/></clipPath><clipPath id="85470a38f4"><path d="M 0 541 L 505.5 541 L 505.5 543 L 0 543 Z M 0 541 " clip-rule="nonzero"/></clipPath><clipPath id="1cd495036e"><path d="M 0 561 L 505.5 561 L 505.5 562 L 0 562 Z M 0 561 " clip-rule="nonzero"/></clipPath><clipPath id="363cd570f4"><path d="M 0 580 L 505.5 580 L 505.5 582 L 0 582 Z M 0 580 " clip-rule="nonzero"/></clipPath><clipPath id="453869008a"><path d="M 0 600 L 505.5 600 L 505.5 602 L 0 602 Z M 0 600 " clip-rule="nonzero"/></clipPath><clipPath id="8f22bde5c3"><path d="M 0 620 L 505.5 620 L 505.5 622 L 0 622 Z M 0 620 " clip-rule="nonzero"/></clipPath><clipPath id="10f44328e6"><path d="M 0 640 L 505.5 640 L 505.5 641 L 0 641 Z M 0 640 " clip-rule="nonzero"/></clipPath><clipPath id="a542b390e9"><path d="M 0 659 L 505.5 659 L 505.5 661 L 0 661 Z M 0 659 " clip-rule="nonzero"/></clipPath><clipPath id="e7e1d6723d"><path d="M 0 679 L 505.5 679 L 505.5 681 L 0 681 Z M 0 679 " clip-rule="nonzero"/></clipPath><clipPath id="86633e4952"><path d="M 0 699 L 505.5 699 L 505.5 700 L 0 700 Z M 0 699 " clip-rule="nonzero"/></clipPath><clipPath id="d4176d8102"><path d="M 0 718 L 505.5 718 L 505.5 720 L 0 720 Z M 0 718 " clip-rule="nonzero"/></clipPath><clipPath id="c59b868d11"><path d="M 0 738 L 505.5 738 L 505.5 740 L 0 740 Z M 0 738 " clip-rule="nonzero"/></clipPath><clipPath id="bc74a64b2a"><path d="M 0 758 L 505.5 758 L 505.5 759 L 0 759 Z M 0 758 " clip-rule="nonzero"/></clipPath><clipPath id="b4a3cb49b8"><path d="M 0 777 L 505.5 777 L 505.5 779 L 0 779 Z M 0 777 " clip-rule="nonzero"/></clipPath><clipPath id="0c827de92a"><path d="M 0 797 L 505.5 797 L 505.5 799 L 0 799 Z M 0 797 " clip-rule="nonzero"/></clipPath><clipPath id="8251877c06"><path d="M 478 476.277344 L 480 476.277344 L 480 810 L 478 810 Z M 478 476.277344 " clip-rule="nonzero"/></clipPath><clipPath id="538997d07a"><path d="M 459 476.277344 L 460 476.277344 L 460 810 L 459 810 Z M 459 476.277344 " clip-rule="nonzero"/></clipPath><clipPath id="272b3cc510"><path d="M 439 476.277344 L 441 476.277344 L 441 810 L 439 810 Z M 439 476.277344 " clip-rule="nonzero"/></clipPath><clipPath id="05462700e7"><path d="M 419 476.277344 L 421 476.277344 L 421 810 L 419 810 Z M 419 476.277344 " clip-rule="nonzero"/></clipPath><clipPath id="aad927c51d"><path d="M 400 476.277344 L 401 476.277344 L 401 810 L 400 810 Z M 400 476.277344 " clip-rule="nonzero"/></clipPath><clipPath id="f7b37257a5"><path d="M 380 476.277344 L 382 476.277344 L 382 810 L 380 810 Z M 380 476.277344 " clip-rule="nonzero"/></clipPath><clipPath id="0ab7ba387f"><path d="M 360 476.277344 L 362 476.277344 L 362 810 L 360 810 Z M 360 476.277344 " clip-rule="nonzero"/></clipPath><clipPath id="4d919b55a5"><path d="M 341 476.277344 L 342 476.277344 L 342 810 L 341 810 Z M 341 476.277344 " clip-rule="nonzero"/></clipPath><clipPath id="73731e632e"><path d="M 321 476.277344 L 323 476.277344 L 323 810 L 321 810 Z M 321 476.277344 " clip-rule="nonzero"/></clipPath><clipPath id="0ed1626c09"><path d="M 301 476.277344 L 303 476.277344 L 303 810 L 301 810 Z M 301 476.277344 " clip-rule="nonzero"/></clipPath><clipPath id="255e75aac3"><path d="M 281 476.277344 L 283 476.277344 L 283 810 L 281 810 Z M 281 476.277344 " clip-rule="nonzero"/></clipPath><clipPath id="8fffbb3b2d"><path d="M 262 476.277344 L 263 476.277344 L 263 810 L 262 810 Z M 262 476.277344 " clip-rule="nonzero"/></clipPath><clipPath id="82b54b4157"><path d="M 242 476.277344 L 244 476.277344 L 244 810 L 242 810 Z M 242 476.277344 " clip-rule="nonzero"/></clipPath><clipPath id="16bd44ff26"><path d="M 222 476.277344 L 224 476.277344 L 224 810 L 222 810 Z M 222 476.277344 " clip-rule="nonzero"/></clipPath><clipPath id="1af6de0c59"><path d="M 203 476.277344 L 204 476.277344 L 204 810 L 203 810 Z M 203 476.277344 " clip-rule="nonzero"/></clipPath><clipPath id="4eb1f0ed44"><path d="M 183 476.277344 L 185 476.277344 L 185 810 L 183 810 Z M 183 476.277344 " clip-rule="nonzero"/></clipPath><clipPath id="1acd84ef84"><path d="M 163 476.277344 L 165 476.277344 L 165 810 L 163 810 Z M 163 476.277344 " clip-rule="nonzero"/></clipPath><clipPath id="1efd9730e9"><path d="M 144 476.277344 L 145 476.277344 L 145 810 L 144 810 Z M 144 476.277344 " clip-rule="nonzero"/></clipPath><clipPath id="e57c8e225f"><path d="M 124 476.277344 L 126 476.277344 L 126 810 L 124 810 Z M 124 476.277344 " clip-rule="nonzero"/></clipPath><clipPath id="9b55c7ae10"><path d="M 104 476.277344 L 106 476.277344 L 106 810 L 104 810 Z M 104 476.277344 " clip-rule="nonzero"/></clipPath><clipPath id="983acd3a6e"><path d="M 84 476.277344 L 86 476.277344 L 86 810 L 84 810 Z M 84 476.277344 " clip-rule="nonzero"/></clipPath><clipPath id="178c5ee143"><path d="M 65 476.277344 L 66 476.277344 L 66 810 L 65 810 Z M 65 476.277344 " clip-rule="nonzero"/></clipPath><clipPath id="222d7d0f64"><path d="M 45 476.277344 L 47 476.277344 L 47 810 L 45 810 Z M 45 476.277344 " clip-rule="nonzero"/></clipPath><clipPath id="e4b5d82b6a"><path d="M 25 476.277344 L 27 476.277344 L 27 810 L 25 810 Z M 25 476.277344 " clip-rule="nonzero"/></clipPath><clipPath id="5d4f183a0b"><path d="M 478.566406 502 L 984.066406 502 L 984.066406 503 L 478.566406 503 Z M 478.566406 502 " clip-rule="nonzero"/></clipPath><clipPath id="e197246968"><path d="M 478.566406 521 L 984.066406 521 L 984.066406 523 L 478.566406 523 Z M 478.566406 521 " clip-rule="nonzero"/></clipPath><clipPath id="44dfe3bd45"><path d="M 478.566406 541 L 984.066406 541 L 984.066406 543 L 478.566406 543 Z M 478.566406 541 " clip-rule="nonzero"/></clipPath><clipPath id="87f5a416cb"><path d="M 478.566406 561 L 984.066406 561 L 984.066406 562 L 478.566406 562 Z M 478.566406 561 " clip-rule="nonzero"/></clipPath><clipPath id="0bd9778a6a"><path d="M 478.566406 580 L 984.066406 580 L 984.066406 582 L 478.566406 582 Z M 478.566406 580 " clip-rule="nonzero"/></clipPath><clipPath id="811933316a"><path d="M 478.566406 600 L 984.066406 600 L 984.066406 602 L 478.566406 602 Z M 478.566406 600 " clip-rule="nonzero"/></clipPath><clipPath id="c1d0c65122"><path d="M 478.566406 620 L 984.066406 620 L 984.066406 622 L 478.566406 622 Z M 478.566406 620 " clip-rule="nonzero"/></clipPath><clipPath id="41130260b8"><path d="M 478.566406 640 L 984.066406 640 L 984.066406 641 L 478.566406 641 Z M 478.566406 640 " clip-rule="nonzero"/></clipPath><clipPath id="3b72b6281c"><path d="M 478.566406 659 L 984.066406 659 L 984.066406 661 L 478.566406 661 Z M 478.566406 659 " clip-rule="nonzero"/></clipPath><clipPath id="bc74234f2d"><path d="M 478.566406 679 L 984.066406 679 L 984.066406 681 L 478.566406 681 Z M 478.566406 679 " clip-rule="nonzero"/></clipPath><clipPath id="b70dee284a"><path d="M 478.566406 699 L 984.066406 699 L 984.066406 700 L 478.566406 700 Z M 478.566406 699 " clip-rule="nonzero"/></clipPath><clipPath id="db4aba857f"><path d="M 478.566406 718 L 984.066406 718 L 984.066406 720 L 478.566406 720 Z M 478.566406 718 " clip-rule="nonzero"/></clipPath><clipPath id="7dc8a059c9"><path d="M 478.566406 738 L 984.066406 738 L 984.066406 740 L 478.566406 740 Z M 478.566406 738 " clip-rule="nonzero"/></clipPath><clipPath id="e14c236b9b"><path d="M 478.566406 758 L 984.066406 758 L 984.066406 759 L 478.566406 759 Z M 478.566406 758 " clip-rule="nonzero"/></clipPath><clipPath id="765aafbf6c"><path d="M 478.566406 777 L 984.066406 777 L 984.066406 779 L 478.566406 779 Z M 478.566406 777 " clip-rule="nonzero"/></clipPath><clipPath id="726baf3f74"><path d="M 478.566406 797 L 984.066406 797 L 984.066406 799 L 478.566406 799 Z M 478.566406 797 " clip-rule="nonzero"/></clipPath><clipPath id="63dbf4fefc"><path d="M 957 476.277344 L 959 476.277344 L 959 810 L 957 810 Z M 957 476.277344 " clip-rule="nonzero"/></clipPath><clipPath id="69f20ceee9"><path d="M 937 476.277344 L 939 476.277344 L 939 810 L 937 810 Z M 937 476.277344 " clip-rule="nonzero"/></clipPath><clipPath id="97f4c29168"><path d="M 918 476.277344 L 919 476.277344 L 919 810 L 918 810 Z M 918 476.277344 " clip-rule="nonzero"/></clipPath><clipPath id="3c8d88aea8"><path d="M 898 476.277344 L 900 476.277344 L 900 810 L 898 810 Z M 898 476.277344 " clip-rule="nonzero"/></clipPath><clipPath id="d62c1940a6"><path d="M 878 476.277344 L 880 476.277344 L 880 810 L 878 810 Z M 878 476.277344 " clip-rule="nonzero"/></clipPath><clipPath id="6ea020edb4"><path d="M 858 476.277344 L 860 476.277344 L 860 810 L 858 810 Z M 858 476.277344 " clip-rule="nonzero"/></clipPath><clipPath id="dda91dd3a2"><path d="M 839 476.277344 L 840 476.277344 L 840 810 L 839 810 Z M 839 476.277344 " clip-rule="nonzero"/></clipPath><clipPath id="905d04fc52"><path d="M 819 476.277344 L 821 476.277344 L 821 810 L 819 810 Z M 819 476.277344 " clip-rule="nonzero"/></clipPath><clipPath id="efd29aa55c"><path d="M 799 476.277344 L 801 476.277344 L 801 810 L 799 810 Z M 799 476.277344 " clip-rule="nonzero"/></clipPath><clipPath id="3c443e3ffa"><path d="M 780 476.277344 L 781 476.277344 L 781 810 L 780 810 Z M 780 476.277344 " clip-rule="nonzero"/></clipPath><clipPath id="83c6c8276b"><path d="M 760 476.277344 L 762 476.277344 L 762 810 L 760 810 Z M 760 476.277344 " clip-rule="nonzero"/></clipPath><clipPath id="cdc403dfc2"><path d="M 740 476.277344 L 742 476.277344 L 742 810 L 740 810 Z M 740 476.277344 " clip-rule="nonzero"/></clipPath><clipPath id="e0675995b7"><path d="M 721 476.277344 L 722 476.277344 L 722 810 L 721 810 Z M 721 476.277344 " clip-rule="nonzero"/></clipPath><clipPath id="6f1dcc40e3"><path d="M 701 476.277344 L 703 476.277344 L 703 810 L 701 810 Z M 701 476.277344 " clip-rule="nonzero"/></clipPath><clipPath id="a2cfb12952"><path d="M 681 476.277344 L 683 476.277344 L 683 810 L 681 810 Z M 681 476.277344 " clip-rule="nonzero"/></clipPath><clipPath id="4c48f54d6c"><path d="M 662 476.277344 L 663 476.277344 L 663 810 L 662 810 Z M 662 476.277344 " clip-rule="nonzero"/></clipPath><clipPath id="5eae34017d"><path d="M 642 476.277344 L 644 476.277344 L 644 810 L 642 810 Z M 642 476.277344 " clip-rule="nonzero"/></clipPath><clipPath id="5a15e449ad"><path d="M 622 476.277344 L 624 476.277344 L 624 810 L 622 810 Z M 622 476.277344 " clip-rule="nonzero"/></clipPath><clipPath id="87450f9d0f"><path d="M 602 476.277344 L 604 476.277344 L 604 810 L 602 810 Z M 602 476.277344 " clip-rule="nonzero"/></clipPath><clipPath id="b409107bae"><path d="M 583 476.277344 L 584 476.277344 L 584 810 L 583 810 Z M 583 476.277344 " clip-rule="nonzero"/></clipPath><clipPath id="f86e368816"><path d="M 563 476.277344 L 565 476.277344 L 565 810 L 563 810 Z M 563 476.277344 " clip-rule="nonzero"/></clipPath><clipPath id="5d1b595b26"><path d="M 543 476.277344 L 545 476.277344 L 545 810 L 543 810 Z M 543 476.277344 " clip-rule="nonzero"/></clipPath><clipPath id="e0158a4d29"><path d="M 524 476.277344 L 525 476.277344 L 525 810 L 524 810 Z M 524 476.277344 " clip-rule="nonzero"/></clipPath><clipPath id="d58e1614f1"><path d="M 504 476.277344 L 506 476.277344 L 506 810 L 504 810 Z M 504 476.277344 " clip-rule="nonzero"/></clipPath><clipPath id="e09196f78f"><path d="M 959.722656 502 L 1440 502 L 1440 503 L 959.722656 503 Z M 959.722656 502 " clip-rule="nonzero"/></clipPath><clipPath id="633a42ced0"><path d="M 959.722656 521 L 1440 521 L 1440 523 L 959.722656 523 Z M 959.722656 521 " clip-rule="nonzero"/></clipPath><clipPath id="ce4b8a45a7"><path d="M 959.722656 541 L 1440 541 L 1440 543 L 959.722656 543 Z M 959.722656 541 " clip-rule="nonzero"/></clipPath><clipPath id="00f4912903"><path d="M 959.722656 561 L 1440 561 L 1440 562 L 959.722656 562 Z M 959.722656 561 " clip-rule="nonzero"/></clipPath><clipPath id="5b8a946146"><path d="M 959.722656 580 L 1440 580 L 1440 582 L 959.722656 582 Z M 959.722656 580 " clip-rule="nonzero"/></clipPath><clipPath id="a3d39a85ee"><path d="M 959.722656 600 L 1440 600 L 1440 602 L 959.722656 602 Z M 959.722656 600 " clip-rule="nonzero"/></clipPath><clipPath id="89bcd7eed6"><path d="M 959.722656 620 L 1440 620 L 1440 622 L 959.722656 622 Z M 959.722656 620 " clip-rule="nonzero"/></clipPath><clipPath id="d6952de195"><path d="M 959.722656 640 L 1440 640 L 1440 641 L 959.722656 641 Z M 959.722656 640 " clip-rule="nonzero"/></clipPath><clipPath id="b2b0fcc0f6"><path d="M 959.722656 659 L 1440 659 L 1440 661 L 959.722656 661 Z M 959.722656 659 " clip-rule="nonzero"/></clipPath><clipPath id="9c7b8e8704"><path d="M 959.722656 679 L 1440 679 L 1440 681 L 959.722656 681 Z M 959.722656 679 " clip-rule="nonzero"/></clipPath><clipPath id="817e230670"><path d="M 959.722656 699 L 1440 699 L 1440 700 L 959.722656 700 Z M 959.722656 699 " clip-rule="nonzero"/></clipPath><clipPath id="2402da76aa"><path d="M 959.722656 718 L 1440 718 L 1440 720 L 959.722656 720 Z M 959.722656 718 " clip-rule="nonzero"/></clipPath><clipPath id="02a1236fdb"><path d="M 959.722656 738 L 1440 738 L 1440 740 L 959.722656 740 Z M 959.722656 738 " clip-rule="nonzero"/></clipPath><clipPath id="ea4c30b02a"><path d="M 959.722656 758 L 1440 758 L 1440 759 L 959.722656 759 Z M 959.722656 758 " clip-rule="nonzero"/></clipPath><clipPath id="276a89af93"><path d="M 959.722656 777 L 1440 777 L 1440 779 L 959.722656 779 Z M 959.722656 777 " clip-rule="nonzero"/></clipPath><clipPath id="e17d6ecbf3"><path d="M 959.722656 797 L 1440 797 L 1440 799 L 959.722656 799 Z M 959.722656 797 " clip-rule="nonzero"/></clipPath><clipPath id="43558fe34b"><path d="M 1438 476.277344 L 1440 476.277344 L 1440 810 L 1438 810 Z M 1438 476.277344 " clip-rule="nonzero"/></clipPath><clipPath id="d02cb5b170"><path d="M 1418 476.277344 L 1420 476.277344 L 1420 810 L 1418 810 Z M 1418 476.277344 " clip-rule="nonzero"/></clipPath><clipPath id="887970e33f"><path d="M 1399 476.277344 L 1400 476.277344 L 1400 810 L 1399 810 Z M 1399 476.277344 " clip-rule="nonzero"/></clipPath><clipPath id="d6bb0887f5"><path d="M 1379 476.277344 L 1381 476.277344 L 1381 810 L 1379 810 Z M 1379 476.277344 " clip-rule="nonzero"/></clipPath><clipPath id="6ec47faaae"><path d="M 1359 476.277344 L 1361 476.277344 L 1361 810 L 1359 810 Z M 1359 476.277344 " clip-rule="nonzero"/></clipPath><clipPath id="782d2a84d1"><path d="M 1340 476.277344 L 1341 476.277344 L 1341 810 L 1340 810 Z M 1340 476.277344 " clip-rule="nonzero"/></clipPath><clipPath id="a153ecc327"><path d="M 1320 476.277344 L 1322 476.277344 L 1322 810 L 1320 810 Z M 1320 476.277344 " clip-rule="nonzero"/></clipPath><clipPath id="0ca8656dfd"><path d="M 1300 476.277344 L 1302 476.277344 L 1302 810 L 1300 810 Z M 1300 476.277344 " clip-rule="nonzero"/></clipPath><clipPath id="f0813a0c1e"><path d="M 1281 476.277344 L 1282 476.277344 L 1282 810 L 1281 810 Z M 1281 476.277344 " clip-rule="nonzero"/></clipPath><clipPath id="a0e4a4e562"><path d="M 1261 476.277344 L 1263 476.277344 L 1263 810 L 1261 810 Z M 1261 476.277344 " clip-rule="nonzero"/></clipPath><clipPath id="9b494851ba"><path d="M 1241 476.277344 L 1243 476.277344 L 1243 810 L 1241 810 Z M 1241 476.277344 " clip-rule="nonzero"/></clipPath><clipPath id="2d482ceb69"><path d="M 1221 476.277344 L 1223 476.277344 L 1223 810 L 1221 810 Z M 1221 476.277344 " clip-rule="nonzero"/></clipPath><clipPath id="04111da2de"><path d="M 1202 476.277344 L 1203 476.277344 L 1203 810 L 1202 810 Z M 1202 476.277344 " clip-rule="nonzero"/></clipPath><clipPath id="eafe94762b"><path d="M 1182 476.277344 L 1184 476.277344 L 1184 810 L 1182 810 Z M 1182 476.277344 " clip-rule="nonzero"/></clipPath><clipPath id="b01b732145"><path d="M 1162 476.277344 L 1164 476.277344 L 1164 810 L 1162 810 Z M 1162 476.277344 " clip-rule="nonzero"/></clipPath><clipPath id="bd70dbd898"><path d="M 1143 476.277344 L 1144 476.277344 L 1144 810 L 1143 810 Z M 1143 476.277344 " clip-rule="nonzero"/></clipPath><clipPath id="51d39e80ca"><path d="M 1123 476.277344 L 1125 476.277344 L 1125 810 L 1123 810 Z M 1123 476.277344 " clip-rule="nonzero"/></clipPath><clipPath id="73848e8b8b"><path d="M 1103 476.277344 L 1105 476.277344 L 1105 810 L 1103 810 Z M 1103 476.277344 " clip-rule="nonzero"/></clipPath><clipPath id="779bb2620d"><path d="M 1084 476.277344 L 1085 476.277344 L 1085 810 L 1084 810 Z M 1084 476.277344 " clip-rule="nonzero"/></clipPath><clipPath id="8104c213df"><path d="M 1064 476.277344 L 1066 476.277344 L 1066 810 L 1064 810 Z M 1064 476.277344 " clip-rule="nonzero"/></clipPath><clipPath id="2c6343bdfa"><path d="M 1044 476.277344 L 1046 476.277344 L 1046 810 L 1044 810 Z M 1044 476.277344 " clip-rule="nonzero"/></clipPath><clipPath id="ba7f9382c8"><path d="M 1025 476.277344 L 1026 476.277344 L 1026 810 L 1025 810 Z M 1025 476.277344 " clip-rule="nonzero"/></clipPath><clipPath id="d24793aeea"><path d="M 1005 476.277344 L 1007 476.277344 L 1007 810 L 1005 810 Z M 1005 476.277344 " clip-rule="nonzero"/></clipPath><clipPath id="3cc13a1e69"><path d="M 985 476.277344 L 987 476.277344 L 987 810 L 985 810 Z M 985 476.277344 " clip-rule="nonzero"/></clipPath></defs><g clip-path="url(#6305640cf6)"><path fill="#999999" d="M 0 25.914062 L 505.503906 25.914062 L 505.503906 26.605469 L 0 26.605469 Z M 0 25.914062 " fill-opacity="1" fill-rule="nonzero"/></g><g clip-path="url(#290fef5805)"><path fill="#999999" d="M 0 45.609375 L 505.503906 45.609375 L 505.503906 46.300781 L 0 46.300781 Z M 0 45.609375 " fill-opacity="1" fill-rule="nonzero"/></g><g clip-path="url(#db6f0f7be1)"><path fill="#999999" d="M 0 65.304688 L 505.503906 65.304688 L 505.503906 65.996094 L 0 65.996094 Z M 0 65.304688 " fill-opacity="1" fill-rule="nonzero"/></g><g clip-path="url(#de8bbb31e8)"><path fill="#999999" d="M 0 84.996094 L 505.503906 84.996094 L 505.503906 85.6875 L 0 85.6875 Z M 0 84.996094 " fill-opacity="1" fill-rule="nonzero"/></g><g clip-path="url(#fcf959f31d)"><path fill="#999999" d="M 0 104.695312 L 505.503906 104.695312 L 505.503906 105.382812 L 0 105.382812 Z M 0 104.695312 " fill-opacity="1" fill-rule="nonzero"/></g><g clip-path="url(#1987b7a8b4)"><path fill="#999999" d="M 0 124.386719 L 505.503906 124.386719 L 505.503906 125.078125 L 0 125.078125 Z M 0 124.386719 " fill-opacity="1" fill-rule="nonzero"/></g><g clip-path="url(#efd37569ae)"><path fill="#999999" d="M 0 144.085938 L 505.503906 144.085938 L 505.503906 144.773438 L 0 144.773438 Z M 0 144.085938 " fill-opacity="1" fill-rule="nonzero"/></g><g clip-path="url(#275a0ed42b)"><path fill="#999999" d="M 0 163.777344 L 505.503906 163.777344 L 505.503906 164.46875 L 0 164.46875 Z M 0 163.777344 " fill-opacity="1" fill-rule="nonzero"/></g><g clip-path="url(#06e2567732)"><path fill="#999999" d="M 0 183.472656 L 505.503906 183.472656 L 505.503906 184.164062 L 0 184.164062 Z M 0 183.472656 " fill-opacity="1" fill-rule="nonzero"/></g><g clip-path="url(#c56793494a)"><path fill="#999999" d="M 0 203.167969 L 505.503906 203.167969 L 505.503906 203.859375 L 0 203.859375 Z M 0 203.167969 " fill-opacity="1" fill-rule="nonzero"/></g><g clip-path="url(#eb12b3c066)"><path fill="#999999" d="M 0 222.863281 L 505.503906 222.863281 L 505.503906 223.554688 L 0 223.554688 Z M 0 222.863281 " fill-opacity="1" fill-rule="nonzero"/></g><g clip-path="url(#73af3226f8)"><path fill="#999999" d="M 0 242.558594 L 505.503906 242.558594 L 505.503906 243.25 L 0 243.25 Z M 0 242.558594 " fill-opacity="1" fill-rule="nonzero"/></g><g clip-path="url(#79e79d42d7)"><path fill="#999999" d="M 0 262.25 L 505.503906 262.25 L 505.503906 262.941406 L 0 262.941406 Z M 0 262.25 " fill-opacity="1" fill-rule="nonzero"/></g><g clip-path="url(#1a52b6f063)"><path fill="#999999" d="M 0 281.949219 L 505.503906 281.949219 L 505.503906 282.636719 L 0 282.636719 Z M 0 281.949219 " fill-opacity="1" fill-rule="nonzero"/></g><g clip-path="url(#460edf7030)"><path fill="#999999" d="M 0 301.640625 L 505.503906 301.640625 L 505.503906 302.332031 L 0 302.332031 Z M 0 301.640625 " fill-opacity="1" fill-rule="nonzero"/></g><g clip-path="url(#11026cee86)"><path fill="#999999" d="M 0 321.339844 L 505.503906 321.339844 L 505.503906 322.027344 L 0 322.027344 Z M 0 321.339844 " fill-opacity="1" fill-rule="nonzero"/></g><g clip-path="url(#e8f908cea5)"><path fill="#999999" d="M 0 341.03125 L 505.503906 341.03125 L 505.503906 341.722656 L 0 341.722656 Z M 0 341.03125 " fill-opacity="1" fill-rule="nonzero"/></g><g clip-path="url(#7fc21c2ec9)"><path fill="#999999" d="M 0 360.726562 L 505.503906 360.726562 L 505.503906 361.417969 L 0 361.417969 Z M 0 360.726562 " fill-opacity="1" fill-rule="nonzero"/></g><g clip-path="url(#0859aaf913)"><path fill="#999999" d="M 0 380.421875 L 505.503906 380.421875 L 505.503906 381.113281 L 0 381.113281 Z M 0 380.421875 " fill-opacity="1" fill-rule="nonzero"/></g><g clip-path="url(#85a27b5484)"><path fill="#999999" d="M 0 400.117188 L 505.503906 400.117188 L 505.503906 400.804688 L 0 400.804688 Z M 0 400.117188 " fill-opacity="1" fill-rule="nonzero"/></g><g clip-path="url(#5a0756f4d4)"><path fill="#999999" d="M 0 419.8125 L 505.503906 419.8125 L 505.503906 420.503906 L 0 420.503906 Z M 0 419.8125 " fill-opacity="1" fill-rule="nonzero"/></g><g clip-path="url(#3fd4cdf68e)"><path fill="#999999" d="M 0 439.503906 L 505.503906 439.503906 L 505.503906 440.195312 L 0 440.195312 Z M 0 439.503906 " fill-opacity="1" fill-rule="nonzero"/></g><g clip-path="url(#42bd14421a)"><path fill="#999999" d="M 0 459.203125 L 505.503906 459.203125 L 505.503906 459.894531 L 0 459.894531 Z M 0 459.203125 " fill-opacity="1" fill-rule="nonzero"/></g><g clip-path="url(#27acf61be4)"><path fill="#999999" d="M 0 478.894531 L 505.503906 478.894531 L 505.503906 479.585938 L 0 479.585938 Z M 0 478.894531 " fill-opacity="1" fill-rule="nonzero"/></g><g clip-path="url(#c17f5a68ec)"><path fill="#999999" d="M 478.894531 0 L 479.585938 0 L 479.585938 505.503906 L 478.894531 505.503906 Z M 478.894531 0 " fill-opacity="1" fill-rule="nonzero"/></g><g clip-path="url(#2d2191a479)"><path fill="#999999" d="M 459.203125 0 L 459.894531 0 L 459.894531 505.503906 L 459.203125 505.503906 Z M 459.203125 0 " fill-opacity="1" fill-rule="nonzero"/></g><g clip-path="url(#dd3e2cd5e4)"><path fill="#999999" d="M 439.503906 0 L 440.195312 0 L 440.195312 505.503906 L 439.503906 505.503906 Z M 439.503906 0 " fill-opacity="1" fill-rule="nonzero"/></g><g clip-path="url(#c488fc4d79)"><path fill="#999999" d="M 419.8125 0 L 420.503906 0 L 420.503906 505.503906 L 419.8125 505.503906 Z M 419.8125 0 " fill-opacity="1" fill-rule="nonzero"/></g><g clip-path="url(#3560e3379a)"><path fill="#999999" d="M 400.117188 0 L 400.804688 0 L 400.804688 505.503906 L 400.117188 505.503906 Z M 400.117188 0 " fill-opacity="1" fill-rule="nonzero"/></g><g clip-path="url(#34d13da1bb)"><path fill="#999999" d="M 380.421875 0 L 381.113281 0 L 381.113281 505.503906 L 380.421875 505.503906 Z M 380.421875 0 " fill-opacity="1" fill-rule="nonzero"/></g><g clip-path="url(#9a99b2c6af)"><path fill="#999999" d="M 360.726562 0 L 361.417969 0 L 361.417969 505.503906 L 360.726562 505.503906 Z M 360.726562 0 " fill-opacity="1" fill-rule="nonzero"/></g><g clip-path="url(#0b52e88c9e)"><path fill="#999999" d="M 341.03125 0 L 341.722656 0 L 341.722656 505.503906 L 341.03125 505.503906 Z M 341.03125 0 " fill-opacity="1" fill-rule="nonzero"/></g><g clip-path="url(#dc390245ec)"><path fill="#999999" d="M 321.339844 0 L 322.027344 0 L 322.027344 505.503906 L 321.339844 505.503906 Z M 321.339844 0 " fill-opacity="1" fill-rule="nonzero"/></g><g clip-path="url(#900cf3befa)"><path fill="#999999" d="M 301.640625 0 L 302.332031 0 L 302.332031 505.503906 L 301.640625 505.503906 Z M 301.640625 0 " fill-opacity="1" fill-rule="nonzero"/></g><g clip-path="url(#668f3d5f29)"><path fill="#999999" d="M 281.949219 0 L 282.636719 0 L 282.636719 505.503906 L 281.949219 505.503906 Z M 281.949219 0 " fill-opacity="1" fill-rule="nonzero"/></g><g clip-path="url(#547e90fa53)"><path fill="#999999" d="M 262.25 0 L 262.941406 0 L 262.941406 505.503906 L 262.25 505.503906 Z M 262.25 0 " fill-opacity="1" fill-rule="nonzero"/></g><g clip-path="url(#369b4bf9ce)"><path fill="#999999" d="M 242.558594 0 L 243.25 0 L 243.25 505.503906 L 242.558594 505.503906 Z M 242.558594 0 " fill-opacity="1" fill-rule="nonzero"/></g><g clip-path="url(#2797590904)"><path fill="#999999" d="M 222.863281 0 L 223.554688 0 L 223.554688 505.503906 L 222.863281 505.503906 Z M 222.863281 0 " fill-opacity="1" fill-rule="nonzero"/></g><g clip-path="url(#583c7f049f)"><path fill="#999999" d="M 203.167969 0 L 203.859375 0 L 203.859375 505.503906 L 203.167969 505.503906 Z M 203.167969 0 " fill-opacity="1" fill-rule="nonzero"/></g><g clip-path="url(#63e753f861)"><path fill="#999999" d="M 183.472656 0 L 184.164062 0 L 184.164062 505.503906 L 183.472656 505.503906 Z M 183.472656 0 " fill-opacity="1" fill-rule="nonzero"/></g><g clip-path="url(#c332df17bb)"><path fill="#999999" d="M 163.777344 0 L 164.46875 0 L 164.46875 505.503906 L 163.777344 505.503906 Z M 163.777344 0 " fill-opacity="1" fill-rule="nonzero"/></g><g clip-path="url(#fa4e4f2081)"><path fill="#999999" d="M 144.085938 0 L 144.773438 0 L 144.773438 505.503906 L 144.085938 505.503906 Z M 144.085938 0 " fill-opacity="1" fill-rule="nonzero"/></g><g clip-path="url(#3cafed1645)"><path fill="#999999" d="M 124.386719 0 L 125.078125 0 L 125.078125 505.503906 L 124.386719 505.503906 Z M 124.386719 0 " fill-opacity="1" fill-rule="nonzero"/></g><g clip-path="url(#6e85cc96a5)"><path fill="#999999" d="M 104.695312 0 L 105.382812 0 L 105.382812 505.503906 L 104.695312 505.503906 Z M 104.695312 0 " fill-opacity="1" fill-rule="nonzero"/></g><g clip-path="url(#6bebf0eacf)"><path fill="#999999" d="M 84.996094 0 L 85.6875 0 L 85.6875 505.503906 L 84.996094 505.503906 Z M 84.996094 0 " fill-opacity="1" fill-rule="nonzero"/></g><g clip-path="url(#d9241ca2a3)"><path fill="#999999" d="M 65.304688 0 L 65.996094 0 L 65.996094 505.503906 L 65.304688 505.503906 Z M 65.304688 0 " fill-opacity="1" fill-rule="nonzero"/></g><g clip-path="url(#b8835dee76)"><path fill="#999999" d="M 45.609375 0 L 46.300781 0 L 46.300781 505.503906 L 45.609375 505.503906 Z M 45.609375 0 " fill-opacity="1" fill-rule="nonzero"/></g><g clip-path="url(#d9a9912e11)"><path fill="#999999" d="M 25.914062 0 L 26.605469 0 L 26.605469 505.503906 L 25.914062 505.503906 Z M 25.914062 0 " fill-opacity="1" fill-rule="nonzero"/></g><g clip-path="url(#0c1baeb16e)"><path fill="#999999" d="M 478.566406 25.914062 L 984.066406 25.914062 L 984.066406 26.605469 L 478.566406 26.605469 Z M 478.566406 25.914062 " fill-opacity="1" fill-rule="nonzero"/></g><g clip-path="url(#c170b30556)"><path fill="#999999" d="M 478.566406 45.609375 L 984.066406 45.609375 L 984.066406 46.300781 L 478.566406 46.300781 Z M 478.566406 45.609375 " fill-opacity="1" fill-rule="nonzero"/></g><g clip-path="url(#e0dd52e0b4)"><path fill="#999999" d="M 478.566406 65.304688 L 984.066406 65.304688 L 984.066406 65.996094 L 478.566406 65.996094 Z M 478.566406 65.304688 " fill-opacity="1" fill-rule="nonzero"/></g><g clip-path="url(#cfde40a225)"><path fill="#999999" d="M 478.566406 84.996094 L 984.066406 84.996094 L 984.066406 85.6875 L 478.566406 85.6875 Z M 478.566406 84.996094 " fill-opacity="1" fill-rule="nonzero"/></g><g clip-path="url(#778a7bf0f5)"><path fill="#999999" d="M 478.566406 104.695312 L 984.066406 104.695312 L 984.066406 105.382812 L 478.566406 105.382812 Z M 478.566406 104.695312 " fill-opacity="1" fill-rule="nonzero"/></g><g clip-path="url(#5fbae9d508)"><path fill="#999999" d="M 478.566406 124.386719 L 984.066406 124.386719 L 984.066406 125.078125 L 478.566406 125.078125 Z M 478.566406 124.386719 " fill-opacity="1" fill-rule="nonzero"/></g><g clip-path="url(#f21a09446b)"><path fill="#999999" d="M 478.566406 144.085938 L 984.066406 144.085938 L 984.066406 144.773438 L 478.566406 144.773438 Z M 478.566406 144.085938 " fill-opacity="1" fill-rule="nonzero"/></g><g clip-path="url(#2ba3c10862)"><path fill="#999999" d="M 478.566406 163.777344 L 984.066406 163.777344 L 984.066406 164.46875 L 478.566406 164.46875 Z M 478.566406 163.777344 " fill-opacity="1" fill-rule="nonzero"/></g><g clip-path="url(#3a772f08e7)"><path fill="#999999" d="M 478.566406 183.472656 L 984.066406 183.472656 L 984.066406 184.164062 L 478.566406 184.164062 Z M 478.566406 183.472656 " fill-opacity="1" fill-rule="nonzero"/></g><g clip-path="url(#2b90ca72ed)"><path fill="#999999" d="M 478.566406 203.167969 L 984.066406 203.167969 L 984.066406 203.859375 L 478.566406 203.859375 Z M 478.566406 203.167969 " fill-opacity="1" fill-rule="nonzero"/></g><g clip-path="url(#d1c230d424)"><path fill="#999999" d="M 478.566406 222.863281 L 984.066406 222.863281 L 984.066406 223.554688 L 478.566406 223.554688 Z M 478.566406 222.863281 " fill-opacity="1" fill-rule="nonzero"/></g><g clip-path="url(#3187789948)"><path fill="#999999" d="M 478.566406 242.558594 L 984.066406 242.558594 L 984.066406 243.25 L 478.566406 243.25 Z M 478.566406 242.558594 " fill-opacity="1" fill-rule="nonzero"/></g><g clip-path="url(#120c3c721a)"><path fill="#999999" d="M 478.566406 262.25 L 984.066406 262.25 L 984.066406 262.941406 L 478.566406 262.941406 Z M 478.566406 262.25 " fill-opacity="1" fill-rule="nonzero"/></g><g clip-path="url(#ed12eab9ec)"><path fill="#999999" d="M 478.566406 281.949219 L 984.066406 281.949219 L 984.066406 282.636719 L 478.566406 282.636719 Z M 478.566406 281.949219 " fill-opacity="1" fill-rule="nonzero"/></g><g clip-path="url(#bde3e56b94)"><path fill="#999999" d="M 478.566406 301.640625 L 984.066406 301.640625 L 984.066406 302.332031 L 478.566406 302.332031 Z M 478.566406 301.640625 " fill-opacity="1" fill-rule="nonzero"/></g><g clip-path="url(#57664100c0)"><path fill="#999999" d="M 478.566406 321.339844 L 984.066406 321.339844 L 984.066406 322.027344 L 478.566406 322.027344 Z M 478.566406 321.339844 " fill-opacity="1" fill-rule="nonzero"/></g><g clip-path="url(#50e9fab25d)"><path fill="#999999" d="M 478.566406 341.03125 L 984.066406 341.03125 L 984.066406 341.722656 L 478.566406 341.722656 Z M 478.566406 341.03125 " fill-opacity="1" fill-rule="nonzero"/></g><g clip-path="url(#60ae5387b6)"><path fill="#999999" d="M 478.566406 360.726562 L 984.066406 360.726562 L 984.066406 361.417969 L 478.566406 361.417969 Z M 478.566406 360.726562 " fill-opacity="1" fill-rule="nonzero"/></g><g clip-path="url(#4368a8affc)"><path fill="#999999" d="M 478.566406 380.421875 L 984.066406 380.421875 L 984.066406 381.113281 L 478.566406 381.113281 Z M 478.566406 380.421875 " fill-opacity="1" fill-rule="nonzero"/></g><g clip-path="url(#b5f8c19cb4)"><path fill="#999999" d="M 478.566406 400.117188 L 984.066406 400.117188 L 984.066406 400.804688 L 478.566406 400.804688 Z M 478.566406 400.117188 " fill-opacity="1" fill-rule="nonzero"/></g><g clip-path="url(#80507674c2)"><path fill="#999999" d="M 478.566406 419.8125 L 984.066406 419.8125 L 984.066406 420.503906 L 478.566406 420.503906 Z M 478.566406 419.8125 " fill-opacity="1" fill-rule="nonzero"/></g><g clip-path="url(#595c07bacf)"><path fill="#999999" d="M 478.566406 439.503906 L 984.066406 439.503906 L 984.066406 440.195312 L 478.566406 440.195312 Z M 478.566406 439.503906 " fill-opacity="1" fill-rule="nonzero"/></g><g clip-path="url(#99de048ba9)"><path fill="#999999" d="M 478.566406 459.203125 L 984.066406 459.203125 L 984.066406 459.894531 L 478.566406 459.894531 Z M 478.566406 459.203125 " fill-opacity="1" fill-rule="nonzero"/></g><g clip-path="url(#b619594f58)"><path fill="#999999" d="M 478.566406 478.894531 L 984.066406 478.894531 L 984.066406 479.585938 L 478.566406 479.585938 Z M 478.566406 478.894531 " fill-opacity="1" fill-rule="nonzero"/></g><g clip-path="url(#16062142c1)"><path fill="#999999" d="M 957.460938 0 L 958.152344 0 L 958.152344 505.503906 L 957.460938 505.503906 Z M 957.460938 0 " fill-opacity="1" fill-rule="nonzero"/></g><g clip-path="url(#1b45b82cfd)"><path fill="#999999" d="M 937.765625 0 L 938.457031 0 L 938.457031 505.503906 L 937.765625 505.503906 Z M 937.765625 0 " fill-opacity="1" fill-rule="nonzero"/></g><g clip-path="url(#175ebda2b8)"><path fill="#999999" d="M 918.070312 0 L 918.761719 0 L 918.761719 505.503906 L 918.070312 505.503906 Z M 918.070312 0 " fill-opacity="1" fill-rule="nonzero"/></g><g clip-path="url(#1b372f4099)"><path fill="#999999" d="M 898.375 0 L 899.066406 0 L 899.066406 505.503906 L 898.375 505.503906 Z M 898.375 0 " fill-opacity="1" fill-rule="nonzero"/></g><g clip-path="url(#ce17907630)"><path fill="#999999" d="M 878.679688 0 L 879.371094 0 L 879.371094 505.503906 L 878.679688 505.503906 Z M 878.679688 0 " fill-opacity="1" fill-rule="nonzero"/></g><g clip-path="url(#7aece15f31)"><path fill="#999999" d="M 858.988281 0 L 859.675781 0 L 859.675781 505.503906 L 858.988281 505.503906 Z M 858.988281 0 " fill-opacity="1" fill-rule="nonzero"/></g><g clip-path="url(#fb1d21c55d)"><path fill="#999999" d="M 839.292969 0 L 839.984375 0 L 839.984375 505.503906 L 839.292969 505.503906 Z M 839.292969 0 " fill-opacity="1" fill-rule="nonzero"/></g><g clip-path="url(#5de76c3c3f)"><path fill="#999999" d="M 819.597656 0 L 820.285156 0 L 820.285156 505.503906 L 819.597656 505.503906 Z M 819.597656 0 " fill-opacity="1" fill-rule="nonzero"/></g><g clip-path="url(#2156b423c0)"><path fill="#999999" d="M 799.902344 0 L 800.59375 0 L 800.59375 505.503906 L 799.902344 505.503906 Z M 799.902344 0 " fill-opacity="1" fill-rule="nonzero"/></g><g clip-path="url(#92b289b693)"><path fill="#999999" d="M 780.207031 0 L 780.898438 0 L 780.898438 505.503906 L 780.207031 505.503906 Z M 780.207031 0 " fill-opacity="1" fill-rule="nonzero"/></g><g clip-path="url(#3066932698)"><path fill="#999999" d="M 760.511719 0 L 761.203125 0 L 761.203125 505.503906 L 760.511719 505.503906 Z M 760.511719 0 " fill-opacity="1" fill-rule="nonzero"/></g><g clip-path="url(#566f2f8b00)"><path fill="#999999" d="M 740.816406 0 L 741.507812 0 L 741.507812 505.503906 L 740.816406 505.503906 Z M 740.816406 0 " fill-opacity="1" fill-rule="nonzero"/></g><g clip-path="url(#af13d8c14c)"><path fill="#999999" d="M 721.121094 0 L 721.8125 0 L 721.8125 505.503906 L 721.121094 505.503906 Z M 721.121094 0 " fill-opacity="1" fill-rule="nonzero"/></g><g clip-path="url(#f1d2a4834c)"><path fill="#999999" d="M 701.429688 0 L 702.121094 0 L 702.121094 505.503906 L 701.429688 505.503906 Z M 701.429688 0 " fill-opacity="1" fill-rule="nonzero"/></g><g clip-path="url(#546d806339)"><path fill="#999999" d="M 681.734375 0 L 682.421875 0 L 682.421875 505.503906 L 681.734375 505.503906 Z M 681.734375 0 " fill-opacity="1" fill-rule="nonzero"/></g><g clip-path="url(#7cc52e1ee7)"><path fill="#999999" d="M 662.039062 0 L 662.730469 0 L 662.730469 505.503906 L 662.039062 505.503906 Z M 662.039062 0 " fill-opacity="1" fill-rule="nonzero"/></g><g clip-path="url(#2d09ec4128)"><path fill="#999999" d="M 642.34375 0 L 643.03125 0 L 643.03125 505.503906 L 642.34375 505.503906 Z M 642.34375 0 " fill-opacity="1" fill-rule="nonzero"/></g><g clip-path="url(#28ed66583f)"><path fill="#999999" d="M 622.648438 0 L 623.339844 0 L 623.339844 505.503906 L 622.648438 505.503906 Z M 622.648438 0 " fill-opacity="1" fill-rule="nonzero"/></g><g clip-path="url(#39650bd814)"><path fill="#999999" d="M 602.953125 0 L 603.644531 0 L 603.644531 505.503906 L 602.953125 505.503906 Z M 602.953125 0 " fill-opacity="1" fill-rule="nonzero"/></g><g clip-path="url(#6ae7612605)"><path fill="#999999" d="M 583.257812 0 L 583.949219 0 L 583.949219 505.503906 L 583.257812 505.503906 Z M 583.257812 0 " fill-opacity="1" fill-rule="nonzero"/></g><g clip-path="url(#81c30354b6)"><path fill="#999999" d="M 563.5625 0 L 564.253906 0 L 564.253906 505.503906 L 563.5625 505.503906 Z M 563.5625 0 " fill-opacity="1" fill-rule="nonzero"/></g><g clip-path="url(#21b29fdfa0)"><path fill="#999999" d="M 543.867188 0 L 544.558594 0 L 544.558594 505.503906 L 543.867188 505.503906 Z M 543.867188 0 " fill-opacity="1" fill-rule="nonzero"/></g><g clip-path="url(#81aedb2d19)"><path fill="#999999" d="M 524.175781 0 L 524.867188 0 L 524.867188 505.503906 L 524.175781 505.503906 Z M 524.175781 0 " fill-opacity="1" fill-rule="nonzero"/></g><g clip-path="url(#03fabfb7d1)"><path fill="#999999" d="M 504.476562 0 L 505.167969 0 L 505.167969 505.503906 L 504.476562 505.503906 Z M 504.476562 0 " fill-opacity="1" fill-rule="nonzero"/></g><g clip-path="url(#0a6cf7e99d)"><path fill="#999999" d="M 959.722656 25.914062 L 1465.222656 25.914062 L 1465.222656 26.605469 L 959.722656 26.605469 Z M 959.722656 25.914062 " fill-opacity="1" fill-rule="nonzero"/></g><g clip-path="url(#8d4c144664)"><path fill="#999999" d="M 959.722656 45.609375 L 1465.222656 45.609375 L 1465.222656 46.300781 L 959.722656 46.300781 Z M 959.722656 45.609375 " fill-opacity="1" fill-rule="nonzero"/></g><g clip-path="url(#eed26c1e10)"><path fill="#999999" d="M 959.722656 65.304688 L 1465.222656 65.304688 L 1465.222656 65.996094 L 959.722656 65.996094 Z M 959.722656 65.304688 " fill-opacity="1" fill-rule="nonzero"/></g><g clip-path="url(#34b693e439)"><path fill="#999999" d="M 959.722656 84.996094 L 1465.222656 84.996094 L 1465.222656 85.6875 L 959.722656 85.6875 Z M 959.722656 84.996094 " fill-opacity="1" fill-rule="nonzero"/></g><g clip-path="url(#3e387281f5)"><path fill="#999999" d="M 959.722656 104.695312 L 1465.222656 104.695312 L 1465.222656 105.382812 L 959.722656 105.382812 Z M 959.722656 104.695312 " fill-opacity="1" fill-rule="nonzero"/></g><g clip-path="url(#48fe682b0d)"><path fill="#999999" d="M 959.722656 124.386719 L 1465.222656 124.386719 L 1465.222656 125.078125 L 959.722656 125.078125 Z M 959.722656 124.386719 " fill-opacity="1" fill-rule="nonzero"/></g><g clip-path="url(#6541c072d6)"><path fill="#999999" d="M 959.722656 144.085938 L 1465.222656 144.085938 L 1465.222656 144.773438 L 959.722656 144.773438 Z M 959.722656 144.085938 " fill-opacity="1" fill-rule="nonzero"/></g><g clip-path="url(#f6517e852d)"><path fill="#999999" d="M 959.722656 163.777344 L 1465.222656 163.777344 L 1465.222656 164.46875 L 959.722656 164.46875 Z M 959.722656 163.777344 " fill-opacity="1" fill-rule="nonzero"/></g><g clip-path="url(#8fcd025420)"><path fill="#999999" d="M 959.722656 183.472656 L 1465.222656 183.472656 L 1465.222656 184.164062 L 959.722656 184.164062 Z M 959.722656 183.472656 " fill-opacity="1" fill-rule="nonzero"/></g><g clip-path="url(#51e8e9f42a)"><path fill="#999999" d="M 959.722656 203.167969 L 1465.222656 203.167969 L 1465.222656 203.859375 L 959.722656 203.859375 Z M 959.722656 203.167969 " fill-opacity="1" fill-rule="nonzero"/></g><g clip-path="url(#0e500a49e5)"><path fill="#999999" d="M 959.722656 222.863281 L 1465.222656 222.863281 L 1465.222656 223.554688 L 959.722656 223.554688 Z M 959.722656 222.863281 " fill-opacity="1" fill-rule="nonzero"/></g><g clip-path="url(#df626fa571)"><path fill="#999999" d="M 959.722656 242.558594 L 1465.222656 242.558594 L 1465.222656 243.25 L 959.722656 243.25 Z M 959.722656 242.558594 " fill-opacity="1" fill-rule="nonzero"/></g><g clip-path="url(#f8f1a5e967)"><path fill="#999999" d="M 959.722656 262.25 L 1465.222656 262.25 L 1465.222656 262.941406 L 959.722656 262.941406 Z M 959.722656 262.25 " fill-opacity="1" fill-rule="nonzero"/></g><g clip-path="url(#852c5293df)"><path fill="#999999" d="M 959.722656 281.949219 L 1465.222656 281.949219 L 1465.222656 282.636719 L 959.722656 282.636719 Z M 959.722656 281.949219 " fill-opacity="1" fill-rule="nonzero"/></g><g clip-path="url(#48b7e0ebe6)"><path fill="#999999" d="M 959.722656 301.640625 L 1465.222656 301.640625 L 1465.222656 302.332031 L 959.722656 302.332031 Z M 959.722656 301.640625 " fill-opacity="1" fill-rule="nonzero"/></g><g clip-path="url(#2cd5a7c5ae)"><path fill="#999999" d="M 959.722656 321.339844 L 1465.222656 321.339844 L 1465.222656 322.027344 L 959.722656 322.027344 Z M 959.722656 321.339844 " fill-opacity="1" fill-rule="nonzero"/></g><g clip-path="url(#579dbf8b72)"><path fill="#999999" d="M 959.722656 341.03125 L 1465.222656 341.03125 L 1465.222656 341.722656 L 959.722656 341.722656 Z M 959.722656 341.03125 " fill-opacity="1" fill-rule="nonzero"/></g><g clip-path="url(#80398506af)"><path fill="#999999" d="M 959.722656 360.726562 L 1465.222656 360.726562 L 1465.222656 361.417969 L 959.722656 361.417969 Z M 959.722656 360.726562 " fill-opacity="1" fill-rule="nonzero"/></g><g clip-path="url(#07fb2aff6c)"><path fill="#999999" d="M 959.722656 380.421875 L 1465.222656 380.421875 L 1465.222656 381.113281 L 959.722656 381.113281 Z M 959.722656 380.421875 " fill-opacity="1" fill-rule="nonzero"/></g><g clip-path="url(#fd1de04a05)"><path fill="#999999" d="M 959.722656 400.117188 L 1465.222656 400.117188 L 1465.222656 400.804688 L 959.722656 400.804688 Z M 959.722656 400.117188 " fill-opacity="1" fill-rule="nonzero"/></g><g clip-path="url(#9e70798df9)"><path fill="#999999" d="M 959.722656 419.8125 L 1465.222656 419.8125 L 1465.222656 420.503906 L 959.722656 420.503906 Z M 959.722656 419.8125 " fill-opacity="1" fill-rule="nonzero"/></g><g clip-path="url(#74062de9aa)"><path fill="#999999" d="M 959.722656 439.503906 L 1465.222656 439.503906 L 1465.222656 440.195312 L 959.722656 440.195312 Z M 959.722656 439.503906 " fill-opacity="1" fill-rule="nonzero"/></g><g clip-path="url(#f23acd5585)"><path fill="#999999" d="M 959.722656 459.203125 L 1465.222656 459.203125 L 1465.222656 459.894531 L 959.722656 459.894531 Z M 959.722656 459.203125 " fill-opacity="1" fill-rule="nonzero"/></g><g clip-path="url(#6e08e3b26b)"><path fill="#999999" d="M 959.722656 478.894531 L 1465.222656 478.894531 L 1465.222656 479.585938 L 959.722656 479.585938 Z M 959.722656 478.894531 " fill-opacity="1" fill-rule="nonzero"/></g><g clip-path="url(#860a208854)"><path fill="#999999" d="M 1438.617188 0 L 1439.308594 0 L 1439.308594 505.503906 L 1438.617188 505.503906 Z M 1438.617188 0 " fill-opacity="1" fill-rule="nonzero"/></g><g clip-path="url(#04e260fea7)"><path fill="#999999" d="M 1418.921875 0 L 1419.613281 0 L 1419.613281 505.503906 L 1418.921875 505.503906 Z M 1418.921875 0 " fill-opacity="1" fill-rule="nonzero"/></g><g clip-path="url(#b11a85d7d5)"><path fill="#999999" d="M 1399.226562 0 L 1399.917969 0 L 1399.917969 505.503906 L 1399.226562 505.503906 Z M 1399.226562 0 " fill-opacity="1" fill-rule="nonzero"/></g><g clip-path="url(#3b7cd9aaba)"><path fill="#999999" d="M 1379.535156 0 L 1380.222656 0 L 1380.222656 505.503906 L 1379.535156 505.503906 Z M 1379.535156 0 " fill-opacity="1" fill-rule="nonzero"/></g><g clip-path="url(#2df636456d)"><path fill="#999999" d="M 1359.835938 0 L 1360.527344 0 L 1360.527344 505.503906 L 1359.835938 505.503906 Z M 1359.835938 0 " fill-opacity="1" fill-rule="nonzero"/></g><g clip-path="url(#60236caed9)"><path fill="#999999" d="M 1340.144531 0 L 1340.832031 0 L 1340.832031 505.503906 L 1340.144531 505.503906 Z M 1340.144531 0 " fill-opacity="1" fill-rule="nonzero"/></g><g clip-path="url(#3e557692c9)"><path fill="#999999" d="M 1320.449219 0 L 1321.140625 0 L 1321.140625 505.503906 L 1320.449219 505.503906 Z M 1320.449219 0 " fill-opacity="1" fill-rule="nonzero"/></g><g clip-path="url(#444fc140b5)"><path fill="#999999" d="M 1300.753906 0 L 1301.445312 0 L 1301.445312 505.503906 L 1300.753906 505.503906 Z M 1300.753906 0 " fill-opacity="1" fill-rule="nonzero"/></g><g clip-path="url(#bcf804ae1b)"><path fill="#999999" d="M 1281.058594 0 L 1281.75 0 L 1281.75 505.503906 L 1281.058594 505.503906 Z M 1281.058594 0 " fill-opacity="1" fill-rule="nonzero"/></g><g clip-path="url(#0182748210)"><path fill="#999999" d="M 1261.363281 0 L 1262.054688 0 L 1262.054688 505.503906 L 1261.363281 505.503906 Z M 1261.363281 0 " fill-opacity="1" fill-rule="nonzero"/></g><g clip-path="url(#c6a482f33b)"><path fill="#999999" d="M 1241.667969 0 L 1242.359375 0 L 1242.359375 505.503906 L 1241.667969 505.503906 Z M 1241.667969 0 " fill-opacity="1" fill-rule="nonzero"/></g><g clip-path="url(#20adea4dc4)"><path fill="#999999" d="M 1221.972656 0 L 1222.664062 0 L 1222.664062 505.503906 L 1221.972656 505.503906 Z M 1221.972656 0 " fill-opacity="1" fill-rule="nonzero"/></g><g clip-path="url(#6ff068f01a)"><path fill="#999999" d="M 1202.28125 0 L 1202.96875 0 L 1202.96875 505.503906 L 1202.28125 505.503906 Z M 1202.28125 0 " fill-opacity="1" fill-rule="nonzero"/></g><g clip-path="url(#188c6ec1cc)"><path fill="#999999" d="M 1182.585938 0 L 1183.277344 0 L 1183.277344 505.503906 L 1182.585938 505.503906 Z M 1182.585938 0 " fill-opacity="1" fill-rule="nonzero"/></g><g clip-path="url(#b9ed9b18be)"><path fill="#999999" d="M 1162.890625 0 L 1163.578125 0 L 1163.578125 505.503906 L 1162.890625 505.503906 Z M 1162.890625 0 " fill-opacity="1" fill-rule="nonzero"/></g><g clip-path="url(#3434469987)"><path fill="#999999" d="M 1143.195312 0 L 1143.886719 0 L 1143.886719 505.503906 L 1143.195312 505.503906 Z M 1143.195312 0 " fill-opacity="1" fill-rule="nonzero"/></g><g clip-path="url(#70be6c933e)"><path fill="#999999" d="M 1123.5 0 L 1124.191406 0 L 1124.191406 505.503906 L 1123.5 505.503906 Z M 1123.5 0 " fill-opacity="1" fill-rule="nonzero"/></g><g clip-path="url(#ed41ef99e9)"><path fill="#999999" d="M 1103.804688 0 L 1104.496094 0 L 1104.496094 505.503906 L 1103.804688 505.503906 Z M 1103.804688 0 " fill-opacity="1" fill-rule="nonzero"/></g><g clip-path="url(#cca51cdf74)"><path fill="#999999" d="M 1084.109375 0 L 1084.800781 0 L 1084.800781 505.503906 L 1084.109375 505.503906 Z M 1084.109375 0 " fill-opacity="1" fill-rule="nonzero"/></g><g clip-path="url(#9df84d3c95)"><path fill="#999999" d="M 1064.414062 0 L 1065.105469 0 L 1065.105469 505.503906 L 1064.414062 505.503906 Z M 1064.414062 0 " fill-opacity="1" fill-rule="nonzero"/></g><g clip-path="url(#38101f3d8e)"><path fill="#999999" d="M 1044.71875 0 L 1045.410156 0 L 1045.410156 505.503906 L 1044.71875 505.503906 Z M 1044.71875 0 " fill-opacity="1" fill-rule="nonzero"/></g><g clip-path="url(#263da41ce0)"><path fill="#999999" d="M 1025.023438 0 L 1025.714844 0 L 1025.714844 505.503906 L 1025.023438 505.503906 Z M 1025.023438 0 " fill-opacity="1" fill-rule="nonzero"/></g><g clip-path="url(#198946a468)"><path fill="#999999" d="M 1005.332031 0 L 1006.023438 0 L 1006.023438 505.503906 L 1005.332031 505.503906 Z M 1005.332031 0 " fill-opacity="1" fill-rule="nonzero"/></g><g clip-path="url(#9015a3e080)"><path fill="#999999" d="M 985.636719 0 L 986.324219 0 L 986.324219 505.503906 L 985.636719 505.503906 Z M 985.636719 0 " fill-opacity="1" fill-rule="nonzero"/></g><g clip-path="url(#8df7f78e2b)"><path fill="#999999" d="M 0 502.191406 L 505.503906 502.191406 L 505.503906 502.882812 L 0 502.882812 Z M 0 502.191406 " fill-opacity="1" fill-rule="nonzero"/></g><g clip-path="url(#d89069b58c)"><path fill="#999999" d="M 0 521.890625 L 505.503906 521.890625 L 505.503906 522.578125 L 0 522.578125 Z M 0 521.890625 " fill-opacity="1" fill-rule="nonzero"/></g><g clip-path="url(#85470a38f4)"><path fill="#999999" d="M 0 541.582031 L 505.503906 541.582031 L 505.503906 542.273438 L 0 542.273438 Z M 0 541.582031 " fill-opacity="1" fill-rule="nonzero"/></g><g clip-path="url(#1cd495036e)"><path fill="#999999" d="M 0 561.277344 L 505.503906 561.277344 L 505.503906 561.96875 L 0 561.96875 Z M 0 561.277344 " fill-opacity="1" fill-rule="nonzero"/></g><g clip-path="url(#363cd570f4)"><path fill="#999999" d="M 0 580.972656 L 505.503906 580.972656 L 505.503906 581.664062 L 0 581.664062 Z M 0 580.972656 " fill-opacity="1" fill-rule="nonzero"/></g><g clip-path="url(#453869008a)"><path fill="#999999" d="M 0 600.667969 L 505.503906 600.667969 L 505.503906 601.355469 L 0 601.355469 Z M 0 600.667969 " fill-opacity="1" fill-rule="nonzero"/></g><g clip-path="url(#8f22bde5c3)"><path fill="#999999" d="M 0 620.363281 L 505.503906 620.363281 L 505.503906 621.054688 L 0 621.054688 Z M 0 620.363281 " fill-opacity="1" fill-rule="nonzero"/></g><g clip-path="url(#10f44328e6)"><path fill="#999999" d="M 0 640.058594 L 505.503906 640.058594 L 505.503906 640.746094 L 0 640.746094 Z M 0 640.058594 " fill-opacity="1" fill-rule="nonzero"/></g><g clip-path="url(#a542b390e9)"><path fill="#999999" d="M 0 659.753906 L 505.503906 659.753906 L 505.503906 660.445312 L 0 660.445312 Z M 0 659.753906 " fill-opacity="1" fill-rule="nonzero"/></g><g clip-path="url(#e7e1d6723d)"><path fill="#999999" d="M 0 679.445312 L 505.503906 679.445312 L 505.503906 680.136719 L 0 680.136719 Z M 0 679.445312 " fill-opacity="1" fill-rule="nonzero"/></g><g clip-path="url(#86633e4952)"><path fill="#999999" d="M 0 699.144531 L 505.503906 699.144531 L 505.503906 699.835938 L 0 699.835938 Z M 0 699.144531 " fill-opacity="1" fill-rule="nonzero"/></g><g clip-path="url(#d4176d8102)"><path fill="#999999" d="M 0 718.835938 L 505.503906 718.835938 L 505.503906 719.527344 L 0 719.527344 Z M 0 718.835938 " fill-opacity="1" fill-rule="nonzero"/></g><g clip-path="url(#c59b868d11)"><path fill="#999999" d="M 0 738.53125 L 505.503906 738.53125 L 505.503906 739.222656 L 0 739.222656 Z M 0 738.53125 " fill-opacity="1" fill-rule="nonzero"/></g><g clip-path="url(#bc74a64b2a)"><path fill="#999999" d="M 0 758.226562 L 505.503906 758.226562 L 505.503906 758.917969 L 0 758.917969 Z M 0 758.226562 " fill-opacity="1" fill-rule="nonzero"/></g><g clip-path="url(#b4a3cb49b8)"><path fill="#999999" d="M 0 777.921875 L 505.503906 777.921875 L 505.503906 778.609375 L 0 778.609375 Z M 0 777.921875 " fill-opacity="1" fill-rule="nonzero"/></g><g clip-path="url(#0c827de92a)"><path fill="#999999" d="M 0 797.617188 L 505.503906 797.617188 L 505.503906 798.308594 L 0 798.308594 Z M 0 797.617188 " fill-opacity="1" fill-rule="nonzero"/></g><g clip-path="url(#8251877c06)"><path fill="#999999" d="M 478.894531 476.277344 L 479.585938 476.277344 L 479.585938 981.78125 L 478.894531 981.78125 Z M 478.894531 476.277344 " fill-opacity="1" fill-rule="nonzero"/></g><g clip-path="url(#538997d07a)"><path fill="#999999" d="M 459.203125 476.277344 L 459.894531 476.277344 L 459.894531 981.78125 L 459.203125 981.78125 Z M 459.203125 476.277344 " fill-opacity="1" fill-rule="nonzero"/></g><g clip-path="url(#272b3cc510)"><path fill="#999999" d="M 439.503906 476.277344 L 440.195312 476.277344 L 440.195312 981.78125 L 439.503906 981.78125 Z M 439.503906 476.277344 " fill-opacity="1" fill-rule="nonzero"/></g><g clip-path="url(#05462700e7)"><path fill="#999999" d="M 419.8125 476.277344 L 420.503906 476.277344 L 420.503906 981.78125 L 419.8125 981.78125 Z M 419.8125 476.277344 " fill-opacity="1" fill-rule="nonzero"/></g><g clip-path="url(#aad927c51d)"><path fill="#999999" d="M 400.117188 476.277344 L 400.804688 476.277344 L 400.804688 981.78125 L 400.117188 981.78125 Z M 400.117188 476.277344 " fill-opacity="1" fill-rule="nonzero"/></g><g clip-path="url(#f7b37257a5)"><path fill="#999999" d="M 380.421875 476.277344 L 381.113281 476.277344 L 381.113281 981.78125 L 380.421875 981.78125 Z M 380.421875 476.277344 " fill-opacity="1" fill-rule="nonzero"/></g><g clip-path="url(#0ab7ba387f)"><path fill="#999999" d="M 360.726562 476.277344 L 361.417969 476.277344 L 361.417969 981.78125 L 360.726562 981.78125 Z M 360.726562 476.277344 " fill-opacity="1" fill-rule="nonzero"/></g><g clip-path="url(#4d919b55a5)"><path fill="#999999" d="M 341.03125 476.277344 L 341.722656 476.277344 L 341.722656 981.78125 L 341.03125 981.78125 Z M 341.03125 476.277344 " fill-opacity="1" fill-rule="nonzero"/></g><g clip-path="url(#73731e632e)"><path fill="#999999" d="M 321.339844 476.277344 L 322.027344 476.277344 L 322.027344 981.78125 L 321.339844 981.78125 Z M 321.339844 476.277344 " fill-opacity="1" fill-rule="nonzero"/></g><g clip-path="url(#0ed1626c09)"><path fill="#999999" d="M 301.640625 476.277344 L 302.332031 476.277344 L 302.332031 981.78125 L 301.640625 981.78125 Z M 301.640625 476.277344 " fill-opacity="1" fill-rule="nonzero"/></g><g clip-path="url(#255e75aac3)"><path fill="#999999" d="M 281.949219 476.277344 L 282.636719 476.277344 L 282.636719 981.78125 L 281.949219 981.78125 Z M 281.949219 476.277344 " fill-opacity="1" fill-rule="nonzero"/></g><g clip-path="url(#8fffbb3b2d)"><path fill="#999999" d="M 262.25 476.277344 L 262.941406 476.277344 L 262.941406 981.78125 L 262.25 981.78125 Z M 262.25 476.277344 " fill-opacity="1" fill-rule="nonzero"/></g><g clip-path="url(#82b54b4157)"><path fill="#999999" d="M 242.558594 476.277344 L 243.25 476.277344 L 243.25 981.78125 L 242.558594 981.78125 Z M 242.558594 476.277344 " fill-opacity="1" fill-rule="nonzero"/></g><g clip-path="url(#16bd44ff26)"><path fill="#999999" d="M 222.863281 476.277344 L 223.554688 476.277344 L 223.554688 981.78125 L 222.863281 981.78125 Z M 222.863281 476.277344 " fill-opacity="1" fill-rule="nonzero"/></g><g clip-path="url(#1af6de0c59)"><path fill="#999999" d="M 203.167969 476.277344 L 203.859375 476.277344 L 203.859375 981.78125 L 203.167969 981.78125 Z M 203.167969 476.277344 " fill-opacity="1" fill-rule="nonzero"/></g><g clip-path="url(#4eb1f0ed44)"><path fill="#999999" d="M 183.472656 476.277344 L 184.164062 476.277344 L 184.164062 981.78125 L 183.472656 981.78125 Z M 183.472656 476.277344 " fill-opacity="1" fill-rule="nonzero"/></g><g clip-path="url(#1acd84ef84)"><path fill="#999999" d="M 163.777344 476.277344 L 164.46875 476.277344 L 164.46875 981.78125 L 163.777344 981.78125 Z M 163.777344 476.277344 " fill-opacity="1" fill-rule="nonzero"/></g><g clip-path="url(#1efd9730e9)"><path fill="#999999" d="M 144.085938 476.277344 L 144.773438 476.277344 L 144.773438 981.78125 L 144.085938 981.78125 Z M 144.085938 476.277344 " fill-opacity="1" fill-rule="nonzero"/></g><g clip-path="url(#e57c8e225f)"><path fill="#999999" d="M 124.386719 476.277344 L 125.078125 476.277344 L 125.078125 981.78125 L 124.386719 981.78125 Z M 124.386719 476.277344 " fill-opacity="1" fill-rule="nonzero"/></g><g clip-path="url(#9b55c7ae10)"><path fill="#999999" d="M 104.695312 476.277344 L 105.382812 476.277344 L 105.382812 981.78125 L 104.695312 981.78125 Z M 104.695312 476.277344 " fill-opacity="1" fill-rule="nonzero"/></g><g clip-path="url(#983acd3a6e)"><path fill="#999999" d="M 84.996094 476.277344 L 85.6875 476.277344 L 85.6875 981.78125 L 84.996094 981.78125 Z M 84.996094 476.277344 " fill-opacity="1" fill-rule="nonzero"/></g><g clip-path="url(#178c5ee143)"><path fill="#999999" d="M 65.304688 476.277344 L 65.996094 476.277344 L 65.996094 981.78125 L 65.304688 981.78125 Z M 65.304688 476.277344 " fill-opacity="1" fill-rule="nonzero"/></g><g clip-path="url(#222d7d0f64)"><path fill="#999999" d="M 45.609375 476.277344 L 46.300781 476.277344 L 46.300781 981.78125 L 45.609375 981.78125 Z M 45.609375 476.277344 " fill-opacity="1" fill-rule="nonzero"/></g><g clip-path="url(#e4b5d82b6a)"><path fill="#999999" d="M 25.914062 476.277344 L 26.605469 476.277344 L 26.605469 981.78125 L 25.914062 981.78125 Z M 25.914062 476.277344 " fill-opacity="1" fill-rule="nonzero"/></g><g clip-path="url(#5d4f183a0b)"><path fill="#999999" d="M 478.566406 502.191406 L 984.066406 502.191406 L 984.066406 502.882812 L 478.566406 502.882812 Z M 478.566406 502.191406 " fill-opacity="1" fill-rule="nonzero"/></g><g clip-path="url(#e197246968)"><path fill="#999999" d="M 478.566406 521.890625 L 984.066406 521.890625 L 984.066406 522.578125 L 478.566406 522.578125 Z M 478.566406 521.890625 " fill-opacity="1" fill-rule="nonzero"/></g><g clip-path="url(#44dfe3bd45)"><path fill="#999999" d="M 478.566406 541.582031 L 984.066406 541.582031 L 984.066406 542.273438 L 478.566406 542.273438 Z M 478.566406 541.582031 " fill-opacity="1" fill-rule="nonzero"/></g><g clip-path="url(#87f5a416cb)"><path fill="#999999" d="M 478.566406 561.277344 L 984.066406 561.277344 L 984.066406 561.96875 L 478.566406 561.96875 Z M 478.566406 561.277344 " fill-opacity="1" fill-rule="nonzero"/></g><g clip-path="url(#0bd9778a6a)"><path fill="#999999" d="M 478.566406 580.972656 L 984.066406 580.972656 L 984.066406 581.664062 L 478.566406 581.664062 Z M 478.566406 580.972656 " fill-opacity="1" fill-rule="nonzero"/></g><g clip-path="url(#811933316a)"><path fill="#999999" d="M 478.566406 600.667969 L 984.066406 600.667969 L 984.066406 601.355469 L 478.566406 601.355469 Z M 478.566406 600.667969 " fill-opacity="1" fill-rule="nonzero"/></g><g clip-path="url(#c1d0c65122)"><path fill="#999999" d="M 478.566406 620.363281 L 984.066406 620.363281 L 984.066406 621.054688 L 478.566406 621.054688 Z M 478.566406 620.363281 " fill-opacity="1" fill-rule="nonzero"/></g><g clip-path="url(#41130260b8)"><path fill="#999999" d="M 478.566406 640.058594 L 984.066406 640.058594 L 984.066406 640.746094 L 478.566406 640.746094 Z M 478.566406 640.058594 " fill-opacity="1" fill-rule="nonzero"/></g><g clip-path="url(#3b72b6281c)"><path fill="#999999" d="M 478.566406 659.753906 L 984.066406 659.753906 L 984.066406 660.445312 L 478.566406 660.445312 Z M 478.566406 659.753906 " fill-opacity="1" fill-rule="nonzero"/></g><g clip-path="url(#bc74234f2d)"><path fill="#999999" d="M 478.566406 679.445312 L 984.066406 679.445312 L 984.066406 680.136719 L 478.566406 680.136719 Z M 478.566406 679.445312 " fill-opacity="1" fill-rule="nonzero"/></g><g clip-path="url(#b70dee284a)"><path fill="#999999" d="M 478.566406 699.144531 L 984.066406 699.144531 L 984.066406 699.835938 L 478.566406 699.835938 Z M 478.566406 699.144531 " fill-opacity="1" fill-rule="nonzero"/></g><g clip-path="url(#db4aba857f)"><path fill="#999999" d="M 478.566406 718.835938 L 984.066406 718.835938 L 984.066406 719.527344 L 478.566406 719.527344 Z M 478.566406 718.835938 " fill-opacity="1" fill-rule="nonzero"/></g><g clip-path="url(#7dc8a059c9)"><path fill="#999999" d="M 478.566406 738.53125 L 984.066406 738.53125 L 984.066406 739.222656 L 478.566406 739.222656 Z M 478.566406 738.53125 " fill-opacity="1" fill-rule="nonzero"/></g><g clip-path="url(#e14c236b9b)"><path fill="#999999" d="M 478.566406 758.226562 L 984.066406 758.226562 L 984.066406 758.917969 L 478.566406 758.917969 Z M 478.566406 758.226562 " fill-opacity="1" fill-rule="nonzero"/></g><g clip-path="url(#765aafbf6c)"><path fill="#999999" d="M 478.566406 777.921875 L 984.066406 777.921875 L 984.066406 778.609375 L 478.566406 778.609375 Z M 478.566406 777.921875 " fill-opacity="1" fill-rule="nonzero"/></g><g clip-path="url(#726baf3f74)"><path fill="#999999" d="M 478.566406 797.617188 L 984.066406 797.617188 L 984.066406 798.308594 L 478.566406 798.308594 Z M 478.566406 797.617188 " fill-opacity="1" fill-rule="nonzero"/></g><g clip-path="url(#63dbf4fefc)"><path fill="#999999" d="M 957.460938 476.277344 L 958.152344 476.277344 L 958.152344 981.78125 L 957.460938 981.78125 Z M 957.460938 476.277344 " fill-opacity="1" fill-rule="nonzero"/></g><g clip-path="url(#69f20ceee9)"><path fill="#999999" d="M 937.765625 476.277344 L 938.457031 476.277344 L 938.457031 981.78125 L 937.765625 981.78125 Z M 937.765625 476.277344 " fill-opacity="1" fill-rule="nonzero"/></g><g clip-path="url(#97f4c29168)"><path fill="#999999" d="M 918.070312 476.277344 L 918.761719 476.277344 L 918.761719 981.78125 L 918.070312 981.78125 Z M 918.070312 476.277344 " fill-opacity="1" fill-rule="nonzero"/></g><g clip-path="url(#3c8d88aea8)"><path fill="#999999" d="M 898.375 476.277344 L 899.066406 476.277344 L 899.066406 981.78125 L 898.375 981.78125 Z M 898.375 476.277344 " fill-opacity="1" fill-rule="nonzero"/></g><g clip-path="url(#d62c1940a6)"><path fill="#999999" d="M 878.679688 476.277344 L 879.371094 476.277344 L 879.371094 981.78125 L 878.679688 981.78125 Z M 878.679688 476.277344 " fill-opacity="1" fill-rule="nonzero"/></g><g clip-path="url(#6ea020edb4)"><path fill="#999999" d="M 858.988281 476.277344 L 859.675781 476.277344 L 859.675781 981.78125 L 858.988281 981.78125 Z M 858.988281 476.277344 " fill-opacity="1" fill-rule="nonzero"/></g><g clip-path="url(#dda91dd3a2)"><path fill="#999999" d="M 839.292969 476.277344 L 839.984375 476.277344 L 839.984375 981.78125 L 839.292969 981.78125 Z M 839.292969 476.277344 " fill-opacity="1" fill-rule="nonzero"/></g><g clip-path="url(#905d04fc52)"><path fill="#999999" d="M 819.597656 476.277344 L 820.285156 476.277344 L 820.285156 981.78125 L 819.597656 981.78125 Z M 819.597656 476.277344 " fill-opacity="1" fill-rule="nonzero"/></g><g clip-path="url(#efd29aa55c)"><path fill="#999999" d="M 799.902344 476.277344 L 800.59375 476.277344 L 800.59375 981.78125 L 799.902344 981.78125 Z M 799.902344 476.277344 " fill-opacity="1" fill-rule="nonzero"/></g><g clip-path="url(#3c443e3ffa)"><path fill="#999999" d="M 780.207031 476.277344 L 780.898438 476.277344 L 780.898438 981.78125 L 780.207031 981.78125 Z M 780.207031 476.277344 " fill-opacity="1" fill-rule="nonzero"/></g><g clip-path="url(#83c6c8276b)"><path fill="#999999" d="M 760.511719 476.277344 L 761.203125 476.277344 L 761.203125 981.78125 L 760.511719 981.78125 Z M 760.511719 476.277344 " fill-opacity="1" fill-rule="nonzero"/></g><g clip-path="url(#cdc403dfc2)"><path fill="#999999" d="M 740.816406 476.277344 L 741.507812 476.277344 L 741.507812 981.78125 L 740.816406 981.78125 Z M 740.816406 476.277344 " fill-opacity="1" fill-rule="nonzero"/></g><g clip-path="url(#e0675995b7)"><path fill="#999999" d="M 721.121094 476.277344 L 721.8125 476.277344 L 721.8125 981.78125 L 721.121094 981.78125 Z M 721.121094 476.277344 " fill-opacity="1" fill-rule="nonzero"/></g><g clip-path="url(#6f1dcc40e3)"><path fill="#999999" d="M 701.429688 476.277344 L 702.121094 476.277344 L 702.121094 981.78125 L 701.429688 981.78125 Z M 701.429688 476.277344 " fill-opacity="1" fill-rule="nonzero"/></g><g clip-path="url(#a2cfb12952)"><path fill="#999999" d="M 681.734375 476.277344 L 682.421875 476.277344 L 682.421875 981.78125 L 681.734375 981.78125 Z M 681.734375 476.277344 " fill-opacity="1" fill-rule="nonzero"/></g><g clip-path="url(#4c48f54d6c)"><path fill="#999999" d="M 662.039062 476.277344 L 662.730469 476.277344 L 662.730469 981.78125 L 662.039062 981.78125 Z M 662.039062 476.277344 " fill-opacity="1" fill-rule="nonzero"/></g><g clip-path="url(#5eae34017d)"><path fill="#999999" d="M 642.34375 476.277344 L 643.03125 476.277344 L 643.03125 981.78125 L 642.34375 981.78125 Z M 642.34375 476.277344 " fill-opacity="1" fill-rule="nonzero"/></g><g clip-path="url(#5a15e449ad)"><path fill="#999999" d="M 622.648438 476.277344 L 623.339844 476.277344 L 623.339844 981.78125 L 622.648438 981.78125 Z M 622.648438 476.277344 " fill-opacity="1" fill-rule="nonzero"/></g><g clip-path="url(#87450f9d0f)"><path fill="#999999" d="M 602.953125 476.277344 L 603.644531 476.277344 L 603.644531 981.78125 L 602.953125 981.78125 Z M 602.953125 476.277344 " fill-opacity="1" fill-rule="nonzero"/></g><g clip-path="url(#b409107bae)"><path fill="#999999" d="M 583.257812 476.277344 L 583.949219 476.277344 L 583.949219 981.78125 L 583.257812 981.78125 Z M 583.257812 476.277344 " fill-opacity="1" fill-rule="nonzero"/></g><g clip-path="url(#f86e368816)"><path fill="#999999" d="M 563.5625 476.277344 L 564.253906 476.277344 L 564.253906 981.78125 L 563.5625 981.78125 Z M 563.5625 476.277344 " fill-opacity="1" fill-rule="nonzero"/></g><g clip-path="url(#5d1b595b26)"><path fill="#999999" d="M 543.867188 476.277344 L 544.558594 476.277344 L 544.558594 981.78125 L 543.867188 981.78125 Z M 543.867188 476.277344 " fill-opacity="1" fill-rule="nonzero"/></g><g clip-path="url(#e0158a4d29)"><path fill="#999999" d="M 524.175781 476.277344 L 524.867188 476.277344 L 524.867188 981.78125 L 524.175781 981.78125 Z M 524.175781 476.277344 " fill-opacity="1" fill-rule="nonzero"/></g><g clip-path="url(#d58e1614f1)"><path fill="#999999" d="M 504.476562 476.277344 L 505.167969 476.277344 L 505.167969 981.78125 L 504.476562 981.78125 Z M 504.476562 476.277344 " fill-opacity="1" fill-rule="nonzero"/></g><g clip-path="url(#e09196f78f)"><path fill="#999999" d="M 959.722656 502.191406 L 1465.222656 502.191406 L 1465.222656 502.882812 L 959.722656 502.882812 Z M 959.722656 502.191406 " fill-opacity="1" fill-rule="nonzero"/></g><g clip-path="url(#633a42ced0)"><path fill="#999999" d="M 959.722656 521.890625 L 1465.222656 521.890625 L 1465.222656 522.578125 L 959.722656 522.578125 Z M 959.722656 521.890625 " fill-opacity="1" fill-rule="nonzero"/></g><g clip-path="url(#ce4b8a45a7)"><path fill="#999999" d="M 959.722656 541.582031 L 1465.222656 541.582031 L 1465.222656 542.273438 L 959.722656 542.273438 Z M 959.722656 541.582031 " fill-opacity="1" fill-rule="nonzero"/></g><g clip-path="url(#00f4912903)"><path fill="#999999" d="M 959.722656 561.277344 L 1465.222656 561.277344 L 1465.222656 561.96875 L 959.722656 561.96875 Z M 959.722656 561.277344 " fill-opacity="1" fill-rule="nonzero"/></g><g clip-path="url(#5b8a946146)"><path fill="#999999" d="M 959.722656 580.972656 L 1465.222656 580.972656 L 1465.222656 581.664062 L 959.722656 581.664062 Z M 959.722656 580.972656 " fill-opacity="1" fill-rule="nonzero"/></g><g clip-path="url(#a3d39a85ee)"><path fill="#999999" d="M 959.722656 600.667969 L 1465.222656 600.667969 L 1465.222656 601.355469 L 959.722656 601.355469 Z M 959.722656 600.667969 " fill-opacity="1" fill-rule="nonzero"/></g><g clip-path="url(#89bcd7eed6)"><path fill="#999999" d="M 959.722656 620.363281 L 1465.222656 620.363281 L 1465.222656 621.054688 L 959.722656 621.054688 Z M 959.722656 620.363281 " fill-opacity="1" fill-rule="nonzero"/></g><g clip-path="url(#d6952de195)"><path fill="#999999" d="M 959.722656 640.058594 L 1465.222656 640.058594 L 1465.222656 640.746094 L 959.722656 640.746094 Z M 959.722656 640.058594 " fill-opacity="1" fill-rule="nonzero"/></g><g clip-path="url(#b2b0fcc0f6)"><path fill="#999999" d="M 959.722656 659.753906 L 1465.222656 659.753906 L 1465.222656 660.445312 L 959.722656 660.445312 Z M 959.722656 659.753906 " fill-opacity="1" fill-rule="nonzero"/></g><g clip-path="url(#9c7b8e8704)"><path fill="#999999" d="M 959.722656 679.445312 L 1465.222656 679.445312 L 1465.222656 680.136719 L 959.722656 680.136719 Z M 959.722656 679.445312 " fill-opacity="1" fill-rule="nonzero"/></g><g clip-path="url(#817e230670)"><path fill="#999999" d="M 959.722656 699.144531 L 1465.222656 699.144531 L 1465.222656 699.835938 L 959.722656 699.835938 Z M 959.722656 699.144531 " fill-opacity="1" fill-rule="nonzero"/></g><g clip-path="url(#2402da76aa)"><path fill="#999999" d="M 959.722656 718.835938 L 1465.222656 718.835938 L 1465.222656 719.527344 L 959.722656 719.527344 Z M 959.722656 718.835938 " fill-opacity="1" fill-rule="nonzero"/></g><g clip-path="url(#02a1236fdb)"><path fill="#999999" d="M 959.722656 738.53125 L 1465.222656 738.53125 L 1465.222656 739.222656 L 959.722656 739.222656 Z M 959.722656 738.53125 " fill-opacity="1" fill-rule="nonzero"/></g><g clip-path="url(#ea4c30b02a)"><path fill="#999999" d="M 959.722656 758.226562 L 1465.222656 758.226562 L 1465.222656 758.917969 L 959.722656 758.917969 Z M 959.722656 758.226562 " fill-opacity="1" fill-rule="nonzero"/></g><g clip-path="url(#276a89af93)"><path fill="#999999" d="M 959.722656 777.921875 L 1465.222656 777.921875 L 1465.222656 778.609375 L 959.722656 778.609375 Z M 959.722656 777.921875 " fill-opacity="1" fill-rule="nonzero"/></g><g clip-path="url(#e17d6ecbf3)"><path fill="#999999" d="M 959.722656 797.617188 L 1465.222656 797.617188 L 1465.222656 798.308594 L 959.722656 798.308594 Z M 959.722656 797.617188 " fill-opacity="1" fill-rule="nonzero"/></g><g clip-path="url(#43558fe34b)"><path fill="#999999" d="M 1438.617188 476.277344 L 1439.308594 476.277344 L 1439.308594 981.78125 L 1438.617188 981.78125 Z M 1438.617188 476.277344 " fill-opacity="1" fill-rule="nonzero"/></g><g clip-path="url(#d02cb5b170)"><path fill="#999999" d="M 1418.921875 476.277344 L 1419.613281 476.277344 L 1419.613281 981.78125 L 1418.921875 981.78125 Z M 1418.921875 476.277344 " fill-opacity="1" fill-rule="nonzero"/></g><g clip-path="url(#887970e33f)"><path fill="#999999" d="M 1399.226562 476.277344 L 1399.917969 476.277344 L 1399.917969 981.78125 L 1399.226562 981.78125 Z M 1399.226562 476.277344 " fill-opacity="1" fill-rule="nonzero"/></g><g clip-path="url(#d6bb0887f5)"><path fill="#999999" d="M 1379.535156 476.277344 L 1380.222656 476.277344 L 1380.222656 981.78125 L 1379.535156 981.78125 Z M 1379.535156 476.277344 " fill-opacity="1" fill-rule="nonzero"/></g><g clip-path="url(#6ec47faaae)"><path fill="#999999" d="M 1359.835938 476.277344 L 1360.527344 476.277344 L 1360.527344 981.78125 L 1359.835938 981.78125 Z M 1359.835938 476.277344 " fill-opacity="1" fill-rule="nonzero"/></g><g clip-path="url(#782d2a84d1)"><path fill="#999999" d="M 1340.144531 476.277344 L 1340.832031 476.277344 L 1340.832031 981.78125 L 1340.144531 981.78125 Z M 1340.144531 476.277344 " fill-opacity="1" fill-rule="nonzero"/></g><g clip-path="url(#a153ecc327)"><path fill="#999999" d="M 1320.449219 476.277344 L 1321.140625 476.277344 L 1321.140625 981.78125 L 1320.449219 981.78125 Z M 1320.449219 476.277344 " fill-opacity="1" fill-rule="nonzero"/></g><g clip-path="url(#0ca8656dfd)"><path fill="#999999" d="M 1300.753906 476.277344 L 1301.445312 476.277344 L 1301.445312 981.78125 L 1300.753906 981.78125 Z M 1300.753906 476.277344 " fill-opacity="1" fill-rule="nonzero"/></g><g clip-path="url(#f0813a0c1e)"><path fill="#999999" d="M 1281.058594 476.277344 L 1281.75 476.277344 L 1281.75 981.78125 L 1281.058594 981.78125 Z M 1281.058594 476.277344 " fill-opacity="1" fill-rule="nonzero"/></g><g clip-path="url(#a0e4a4e562)"><path fill="#999999" d="M 1261.363281 476.277344 L 1262.054688 476.277344 L 1262.054688 981.78125 L 1261.363281 981.78125 Z M 1261.363281 476.277344 " fill-opacity="1" fill-rule="nonzero"/></g><g clip-path="url(#9b494851ba)"><path fill="#999999" d="M 1241.667969 476.277344 L 1242.359375 476.277344 L 1242.359375 981.78125 L 1241.667969 981.78125 Z M 1241.667969 476.277344 " fill-opacity="1" fill-rule="nonzero"/></g><g clip-path="url(#2d482ceb69)"><path fill="#999999" d="M 1221.972656 476.277344 L 1222.664062 476.277344 L 1222.664062 981.78125 L 1221.972656 981.78125 Z M 1221.972656 476.277344 " fill-opacity="1" fill-rule="nonzero"/></g><g clip-path="url(#04111da2de)"><path fill="#999999" d="M 1202.28125 476.277344 L 1202.96875 476.277344 L 1202.96875 981.78125 L 1202.28125 981.78125 Z M 1202.28125 476.277344 " fill-opacity="1" fill-rule="nonzero"/></g><g clip-path="url(#eafe94762b)"><path fill="#999999" d="M 1182.585938 476.277344 L 1183.277344 476.277344 L 1183.277344 981.78125 L 1182.585938 981.78125 Z M 1182.585938 476.277344 " fill-opacity="1" fill-rule="nonzero"/></g><g clip-path="url(#b01b732145)"><path fill="#999999" d="M 1162.890625 476.277344 L 1163.578125 476.277344 L 1163.578125 981.78125 L 1162.890625 981.78125 Z M 1162.890625 476.277344 " fill-opacity="1" fill-rule="nonzero"/></g><g clip-path="url(#bd70dbd898)"><path fill="#999999" d="M 1143.195312 476.277344 L 1143.886719 476.277344 L 1143.886719 981.78125 L 1143.195312 981.78125 Z M 1143.195312 476.277344 " fill-opacity="1" fill-rule="nonzero"/></g><g clip-path="url(#51d39e80ca)"><path fill="#999999" d="M 1123.5 476.277344 L 1124.191406 476.277344 L 1124.191406 981.78125 L 1123.5 981.78125 Z M 1123.5 476.277344 " fill-opacity="1" fill-rule="nonzero"/></g><g clip-path="url(#73848e8b8b)"><path fill="#999999" d="M 1103.804688 476.277344 L 1104.496094 476.277344 L 1104.496094 981.78125 L 1103.804688 981.78125 Z M 1103.804688 476.277344 " fill-opacity="1" fill-rule="nonzero"/></g><g clip-path="url(#779bb2620d)"><path fill="#999999" d="M 1084.109375 476.277344 L 1084.800781 476.277344 L 1084.800781 981.78125 L 1084.109375 981.78125 Z M 1084.109375 476.277344 " fill-opacity="1" fill-rule="nonzero"/></g><g clip-path="url(#8104c213df)"><path fill="#999999" d="M 1064.414062 476.277344 L 1065.105469 476.277344 L 1065.105469 981.78125 L 1064.414062 981.78125 Z M 1064.414062 476.277344 " fill-opacity="1" fill-rule="nonzero"/></g><g clip-path="url(#2c6343bdfa)"><path fill="#999999" d="M 1044.71875 476.277344 L 1045.410156 476.277344 L 1045.410156 981.78125 L 1044.71875 981.78125 Z M 1044.71875 476.277344 " fill-opacity="1" fill-rule="nonzero"/></g><g clip-path="url(#ba7f9382c8)"><path fill="#999999" d="M 1025.023438 476.277344 L 1025.714844 476.277344 L 1025.714844 981.78125 L 1025.023438 981.78125 Z M 1025.023438 476.277344 " fill-opacity="1" fill-rule="nonzero"/></g><g clip-path="url(#d24793aeea)"><path fill="#999999" d="M 1005.332031 476.277344 L 1006.023438 476.277344 L 1006.023438 981.78125 L 1005.332031 981.78125 Z M 1005.332031 476.277344 " fill-opacity="1" fill-rule="nonzero"/></g><g clip-path="url(#3cc13a1e69)"><path fill="#999999" d="M 985.636719 476.277344 L 986.324219 476.277344 L 986.324219 981.78125 L 985.636719 981.78125 Z M 985.636719 476.277344 " fill-opacity="1" fill-rule="nonzero"/></g></svg>