<svg xmlns="http://www.w3.org/2000/svg" xmlns:xlink="http://www.w3.org/1999/xlink" width="1000" zoomAndPan="magnify" viewBox="0 0 750 749.999995" height="1000" preserveAspectRatio="xMidYMid meet" version="1.0"><defs><clipPath id="7c437769f8"><path d="M 599.828125 457.554688 L 608.425781 457.554688 L 608.425781 464.84375 L 599.828125 464.84375 Z M 599.828125 457.554688 " clip-rule="nonzero"/></clipPath><clipPath id="a2a9a3c82a"><path d="M 608.398438 460.199219 C 604.5 466.199219 601.050781 465.148438 600.148438 463.800781 C 599.398438 462.601562 600.148438 458.851562 601.351562 457.949219 C 602.398438 457.050781 607.199219 458.25 607.199219 458.25 " clip-rule="nonzero"/></clipPath></defs><g clip-path="url(#7c437769f8)"><g clip-path="url(#a2a9a3c82a)"><path fill="#d9d9d9" d="M 594.148438 451.949219 L 614.414062 451.949219 L 614.414062 471.601562 L 594.148438 471.601562 Z M 594.148438 451.949219 " fill-opacity="1" fill-rule="nonzero"/></g></g><path fill="#dfeef7" d="M 741.925781 563.785156 C 749.910156 622.460938 723.785156 679.128906 677.460938 711.871094 C 671.742188 715.917969 663.75 714.03125 660.195312 707.996094 L 659.265625 706.40625 C 656.070312 700.960938 657.644531 694.042969 662.792969 690.390625 C 701.097656 663.195312 722.730469 616.269531 716.230469 567.597656 C 715.394531 561.351562 719.402344 555.5 725.554688 554.136719 L 727.324219 553.746094 C 734.171875 552.234375 740.980469 556.835938 741.925781 563.785156 " fill-opacity="1" fill-rule="nonzero"/><path fill="#dfeef7" d="M 691.0625 575.835938 C 694.125 611.269531 678.714844 645.066406 651.820312 666.199219 C 645.980469 670.785156 637.472656 669.371094 633.703125 662.976562 L 632.824219 661.484375 C 629.679688 656.144531 631.195312 649.460938 636.054688 645.605469 C 656.078125 629.6875 667.5 604.460938 665.175781 577.953125 C 664.652344 572 668.886719 566.660156 674.714844 565.371094 L 676.367188 565.007812 C 683.523438 563.429688 690.4375 568.527344 691.0625 575.835938 " fill-opacity="1" fill-rule="nonzero"/><path fill="#dfeef7" d="M 1.757812 147.015625 C 17.316406 89.875 63.5 47.921875 118.929688 35.882812 C 125.777344 34.394531 132.402344 39.253906 133.308594 46.195312 L 133.546875 48.023438 C 134.371094 54.285156 130.210938 60.03125 124.050781 61.382812 C 78.167969 71.457031 39.921875 106.199219 26.90625 153.550781 C 25.234375 159.621094 19.257812 163.441406 13.066406 162.292969 L 11.28125 161.960938 C 4.390625 160.675781 -0.0859375 153.78125 1.757812 147.015625 " fill-opacity="1" fill-rule="nonzero"/><path fill="#dfeef7" d="M 53.277344 155.792969 C 64.3125 121.980469 91.691406 96.890625 124.699219 87.949219 C 131.863281 86.003906 139.144531 90.628906 140.125 97.988281 L 140.347656 99.714844 C 141.152344 105.851562 137.144531 111.40625 131.175781 113.058594 C 106.519531 119.894531 86.152344 138.652344 77.945312 163.964844 C 76.101562 169.644531 70.113281 172.90625 64.246094 171.8125 L 62.585938 171.503906 C 55.378906 170.167969 51.011719 162.769531 53.277344 155.792969 " fill-opacity="1" fill-rule="nonzero"/><path fill="#fec108" d="M 670.058594 296.917969 L 625.179688 577.960938 C 619.609375 612.855469 586.808594 636.644531 551.90625 631.066406 L 117.085938 561.59375 C 82.175781 556.023438 58.417969 523.1875 63.996094 488.300781 L 108.875 207.253906 C 111.183594 192.785156 118.164062 180.246094 128.042969 170.914062 C 141.992188 157.6875 161.707031 150.875 182.148438 154.148438 L 616.96875 223.621094 C 637.40625 226.882812 654.027344 239.496094 663.160156 256.414062 C 669.640625 268.355469 672.375 282.445312 670.058594 296.917969 " fill-opacity="1" fill-rule="nonzero"/><path fill="#feb60a" d="M 128.042969 170.914062 L 364.277344 478.363281 L 663.160156 256.414062 Z M 128.042969 170.914062 " fill-opacity="1" fill-rule="nonzero"/><path fill="#fdac01" d="M 70.894531 528.800781 L 373.476562 352.207031 L 606.007812 614.300781 C 592.0625 627.527344 572.347656 634.335938 551.90625 631.066406 L 117.085938 561.59375 C 96.640625 558.332031 80.027344 545.714844 70.894531 528.800781 " fill-opacity="1" fill-rule="nonzero"/><path fill="#ffd54f" d="M 663.160156 256.414062 L 360.578125 433.007812 L 128.042969 170.914062 C 141.992188 157.6875 161.707031 150.875 182.148438 154.148438 L 616.96875 223.621094 C 637.40625 226.882812 654.027344 239.496094 663.160156 256.414062 " fill-opacity="1" fill-rule="nonzero"/><path fill="#f5554a" d="M 749.347656 210.21875 C 749.347656 141.367188 693.550781 85.558594 624.722656 85.558594 C 555.890625 85.558594 500.085938 141.367188 500.085938 210.21875 C 500.085938 279.066406 555.890625 334.886719 624.722656 334.886719 C 693.550781 334.886719 749.347656 279.066406 749.347656 210.21875 " fill-opacity="1" fill-rule="nonzero"/><path fill="#ffffff" d="M 617.804688 188.558594 C 615.820312 190.363281 613.664062 191.773438 611.324219 192.796875 C 608.972656 193.816406 606.21875 194.332031 603.027344 194.332031 C 601.226562 194.332031 599.566406 193.984375 598.03125 193.292969 C 596.496094 192.605469 595.191406 191.675781 594.113281 190.503906 C 593.035156 189.324219 592.179688 187.996094 591.546875 186.492188 C 590.917969 184.988281 590.601562 183.394531 590.601562 181.71875 C 590.601562 180.03125 590.875 178.578125 591.414062 177.339844 C 591.953125 176.113281 592.703125 175.050781 593.664062 174.144531 C 594.621094 173.246094 595.730469 172.433594 596.992188 171.710938 C 598.253906 170.988281 599.609375 170.242188 601.054688 169.460938 C 604.050781 167.476562 606.738281 165.464844 609.113281 163.425781 C 611.488281 161.382812 613.605469 159.472656 615.464844 157.703125 C 617.324219 155.925781 618.945312 154.414062 620.328125 153.152344 C 621.707031 151.890625 622.910156 151.019531 623.933594 150.535156 C 624.53125 150.238281 625.085938 149.980469 625.601562 149.773438 C 626.109375 149.566406 626.632812 149.414062 627.171875 149.324219 C 627.71875 149.230469 628.316406 149.175781 628.972656 149.140625 C 629.636719 149.109375 630.476562 149.097656 631.496094 149.097656 C 634.617188 149.097656 637.097656 149.722656 638.933594 150.984375 C 640.761719 152.246094 642.140625 153.882812 643.070312 155.902344 C 644.007812 157.910156 644.585938 160.175781 644.828125 162.703125 C 645.070312 165.226562 645.183594 167.785156 645.183594 170.359375 L 645.183594 253.980469 C 645.183594 256.621094 645.070312 259.21875 644.828125 261.777344 C 644.585938 264.328125 644.007812 266.59375 643.070312 268.578125 C 642.140625 270.5625 640.761719 272.164062 638.933594 273.394531 C 637.097656 274.632812 634.617188 275.246094 631.496094 275.246094 C 628.316406 275.246094 625.824219 274.632812 624.023438 273.394531 C 622.222656 272.164062 620.851562 270.5625 619.921875 268.578125 C 618.984375 266.59375 618.402344 264.328125 618.164062 261.777344 C 617.921875 259.21875 617.804688 256.621094 617.804688 253.980469 L 617.804688 188.558594 " fill-opacity="1" fill-rule="nonzero"/></svg>