<svg xmlns="http://www.w3.org/2000/svg" xmlns:xlink="http://www.w3.org/1999/xlink" width="500" zoomAndPan="magnify" viewBox="0 0 375 374.999991" height="500" preserveAspectRatio="xMidYMid meet" version="1.0"><defs><clipPath id="9c518dc11c"><path d="M 138.511719 211.527344 L 140.601562 211.527344 L 140.601562 213.28125 L 138.511719 213.28125 Z M 138.511719 211.527344 " clip-rule="nonzero"/></clipPath><clipPath id="346851f17b"><path d="M 140.59375 212.152344 C 139.648438 213.609375 138.773438 213.355469 138.589844 213.027344 C 138.410156 212.734375 138.589844 211.824219 138.882812 211.605469 C 139.136719 211.386719 140.300781 211.714844 140.300781 211.714844 " clip-rule="nonzero"/></clipPath><clipPath id="34c78194ef"><path d="M 0 0 L 373 0 L 373 371 L 0 371 Z M 0 0 " clip-rule="nonzero"/></clipPath><clipPath id="87845f3ca6"><path d="M 338.21875 -94.574219 L 419.003906 306.878906 L -5.242188 392.253906 L -86.027344 -9.199219 Z M 338.21875 -94.574219 " clip-rule="nonzero"/></clipPath><clipPath id="19c13df56f"><path d="M 338.21875 -94.574219 L 419.003906 306.878906 L -5.242188 392.253906 L -86.027344 -9.199219 Z M 338.21875 -94.574219 " clip-rule="nonzero"/></clipPath></defs><g clip-path="url(#9c518dc11c)"><g clip-path="url(#346851f17b)"><path fill="#aed3b0" d="M 137.136719 210.148438 L 142.054688 210.148438 L 142.054688 214.917969 L 137.136719 214.917969 Z M 137.136719 210.148438 " fill-opacity="1" fill-rule="nonzero"/></g></g><g clip-path="url(#34c78194ef)"><g clip-path="url(#87845f3ca6)"><g clip-path="url(#19c13df56f)"><path fill="#ffffff" d="M -27.53125 280.152344 C -27.675781 279.421875 -27.820312 278.691406 -27.964844 277.964844 C -28.609375 274.785156 -29.25 271.605469 -29.894531 268.421875 C -30.523438 265.429688 -30.464844 262.378906 -30.425781 259.359375 C -30.328125 251.988281 -29.859375 244.628906 -28.8125 237.324219 C -28.105469 232.414062 -27.144531 227.550781 -26.097656 222.699219 C -23.730469 211.730469 -20.722656 200.898438 -18.722656 189.847656 C -17.4375 182.757812 -16.824219 175.621094 -17.214844 168.402344 C -17.398438 164.941406 -17.65625 161.5 -18.121094 158.058594 C -18.394531 156.03125 -18.554688 153.984375 -19.085938 152.011719 C -20.078125 148.308594 -21.085938 144.613281 -22.277344 140.964844 C -23.65625 136.726562 -25.207031 132.5625 -26.820312 128.417969 C -28.144531 125.007812 -29.671875 121.691406 -31.257812 118.410156 C -34.171875 112.386719 -37.347656 106.488281 -40.816406 100.761719 C -44.898438 94.023438 -48.664062 87.128906 -51.898438 79.941406 C -53.628906 76.101562 -54.984375 72.140625 -56.175781 68.09375 C -57.675781 63.011719 -58.625 57.828125 -59.5625 52.644531 C -60.808594 45.753906 -60.636719 38.851562 -59.015625 32 C -58.34375 29.160156 -57.515625 26.375 -56.632812 23.597656 C -55.777344 20.910156 -54.414062 18.480469 -53.082031 16.035156 C -51.773438 13.640625 -50.351562 11.308594 -48.835938 9.035156 C -45.542969 4.09375 -41.523438 -0.203125 -37.148438 -4.160156 C -30.210938 -10.429688 -22.5 -15.628906 -14.289062 -20.0625 C -10.257812 -22.238281 -6.011719 -23.960938 -1.605469 -25.285156 C -0.121094 -25.734375 1.359375 -26.167969 2.867188 -26.519531 C 5.214844 -26.785156 7.421875 -27.597656 9.675781 -28.242188 C 12.246094 -28.976562 14.976562 -28.664062 17.53125 -29.472656 C 21.214844 -30.039062 24.929688 -30.101562 28.640625 -30.148438 C 33.164062 -30.203125 37.683594 -30.191406 42.191406 -29.695312 C 46.457031 -29.226562 50.667969 -28.5 54.847656 -27.578125 C 58.851562 -26.691406 62.851562 -25.777344 66.792969 -24.675781 C 74.804688 -22.429688 82.746094 -19.949219 90.621094 -17.257812 C 97.789062 -14.8125 105.023438 -12.566406 112.191406 -10.125 C 118.488281 -7.976562 124.859375 -6.085938 131.308594 -4.480469 C 139.570312 -2.425781 147.910156 -0.828125 156.457031 -0.570312 C 160.851562 -0.441406 165.230469 -0.59375 169.617188 -1.003906 C 172.917969 -1.308594 176.152344 -1.914062 179.320312 -2.75 C 182.726562 -3.644531 186.148438 -4.507812 189.472656 -5.734375 C 192.835938 -6.976562 196.304688 -7.929688 199.710938 -9.066406 C 202.703125 -10.066406 205.671875 -11.128906 208.648438 -12.1875 C 212.261719 -13.46875 215.867188 -14.777344 219.480469 -16.0625 C 222.566406 -17.164062 225.652344 -18.28125 228.753906 -19.339844 C 231.097656 -20.140625 233.4375 -20.980469 235.832031 -21.585938 C 241 -22.890625 246.089844 -24.546875 251.347656 -25.476562 C 262.539062 -27.453125 273.753906 -27.910156 284.976562 -25.660156 C 290.902344 -24.472656 296.640625 -22.671875 302.292969 -20.558594 C 307.476562 -18.617188 312.429688 -16.222656 317.140625 -13.289062 C 323.167969 -9.535156 328.613281 -5.082031 333.835938 -0.300781 C 341.1875 6.433594 346.964844 14.414062 352.25 22.765625 C 356.332031 29.207031 360.183594 35.800781 363.3125 42.773438 C 364.804688 46.101562 366.140625 49.492188 367.203125 53 C 368.519531 57.332031 369.660156 61.703125 370.546875 66.144531 C 371.277344 69.796875 371.640625 73.492188 372.097656 77.175781 C 372.496094 80.382812 372.648438 83.585938 372.8125 86.796875 C 373.007812 90.585938 372.703125 94.351562 372.195312 98.101562 C 371.480469 103.402344 370.207031 108.589844 368.660156 113.703125 C 367.292969 118.21875 365.757812 122.679688 364.382812 127.191406 C 363.097656 131.410156 362.097656 135.707031 361.003906 139.976562 C 359.210938 146.976562 358.347656 154.105469 357.675781 161.273438 C 357.152344 166.839844 357.359375 172.410156 357.40625 177.972656 C 357.429688 180.480469 357.554688 183.070312 358.6875 185.441406 C 358.898438 185.878906 358.9375 186.402344 359.039062 186.886719 C 359.6875 190.054688 360.316406 193.222656 360.976562 196.386719 C 361.863281 200.640625 362.339844 204.945312 362.898438 209.25 C 363.332031 212.570312 363.695312 215.894531 363.972656 219.21875 C 364.355469 223.84375 364.265625 228.492188 363.925781 233.128906 C 363.5 238.894531 362.761719 244.621094 361.277344 250.207031 C 359.585938 256.566406 357.617188 262.855469 354.636719 268.753906 C 351.144531 275.660156 346.023438 281.117188 339.644531 285.488281 C 335.78125 288.140625 331.75 290.433594 327.324219 291.929688 C 323.15625 293.339844 318.871094 294.277344 314.457031 294.757812 C 306.949219 295.574219 299.613281 294.480469 292.269531 293.261719 C 284.175781 291.917969 276.027344 291.1875 267.832031 291.226562 C 264.875 291.242188 261.890625 291.445312 258.960938 292.082031 C 255.5 292.835938 251.996094 293.417969 248.550781 294.238281 C 245.601562 294.9375 242.742188 295.964844 239.863281 296.933594 C 235.992188 298.238281 232.191406 299.726562 228.417969 301.285156 C 223.542969 303.300781 218.707031 305.410156 214.207031 308.160156 C 208.4375 311.6875 202.761719 315.363281 197.082031 319.035156 C 194.789062 320.515625 192.558594 322.097656 190.371094 323.734375 C 186.292969 326.785156 182.257812 329.890625 178.222656 333.003906 C 173.546875 336.605469 168.933594 340.285156 164.226562 343.839844 C 158.230469 348.359375 152.261719 352.929688 145.679688 356.601562 C 140.042969 359.742188 134.273438 362.621094 128.179688 364.75 C 124.261719 366.113281 120.28125 367.324219 116.175781 368.046875 C 113.238281 368.640625 110.300781 369.230469 107.367188 369.816406 C 96.132812 371.851562 85.175781 370.652344 74.382812 367.113281 C 67.914062 364.996094 61.949219 361.886719 56.128906 358.417969 C 50.742188 355.210938 45.347656 352.011719 40.253906 348.363281 C 36.363281 345.578125 32.433594 342.855469 28.386719 340.324219 C 23.128906 337.03125 17.800781 333.847656 12.636719 330.40625 C 7.730469 327.136719 3.109375 323.503906 -1.324219 319.609375 C -5.804688 315.671875 -10.066406 311.523438 -13.800781 306.878906 C -18.878906 300.558594 -22.984375 293.671875 -25.644531 285.964844 C -26.3125 284.039062 -26.984375 282.117188 -27.53125 280.152344 Z M -27.53125 280.152344 " fill-opacity="1" fill-rule="nonzero"/></g></g></g></svg>