<svg xmlns="http://www.w3.org/2000/svg" xmlns:xlink="http://www.w3.org/1999/xlink" width="500" zoomAndPan="magnify" viewBox="0 0 375 374.999991" height="500" preserveAspectRatio="xMidYMid meet" version="1.0"><defs><clipPath id="420c55409f"><path d="M 16 357 L 31 357 L 31 371.910156 L 16 371.910156 Z M 16 357 " clip-rule="nonzero"/></clipPath><clipPath id="7488d38408"><path d="M 286 2.910156 L 304 2.910156 L 304 21 L 286 21 Z M 286 2.910156 " clip-rule="nonzero"/></clipPath><clipPath id="ef96c2a68a"><path d="M 226.863281 310.566406 L 231.160156 310.566406 L 231.160156 314.171875 L 226.863281 314.171875 Z M 226.863281 310.566406 " clip-rule="nonzero"/></clipPath><clipPath id="3029ba8529"><path d="M 231.148438 311.851562 C 229.273438 314.851562 227.476562 314.324219 227.101562 313.648438 C 226.648438 313.050781 227.023438 311.175781 227.625 310.726562 C 228.226562 310.273438 230.550781 310.949219 230.550781 310.949219 " clip-rule="nonzero"/></clipPath></defs><path fill="#602d91" d="M 273.019531 101.050781 C 270.675781 98.605469 268.246094 96.253906 265.726562 93.988281 C 263.210938 91.722656 260.609375 89.554688 257.933594 87.484375 C 255.253906 85.414062 252.5 83.441406 249.675781 81.578125 C 246.847656 79.710938 243.957031 77.949219 241 76.296875 C 238.046875 74.648438 235.03125 73.105469 231.960938 71.679688 C 228.890625 70.25 225.769531 68.9375 222.601562 67.742188 C 219.433594 66.546875 216.222656 65.46875 212.976562 64.511719 C 209.726562 63.554688 206.449219 62.71875 203.136719 62.007812 C 199.828125 61.292969 196.496094 60.703125 193.140625 60.238281 C 189.785156 59.773438 186.417969 59.429688 183.039062 59.214844 C 179.660156 59 176.277344 58.910156 172.890625 58.945312 C 169.503906 58.980469 166.121094 59.144531 162.746094 59.429688 C 159.375 59.71875 156.015625 60.128906 152.671875 60.667969 C 149.328125 61.203125 146.007812 61.863281 142.714844 62.648438 C 139.417969 63.433594 136.15625 64.335938 132.929688 65.363281 C 129.703125 66.390625 126.519531 67.535156 123.375 68.796875 C 120.234375 70.058594 117.140625 71.4375 114.101562 72.929688 C 111.0625 74.421875 108.082031 76.027344 105.160156 77.742188 C 102.242188 79.457031 99.386719 81.277344 96.601562 83.203125 C 93.816406 85.128906 91.105469 87.15625 88.472656 89.285156 C 85.835938 91.410156 83.285156 93.632812 80.816406 95.953125 C 78.347656 98.269531 75.964844 100.675781 73.675781 103.167969 C 71.386719 105.664062 69.191406 108.242188 67.089844 110.898438 C 64.992188 113.554688 62.996094 116.289062 61.097656 119.09375 C 59.203125 121.898438 57.414062 124.773438 55.730469 127.710938 C 54.050781 130.652344 52.476562 133.648438 51.019531 136.703125 C 49.558594 139.761719 48.214844 142.867188 46.984375 146.023438 C 45.757812 149.179688 44.648438 152.375 43.65625 155.613281 C 42.664062 158.851562 41.796875 162.121094 41.046875 165.425781 C 40.300781 168.730469 39.675781 172.054688 39.175781 175.40625 C 38.675781 178.753906 38.300781 182.117188 38.050781 185.496094 C 37.796875 188.871094 37.675781 192.253906 37.675781 195.640625 C 37.675781 200.945312 37.984375 206.234375 38.59375 211.507812 C 38.710938 212.507812 38.601562 213.488281 38.269531 214.441406 C 37.9375 215.390625 37.417969 216.226562 36.703125 216.941406 L 26.632812 227.011719 C 26.425781 227.210938 26.238281 227.429688 26.074219 227.664062 C 25.910156 227.898438 25.769531 228.148438 25.652344 228.410156 C 25.535156 228.671875 25.441406 228.945312 25.378906 229.226562 C 25.3125 229.503906 25.273438 229.789062 25.265625 230.074219 C 25.253906 230.363281 25.269531 230.648438 25.316406 230.933594 C 25.359375 231.21875 25.433594 231.492188 25.53125 231.765625 C 25.628906 232.035156 25.75 232.292969 25.898438 232.539062 C 26.046875 232.785156 26.21875 233.015625 26.410156 233.230469 C 26.609375 233.441406 26.828125 233.628906 27.0625 233.792969 C 27.300781 233.960938 27.550781 234.101562 27.816406 234.21875 C 28.082031 234.335938 28.355469 234.425781 28.636719 234.488281 C 28.921875 234.546875 29.207031 234.582031 29.496094 234.585938 C 29.785156 234.589844 30.074219 234.566406 30.359375 234.515625 C 30.644531 234.460938 30.917969 234.382812 31.1875 234.273438 C 31.457031 234.164062 31.710938 234.03125 31.953125 233.871094 C 32.195312 233.714844 32.421875 233.53125 32.625 233.328125 L 37.066406 228.890625 C 37.441406 228.515625 37.886719 228.257812 38.402344 228.121094 C 38.917969 227.984375 39.429688 227.988281 39.945312 228.128906 C 40.457031 228.269531 40.902344 228.527344 41.277344 228.90625 C 41.652344 229.285156 41.90625 229.730469 42.039062 230.246094 C 42.175781 230.761719 42.175781 231.277344 42.035156 231.792969 C 41.894531 232.308594 41.636719 232.753906 41.257812 233.128906 L 21.335938 253.136719 C 21.066406 253.402344 20.824219 253.6875 20.609375 253.996094 C 20.394531 254.304688 20.207031 254.632812 20.050781 254.976562 C 19.898438 255.320312 19.777344 255.671875 19.6875 256.039062 C 19.601562 256.40625 19.546875 256.777344 19.527344 257.152344 C 19.507812 257.53125 19.523438 257.90625 19.574219 258.277344 C 19.628906 258.652344 19.710938 259.015625 19.832031 259.375 C 19.953125 259.730469 20.105469 260.074219 20.289062 260.402344 C 20.472656 260.734375 20.683594 261.042969 20.925781 261.332031 C 21.191406 261.636719 21.488281 261.910156 21.808594 262.152344 C 22.132812 262.394531 22.476562 262.605469 22.839844 262.777344 C 23.207031 262.949219 23.585938 263.085938 23.976562 263.179688 C 24.371094 263.273438 24.769531 263.328125 25.171875 263.34375 C 25.574219 263.355469 25.976562 263.328125 26.375 263.257812 C 26.773438 263.191406 27.160156 263.082031 27.535156 262.933594 C 27.914062 262.785156 28.269531 262.601562 28.605469 262.378906 C 28.945312 262.15625 29.257812 261.902344 29.542969 261.617188 L 58.898438 232.261719 C 58.117188 229.816406 57.414062 227.351562 56.789062 224.863281 C 56.164062 222.378906 55.621094 219.871094 55.152344 217.351562 C 54.6875 214.828125 54.300781 212.292969 53.996094 209.75 C 53.6875 207.203125 53.464844 204.648438 53.320312 202.085938 C 53.175781 199.527344 53.113281 196.964844 53.132812 194.398438 C 53.148438 191.835938 53.25 189.273438 53.429688 186.714844 C 53.609375 184.15625 53.871094 181.605469 54.214844 179.066406 C 54.554688 176.523438 54.976562 173.996094 55.480469 171.480469 C 55.984375 168.964844 56.5625 166.46875 57.226562 163.988281 C 57.886719 161.511719 58.625 159.058594 59.441406 156.625 C 60.253906 154.195312 61.148438 151.792969 62.117188 149.417969 C 63.085938 147.042969 64.128906 144.699219 65.242188 142.390625 C 66.359375 140.082031 67.550781 137.8125 68.808594 135.578125 C 70.070312 133.34375 71.402344 131.152344 72.800781 129.003906 C 74.199219 126.855469 75.664062 124.75 77.199219 122.695312 C 78.730469 120.640625 80.328125 118.632812 81.988281 116.679688 C 83.648438 114.722656 85.367188 112.820312 87.148438 110.976562 C 88.925781 109.128906 90.765625 107.339844 92.65625 105.613281 C 94.550781 103.882812 96.496094 102.214844 98.496094 100.605469 C 100.496094 99 102.542969 97.460938 104.640625 95.980469 C 106.738281 94.503906 108.878906 93.097656 111.066406 91.753906 C 113.25 90.414062 115.476562 89.144531 117.746094 87.945312 C 120.011719 86.742188 122.3125 85.617188 124.652344 84.5625 C 126.988281 83.507812 129.359375 82.53125 131.757812 81.625 C 134.160156 80.722656 136.585938 79.894531 139.039062 79.144531 C 141.492188 78.394531 143.964844 77.722656 146.460938 77.128906 C 148.953125 76.535156 151.464844 76.019531 153.992188 75.585938 C 156.519531 75.152344 159.058594 74.796875 161.609375 74.523438 C 164.160156 74.25 166.714844 74.058594 169.277344 73.945312 C 171.839844 73.835938 174.402344 73.804688 176.96875 73.855469 C 179.53125 73.90625 182.09375 74.039062 184.648438 74.25 C 187.203125 74.464844 189.75 74.757812 192.289062 75.132812 C 194.824219 75.507812 197.347656 75.960938 199.855469 76.496094 C 202.363281 77.03125 204.855469 77.644531 207.324219 78.335938 C 209.792969 79.027344 212.238281 79.796875 214.660156 80.644531 C 217.078125 81.488281 219.472656 82.414062 221.832031 83.410156 C 224.195312 84.410156 226.523438 85.480469 228.820312 86.628906 C 231.113281 87.773438 233.371094 88.992188 235.585938 90.28125 C 237.804688 91.570312 239.976562 92.925781 242.109375 94.351562 C 244.242188 95.78125 246.324219 97.273438 248.363281 98.832031 C 250.398438 100.390625 252.382812 102.011719 254.316406 103.695312 C 256.25 105.378906 258.128906 107.125 259.953125 108.925781 C 261.777344 110.730469 263.542969 112.589844 265.246094 114.503906 C 266.953125 116.421875 268.597656 118.386719 270.179688 120.40625 C 271.757812 122.425781 273.273438 124.496094 274.722656 126.609375 C 276.175781 128.726562 277.554688 130.882812 278.871094 133.085938 C 280.183594 135.289062 281.425781 137.53125 282.597656 139.816406 C 283.765625 142.097656 284.863281 144.414062 285.890625 146.765625 C 286.914062 149.113281 287.863281 151.496094 288.734375 153.90625 C 289.609375 156.320312 290.40625 158.753906 291.125 161.21875 C 291.84375 163.679688 292.484375 166.160156 293.046875 168.664062 C 293.609375 171.167969 294.089844 173.683594 294.492188 176.21875 C 294.894531 178.75 295.214844 181.292969 295.457031 183.847656 C 295.699219 186.398438 295.859375 188.957031 295.9375 191.523438 C 296.015625 194.085938 296.015625 196.648438 295.929688 199.210938 C 295.847656 201.773438 295.683594 204.332031 295.4375 206.886719 C 295.191406 209.4375 294.867188 211.980469 294.460938 214.515625 C 294.054688 217.046875 293.566406 219.5625 293 222.066406 C 292.4375 224.566406 291.792969 227.046875 291.066406 229.507812 C 290.34375 231.96875 289.542969 234.402344 288.667969 236.8125 C 287.789062 239.222656 286.835938 241.601562 285.808594 243.953125 C 284.78125 246.300781 283.679688 248.617188 282.503906 250.898438 C 281.328125 253.175781 280.082031 255.417969 278.765625 257.617188 C 277.449219 259.820312 276.0625 261.976562 274.609375 264.089844 C 273.15625 266.203125 271.636719 268.265625 270.054688 270.28125 C 268.46875 272.300781 266.824219 274.265625 265.113281 276.175781 C 263.40625 278.089844 261.636719 279.945312 259.808594 281.746094 C 257.984375 283.546875 256.101562 285.289062 254.164062 286.96875 C 252.230469 288.648438 250.242188 290.269531 248.203125 291.824219 C 246.164062 293.378906 244.074219 294.867188 241.941406 296.292969 C 239.808594 297.714844 237.632812 299.070312 235.414062 300.355469 C 233.191406 301.640625 230.933594 302.851562 228.636719 303.996094 C 226.34375 305.136719 224.011719 306.203125 221.648438 307.199219 C 219.285156 308.195312 216.890625 309.113281 214.46875 309.957031 C 212.046875 310.796875 209.601562 311.5625 207.128906 312.25 C 204.660156 312.9375 202.167969 313.546875 199.660156 314.078125 C 197.148438 314.609375 194.625 315.058594 192.089844 315.429688 C 189.550781 315.796875 187.003906 316.089844 184.445312 316.296875 C 181.890625 316.503906 179.332031 316.632812 176.765625 316.679688 C 174.203125 316.726562 171.640625 316.691406 169.078125 316.574219 C 166.515625 316.460938 163.957031 316.261719 161.410156 315.984375 C 158.859375 315.707031 156.320312 315.347656 153.792969 314.910156 C 151.265625 314.472656 148.757812 313.953125 146.261719 313.355469 C 143.769531 312.757812 141.296875 312.082031 138.84375 311.328125 C 136.394531 310.574219 133.96875 309.742188 131.570312 308.835938 C 129.171875 307.925781 126.804688 306.945312 124.46875 305.886719 C 122.132812 304.828125 119.832031 303.695312 117.566406 302.492188 C 115.300781 301.289062 113.078125 300.015625 110.894531 298.671875 C 108.710938 297.324219 106.570312 295.914062 104.476562 294.433594 C 102.382812 292.953125 100.335938 291.40625 98.339844 289.796875 C 96.34375 288.1875 94.398438 286.515625 92.507812 284.785156 C 90.617188 283.050781 88.785156 281.261719 87.007812 279.410156 C 85.230469 277.5625 83.511719 275.65625 81.855469 273.699219 C 80.199219 271.742188 78.605469 269.734375 77.078125 267.675781 C 75.546875 265.617188 74.085938 263.511719 72.691406 261.359375 C 71.292969 259.207031 69.96875 257.015625 68.710938 254.777344 L 41.417969 282.132812 C 39.042969 284.507812 38.195312 288.738281 41.316406 291.335938 C 41.617188 291.632812 41.941406 291.902344 42.292969 292.136719 C 42.644531 292.371094 43.015625 292.566406 43.40625 292.730469 C 43.796875 292.890625 44.199219 293.011719 44.613281 293.09375 C 45.027344 293.175781 45.445312 293.21875 45.867188 293.21875 C 46.292969 293.21875 46.710938 293.175781 47.125 293.09375 C 47.539062 293.011719 47.941406 292.890625 48.332031 292.730469 C 48.722656 292.566406 49.09375 292.371094 49.445312 292.136719 C 49.796875 291.902344 50.121094 291.632812 50.421875 291.335938 C 50.636719 291.121094 50.882812 290.960938 51.164062 290.84375 C 51.441406 290.730469 51.734375 290.671875 52.035156 290.671875 C 52.339844 290.671875 52.628906 290.730469 52.910156 290.84375 C 53.191406 290.960938 53.4375 291.121094 53.652344 291.335938 C 53.875 291.5625 54.070312 291.804688 54.246094 292.070312 C 54.417969 292.335938 54.566406 292.613281 54.683594 292.90625 C 54.804688 293.199219 54.894531 293.5 54.957031 293.808594 C 55.015625 294.121094 55.046875 294.433594 55.046875 294.75 C 55.046875 295.066406 55.015625 295.378906 54.957031 295.6875 C 54.894531 296 54.804688 296.300781 54.683594 296.59375 C 54.566406 296.886719 54.417969 297.164062 54.246094 297.425781 C 54.070312 297.691406 53.875 297.9375 53.652344 298.160156 L 39.464844 312.289062 C 37.164062 314.601562 36.308594 318.890625 39.292969 321.316406 C 39.582031 321.605469 39.894531 321.867188 40.234375 322.09375 C 40.574219 322.324219 40.9375 322.519531 41.316406 322.675781 C 41.691406 322.832031 42.082031 322.953125 42.484375 323.03125 C 42.890625 323.113281 43.296875 323.152344 43.707031 323.152344 C 44.117188 323.152344 44.523438 323.113281 44.925781 323.03125 C 45.328125 322.953125 45.71875 322.832031 46.097656 322.675781 C 46.476562 322.519531 46.835938 322.324219 47.175781 322.09375 C 47.515625 321.867188 47.832031 321.605469 48.121094 321.316406 L 50.605469 318.828125 C 50.933594 318.488281 51.308594 318.222656 51.734375 318.023438 C 52.160156 317.824219 52.605469 317.707031 53.074219 317.675781 C 53.542969 317.640625 54 317.695312 54.449219 317.832031 C 54.898438 317.964844 55.308594 318.179688 55.679688 318.46875 C 55.875 318.632812 56.054688 318.816406 56.214844 319.019531 C 56.371094 319.222656 56.507812 319.4375 56.625 319.667969 C 56.738281 319.898438 56.828125 320.136719 56.890625 320.386719 C 56.957031 320.636719 56.996094 320.890625 57.007812 321.144531 C 57.019531 321.402344 57.003906 321.65625 56.964844 321.910156 C 56.921875 322.164062 56.855469 322.414062 56.765625 322.652344 C 56.675781 322.894531 56.558594 323.121094 56.417969 323.339844 C 56.28125 323.554688 56.121094 323.753906 55.941406 323.9375 L 35.335938 344.542969 C 35.082031 344.792969 34.851562 345.0625 34.644531 345.355469 C 34.441406 345.648438 34.265625 345.957031 34.117188 346.28125 C 33.972656 346.605469 33.855469 346.941406 33.773438 347.289062 C 33.6875 347.636719 33.636719 347.988281 33.621094 348.347656 C 33.601562 348.703125 33.617188 349.058594 33.667969 349.410156 C 33.714844 349.765625 33.796875 350.109375 33.910156 350.449219 C 34.027344 350.789062 34.171875 351.113281 34.34375 351.425781 C 34.519531 351.734375 34.722656 352.027344 34.953125 352.300781 C 35.203125 352.589844 35.484375 352.847656 35.789062 353.078125 C 36.09375 353.308594 36.417969 353.503906 36.765625 353.667969 C 37.109375 353.832031 37.46875 353.960938 37.839844 354.050781 C 38.210938 354.140625 38.589844 354.191406 38.972656 354.203125 C 39.351562 354.214844 39.734375 354.191406 40.109375 354.125 C 40.488281 354.0625 40.851562 353.957031 41.207031 353.816406 C 41.5625 353.679688 41.902344 353.503906 42.222656 353.292969 C 42.542969 353.085938 42.835938 352.84375 43.109375 352.574219 L 74.46875 321.226562 C 74.789062 320.882812 75.164062 320.609375 75.585938 320.410156 C 76.011719 320.207031 76.457031 320.089844 76.925781 320.054688 C 77.398438 320.019531 77.855469 320.074219 78.304688 320.214844 C 78.753906 320.355469 79.160156 320.574219 79.527344 320.867188 C 79.726562 321.03125 79.90625 321.214844 80.0625 321.417969 C 80.222656 321.621094 80.359375 321.835938 80.476562 322.066406 C 80.589844 322.296875 80.679688 322.535156 80.746094 322.785156 C 80.808594 323.03125 80.847656 323.285156 80.863281 323.542969 C 80.875 323.800781 80.859375 324.054688 80.820312 324.308594 C 80.78125 324.5625 80.714844 324.8125 80.625 325.050781 C 80.535156 325.292969 80.417969 325.519531 80.28125 325.738281 C 80.140625 325.953125 79.980469 326.15625 79.800781 326.339844 L 70.203125 335.925781 C 69.960938 336.160156 69.742188 336.417969 69.550781 336.695312 C 69.355469 336.972656 69.1875 337.269531 69.050781 337.578125 C 68.910156 337.886719 68.800781 338.203125 68.722656 338.535156 C 68.644531 338.863281 68.597656 339.195312 68.578125 339.535156 C 68.5625 339.875 68.578125 340.210938 68.625 340.546875 C 68.671875 340.878906 68.75 341.210938 68.855469 341.53125 C 68.964844 341.851562 69.101562 342.160156 69.265625 342.453125 C 69.433594 342.75 69.625 343.027344 69.84375 343.285156 C 70.082031 343.558594 70.34375 343.804688 70.632812 344.023438 C 70.921875 344.242188 71.230469 344.429688 71.558594 344.585938 C 71.886719 344.742188 72.226562 344.863281 72.582031 344.949219 C 72.933594 345.035156 73.289062 345.082031 73.652344 345.09375 C 74.015625 345.109375 74.375 345.082031 74.734375 345.019531 C 75.089844 344.960938 75.4375 344.863281 75.777344 344.730469 C 76.113281 344.59375 76.433594 344.429688 76.738281 344.230469 C 77.039062 344.03125 77.320312 343.804688 77.578125 343.546875 L 105.019531 316.105469 C 105.261719 315.867188 105.53125 315.671875 105.835938 315.519531 C 106.140625 315.367188 106.457031 315.265625 106.792969 315.214844 C 107.128906 315.167969 107.464844 315.171875 107.800781 315.230469 C 108.132812 315.289062 108.449219 315.398438 108.75 315.558594 C 108.960938 315.675781 109.15625 315.816406 109.335938 315.980469 C 109.515625 316.144531 109.671875 316.328125 109.8125 316.527344 C 109.949219 316.726562 110.0625 316.941406 110.148438 317.167969 C 110.238281 317.394531 110.300781 317.625 110.335938 317.867188 C 110.371094 318.105469 110.375 318.347656 110.355469 318.589844 C 110.335938 318.832031 110.289062 319.070312 110.210938 319.300781 C 110.136719 319.53125 110.039062 319.75 109.914062 319.957031 C 109.789062 320.167969 109.640625 320.355469 109.472656 320.53125 L 107.21875 322.769531 C 106.882812 323.101562 106.578125 323.460938 106.308594 323.851562 C 106.039062 324.242188 105.808594 324.652344 105.617188 325.089844 C 105.429688 325.523438 105.285156 325.972656 105.179688 326.433594 C 105.078125 326.898438 105.019531 327.367188 105.007812 327.839844 C 104.996094 328.3125 105.03125 328.785156 105.109375 329.25 C 105.1875 329.71875 105.3125 330.175781 105.476562 330.617188 C 105.644531 331.0625 105.851562 331.484375 106.101562 331.886719 C 106.351562 332.292969 106.636719 332.667969 106.957031 333.015625 C 107.289062 333.359375 107.652344 333.667969 108.046875 333.941406 C 108.4375 334.214844 108.855469 334.445312 109.292969 334.636719 C 109.734375 334.824219 110.1875 334.96875 110.652344 335.070312 C 111.121094 335.167969 111.59375 335.21875 112.074219 335.222656 C 112.550781 335.230469 113.027344 335.1875 113.496094 335.097656 C 113.964844 335.007812 114.421875 334.871094 114.863281 334.6875 C 115.308594 334.507812 115.726562 334.285156 116.125 334.019531 C 116.523438 333.753906 116.890625 333.453125 117.230469 333.113281 L 125.933594 324.410156 C 126.140625 324.207031 126.386719 324.070312 126.671875 324.007812 C 126.957031 323.945312 127.238281 323.964844 127.511719 324.0625 C 127.632812 324.105469 127.746094 324.160156 127.855469 324.230469 C 127.960938 324.300781 128.054688 324.386719 128.140625 324.480469 C 128.226562 324.578125 128.296875 324.679688 128.355469 324.792969 C 128.414062 324.910156 128.457031 325.027344 128.484375 325.152344 C 128.511719 325.277344 128.523438 325.402344 128.515625 325.53125 C 128.511719 325.660156 128.492188 325.785156 128.453125 325.90625 C 128.417969 326.027344 128.367188 326.144531 128.296875 326.253906 C 128.230469 326.363281 128.152344 326.460938 128.058594 326.550781 L 124.988281 329.621094 C 124.804688 329.832031 124.648438 330.0625 124.507812 330.304688 C 124.371094 330.546875 124.257812 330.800781 124.171875 331.066406 C 124.082031 331.332031 124.019531 331.605469 123.988281 331.882812 C 123.953125 332.160156 123.945312 332.4375 123.964844 332.714844 C 123.984375 332.996094 124.03125 333.269531 124.101562 333.539062 C 124.175781 333.808594 124.273438 334.070312 124.398438 334.320312 C 124.523438 334.570312 124.671875 334.808594 124.839844 335.03125 C 125.011719 335.25 125.203125 335.453125 125.410156 335.640625 C 125.625 335.851562 125.855469 336.039062 126.105469 336.203125 C 126.351562 336.371094 126.617188 336.511719 126.894531 336.625 C 127.167969 336.738281 127.453125 336.824219 127.75 336.882812 C 128.042969 336.941406 128.339844 336.96875 128.636719 336.96875 C 128.9375 336.96875 129.234375 336.941406 129.527344 336.882812 C 129.820312 336.824219 130.105469 336.738281 130.382812 336.625 C 130.660156 336.511719 130.921875 336.371094 131.171875 336.203125 C 131.421875 336.039062 131.652344 335.851562 131.863281 335.640625 L 137.410156 330.09375 C 138.097656 329.402344 138.910156 328.925781 139.84375 328.65625 C 140.78125 328.386719 141.722656 328.367188 142.671875 328.589844 C 145.441406 329.242188 148.230469 329.808594 151.039062 330.285156 C 153.847656 330.765625 156.667969 331.15625 159.496094 331.457031 C 162.328125 331.761719 165.167969 331.976562 168.011719 332.101562 C 170.859375 332.226562 173.703125 332.261719 176.550781 332.210938 C 179.398438 332.160156 182.242188 332.019531 185.082031 331.789062 C 187.917969 331.5625 190.746094 331.246094 193.566406 330.839844 C 196.386719 330.433594 199.1875 329.941406 201.976562 329.359375 C 204.765625 328.78125 207.53125 328.113281 210.277344 327.363281 C 213.027344 326.609375 215.746094 325.769531 218.441406 324.847656 C 221.132812 323.925781 223.796875 322.921875 226.429688 321.832031 C 229.0625 320.742188 231.65625 319.574219 234.214844 318.324219 C 236.773438 317.074219 239.289062 315.746094 241.765625 314.339844 C 244.242188 312.929688 246.671875 311.449219 249.054688 309.890625 C 251.4375 308.332031 253.769531 306.699219 256.050781 304.996094 C 258.332031 303.289062 260.558594 301.515625 262.730469 299.671875 C 264.902344 297.832031 267.011719 295.921875 269.066406 293.945312 C 270.671875 292.398438 272.238281 290.808594 273.769531 289.183594 C 275.296875 287.558594 276.785156 285.894531 278.230469 284.195312 C 279.679688 282.496094 281.082031 280.765625 282.445312 278.996094 C 283.808594 277.230469 285.125 275.429688 286.398438 273.597656 C 287.671875 271.765625 288.902344 269.902344 290.085938 268.011719 C 291.265625 266.117188 292.402344 264.195312 293.492188 262.25 C 294.582031 260.300781 295.621094 258.328125 296.613281 256.328125 C 297.605469 254.328125 298.546875 252.308594 299.441406 250.261719 C 300.332031 248.21875 301.175781 246.152344 301.96875 244.066406 C 302.757812 241.976562 303.5 239.875 304.1875 237.75 C 304.875 235.628906 305.511719 233.488281 306.097656 231.335938 C 306.679688 229.183594 307.210938 227.015625 307.6875 224.835938 C 308.167969 222.65625 308.589844 220.464844 308.960938 218.265625 C 309.332031 216.0625 309.648438 213.855469 309.910156 211.636719 C 310.171875 209.421875 310.378906 207.199219 310.53125 204.976562 C 310.6875 202.75 310.785156 200.519531 310.828125 198.289062 C 310.875 196.058594 310.863281 193.828125 310.796875 191.59375 C 310.730469 189.363281 310.613281 187.136719 310.4375 184.914062 C 310.265625 182.6875 310.035156 180.46875 309.753906 178.253906 C 309.46875 176.039062 309.132812 173.835938 308.742188 171.636719 C 308.351562 169.441406 307.90625 167.253906 307.40625 165.078125 C 306.910156 162.90625 306.359375 160.742188 305.753906 158.59375 C 305.148438 156.445312 304.492188 154.3125 303.785156 152.199219 C 303.078125 150.082031 302.316406 147.984375 301.503906 145.90625 C 300.695312 143.824219 299.832031 141.769531 298.921875 139.730469 C 298.007812 137.695312 297.046875 135.679688 296.035156 133.691406 C 295.023438 131.703125 293.964844 129.738281 292.859375 127.800781 C 291.753906 125.863281 290.597656 123.953125 289.398438 122.070312 C 288.199219 120.191406 286.953125 118.339844 285.660156 116.519531 C 284.371094 114.699219 283.035156 112.914062 281.65625 111.15625 C 280.277344 109.402344 278.855469 107.683594 277.394531 105.996094 C 275.929688 104.3125 274.425781 102.664062 272.882812 101.050781 Z M 60.578125 286.101562 C 60.25 285.769531 60 285.390625 59.820312 284.957031 C 59.644531 284.527344 59.554688 284.078125 59.554688 283.613281 C 59.554688 283.148438 59.644531 282.699219 59.820312 282.269531 C 60 281.839844 60.25 281.457031 60.578125 281.125 L 64.058594 277.644531 C 64.234375 277.46875 64.429688 277.316406 64.636719 277.179688 C 64.84375 277.046875 65.066406 276.933594 65.296875 276.847656 C 65.53125 276.757812 65.769531 276.695312 66.015625 276.65625 C 66.257812 276.621094 66.507812 276.609375 66.753906 276.625 C 67 276.636719 67.246094 276.679688 67.484375 276.746094 C 67.722656 276.8125 67.953125 276.902344 68.171875 277.015625 C 68.394531 277.132812 68.597656 277.269531 68.789062 277.425781 C 68.980469 277.585938 69.152344 277.761719 69.308594 277.957031 L 69.308594 278.019531 C 69.574219 278.355469 69.777344 278.730469 69.90625 279.140625 C 70.039062 279.550781 70.089844 279.96875 70.066406 280.398438 C 70.042969 280.828125 69.941406 281.242188 69.765625 281.632812 C 69.589844 282.027344 69.351562 282.375 69.046875 282.679688 L 65.578125 286.148438 C 65.246094 286.480469 64.867188 286.734375 64.4375 286.914062 C 64.003906 287.089844 63.558594 287.179688 63.089844 287.179688 C 62.625 287.179688 62.175781 287.089844 61.746094 286.914062 C 61.3125 286.734375 60.933594 286.480469 60.605469 286.148438 Z M 78.882812 301.023438 L 67.292969 312.523438 C 66.945312 312.863281 66.546875 313.125 66.09375 313.308594 C 65.644531 313.492188 65.175781 313.582031 64.6875 313.582031 C 64.203125 313.582031 63.734375 313.492188 63.28125 313.308594 C 62.832031 313.125 62.433594 312.863281 62.082031 312.523438 C 61.742188 312.175781 61.480469 311.773438 61.292969 311.324219 C 61.109375 310.871094 61.015625 310.402344 61.015625 309.914062 C 61.015625 309.425781 61.109375 308.953125 61.292969 308.503906 C 61.480469 308.050781 61.742188 307.648438 62.082031 307.300781 L 73.671875 295.710938 C 74.03125 295.449219 74.425781 295.253906 74.855469 295.132812 C 75.285156 295.007812 75.722656 294.964844 76.167969 294.996094 C 76.613281 295.03125 77.035156 295.140625 77.441406 295.328125 C 77.847656 295.515625 78.207031 295.765625 78.523438 296.082031 C 78.839844 296.398438 79.089844 296.757812 79.273438 297.164062 C 79.460938 297.570312 79.570312 297.996094 79.601562 298.441406 C 79.636719 298.886719 79.589844 299.324219 79.464844 299.753906 C 79.34375 300.183594 79.148438 300.574219 78.882812 300.933594 Z M 94.425781 311.726562 L 91.082031 315.011719 C 90.738281 315.355469 90.34375 315.617188 89.894531 315.804688 C 89.445312 315.988281 88.980469 316.082031 88.492188 316.082031 C 88.007812 316.082031 87.542969 315.988281 87.09375 315.804688 C 86.644531 315.617188 86.25 315.355469 85.90625 315.011719 C 85.5625 314.667969 85.300781 314.273438 85.113281 313.824219 C 84.929688 313.375 84.835938 312.910156 84.835938 312.425781 C 84.835938 311.9375 84.929688 311.472656 85.113281 311.023438 C 85.300781 310.574219 85.5625 310.179688 85.90625 309.835938 L 89.253906 306.503906 C 89.558594 306.195312 89.90625 305.949219 90.300781 305.765625 C 90.695312 305.582031 91.113281 305.472656 91.546875 305.4375 C 91.980469 305.402344 92.40625 305.445312 92.824219 305.566406 C 93.242188 305.683594 93.628906 305.875 93.976562 306.132812 C 94.191406 306.289062 94.390625 306.464844 94.566406 306.660156 C 94.742188 306.859375 94.898438 307.074219 95.027344 307.304688 C 95.15625 307.535156 95.261719 307.777344 95.339844 308.03125 C 95.417969 308.285156 95.46875 308.542969 95.488281 308.808594 C 95.507812 309.070312 95.503906 309.335938 95.464844 309.597656 C 95.429688 309.863281 95.367188 310.117188 95.273438 310.367188 C 95.183594 310.613281 95.066406 310.851562 94.921875 311.074219 C 94.777344 311.296875 94.613281 311.503906 94.425781 311.691406 Z M 94.425781 311.726562 " fill-opacity="1" fill-rule="nonzero"/><path fill="#602d91" d="M 58.8125 347.339844 L 54.101562 352.066406 C 53.855469 352.308594 53.640625 352.578125 53.449219 352.867188 C 53.257812 353.152344 53.09375 353.457031 52.964844 353.777344 C 52.832031 354.097656 52.730469 354.425781 52.664062 354.765625 C 52.597656 355.105469 52.5625 355.449219 52.5625 355.796875 C 52.5625 356.140625 52.597656 356.484375 52.664062 356.824219 C 52.730469 357.164062 52.832031 357.492188 52.964844 357.8125 C 53.09375 358.132812 53.257812 358.4375 53.449219 358.722656 C 53.640625 359.011719 53.855469 359.28125 54.101562 359.527344 C 54.347656 359.769531 54.613281 359.988281 54.902344 360.179688 C 55.191406 360.371094 55.492188 360.53125 55.8125 360.664062 C 56.132812 360.792969 56.464844 360.894531 56.804688 360.960938 C 57.140625 361.027344 57.484375 361.0625 57.832031 361.0625 C 58.175781 361.0625 58.519531 361.027344 58.859375 360.960938 C 59.199219 360.894531 59.527344 360.792969 59.847656 360.664062 C 60.167969 360.53125 60.472656 360.371094 60.761719 360.179688 C 61.046875 359.988281 61.316406 359.769531 61.5625 359.527344 L 66.285156 354.800781 C 66.570312 354.566406 66.824219 354.300781 67.050781 354.011719 C 67.28125 353.726562 67.476562 353.414062 67.640625 353.085938 C 67.800781 352.757812 67.929688 352.414062 68.023438 352.058594 C 68.113281 351.699219 68.167969 351.339844 68.183594 350.972656 C 68.203125 350.605469 68.179688 350.238281 68.121094 349.875 C 68.0625 349.511719 67.964844 349.160156 67.832031 348.816406 C 67.699219 348.472656 67.53125 348.148438 67.332031 347.839844 C 67.128906 347.53125 66.898438 347.246094 66.640625 346.988281 C 66.378906 346.726562 66.09375 346.496094 65.785156 346.296875 C 65.476562 346.09375 65.152344 345.925781 64.808594 345.792969 C 64.464844 345.660156 64.113281 345.566406 63.75 345.503906 C 63.386719 345.445312 63.023438 345.425781 62.65625 345.441406 C 62.285156 345.457031 61.925781 345.511719 61.570312 345.605469 C 61.210938 345.695312 60.871094 345.824219 60.539062 345.988281 C 60.210938 346.148438 59.902344 346.347656 59.613281 346.574219 C 59.324219 346.800781 59.0625 347.058594 58.824219 347.339844 Z M 58.8125 347.339844 " fill-opacity="1" fill-rule="nonzero"/><g clip-path="url(#420c55409f)"><path fill="#602d91" d="M 28.484375 359.289062 C 28.226562 359.03125 27.945312 358.800781 27.640625 358.597656 C 27.332031 358.394531 27.011719 358.222656 26.671875 358.082031 C 26.335938 357.941406 25.984375 357.835938 25.625 357.765625 C 25.265625 357.695312 24.902344 357.660156 24.539062 357.660156 C 24.171875 357.660156 23.808594 357.695312 23.449219 357.765625 C 23.089844 357.835938 22.742188 357.941406 22.402344 358.082031 C 22.0625 358.222656 21.742188 358.394531 21.4375 358.597656 C 21.132812 358.800781 20.851562 359.03125 20.589844 359.289062 L 17.855469 362.023438 C 17.597656 362.285156 17.367188 362.566406 17.164062 362.871094 C 16.960938 363.175781 16.789062 363.496094 16.648438 363.835938 C 16.511719 364.175781 16.40625 364.523438 16.332031 364.882812 C 16.261719 365.242188 16.226562 365.605469 16.226562 365.96875 C 16.226562 366.335938 16.265625 366.699219 16.335938 367.058594 C 16.40625 367.417969 16.515625 367.765625 16.652344 368.101562 C 16.792969 368.441406 16.964844 368.761719 17.167969 369.066406 C 17.375 369.371094 17.605469 369.652344 17.863281 369.910156 C 18.121094 370.171875 18.402344 370.402344 18.707031 370.605469 C 19.011719 370.808594 19.332031 370.980469 19.671875 371.121094 C 20.011719 371.261719 20.359375 371.367188 20.71875 371.4375 C 21.078125 371.511719 21.4375 371.546875 21.804688 371.546875 C 22.171875 371.546875 22.535156 371.511719 22.894531 371.441406 C 23.25 371.371094 23.601562 371.265625 23.9375 371.125 C 24.277344 370.984375 24.597656 370.816406 24.902344 370.613281 C 25.207031 370.410156 25.492188 370.179688 25.75 369.921875 L 28.484375 367.234375 C 28.746094 366.972656 28.976562 366.691406 29.179688 366.386719 C 29.382812 366.082031 29.554688 365.757812 29.691406 365.417969 C 29.832031 365.082031 29.9375 364.730469 30.011719 364.371094 C 30.082031 364.011719 30.117188 363.648438 30.117188 363.28125 C 30.117188 362.914062 30.082031 362.550781 30.011719 362.191406 C 29.9375 361.832031 29.832031 361.480469 29.691406 361.140625 C 29.554688 360.804688 29.382812 360.480469 29.179688 360.175781 C 28.976562 359.871094 28.746094 359.585938 28.484375 359.328125 Z M 28.484375 359.289062 " fill-opacity="1" fill-rule="nonzero"/></g><path fill="#51a1d2" d="M 266.554688 31.507812 L 255.125 42.933594 C 254.8125 43.25 254.445312 43.492188 254.035156 43.664062 C 253.621094 43.835938 253.191406 43.921875 252.746094 43.921875 C 252.296875 43.921875 251.867188 43.835938 251.453125 43.667969 C 251.042969 43.496094 250.675781 43.253906 250.359375 42.9375 C 250.042969 42.621094 249.800781 42.257812 249.628906 41.847656 C 249.457031 41.433594 249.371094 41.003906 249.371094 40.558594 C 249.371094 40.109375 249.453125 39.679688 249.625 39.265625 C 249.792969 38.855469 250.035156 38.488281 250.351562 38.171875 L 272.832031 15.691406 C 273.09375 15.441406 273.324219 15.167969 273.535156 14.875 C 273.742188 14.582031 273.917969 14.269531 274.070312 13.941406 C 274.21875 13.613281 274.335938 13.277344 274.417969 12.925781 C 274.503906 12.578125 274.554688 12.222656 274.574219 11.863281 C 274.589844 11.503906 274.574219 11.144531 274.523438 10.789062 C 274.476562 10.433594 274.390625 10.082031 274.277344 9.742188 C 274.160156 9.402344 274.011719 9.074219 273.835938 8.761719 C 273.65625 8.449219 273.453125 8.15625 273.21875 7.882812 C 272.964844 7.59375 272.6875 7.335938 272.382812 7.105469 C 272.078125 6.875 271.75 6.679688 271.40625 6.515625 C 271.058594 6.351562 270.703125 6.222656 270.332031 6.132812 C 269.957031 6.042969 269.582031 5.992188 269.199219 5.980469 C 268.816406 5.964844 268.4375 5.992188 268.0625 6.058594 C 267.683594 6.121094 267.316406 6.226562 266.960938 6.363281 C 266.605469 6.503906 266.269531 6.679688 265.949219 6.890625 C 265.628906 7.097656 265.332031 7.339844 265.0625 7.609375 L 226.664062 46.054688 C 226.375 46.347656 226.039062 46.574219 225.65625 46.730469 C 225.277344 46.890625 224.882812 46.96875 224.46875 46.96875 C 224.058594 46.96875 223.660156 46.890625 223.28125 46.730469 C 222.902344 46.574219 222.566406 46.347656 222.273438 46.054688 C 221.664062 45.453125 221.363281 44.722656 221.367188 43.867188 C 221.363281 43.007812 221.667969 42.273438 222.273438 41.667969 L 233.976562 29.953125 C 234.214844 29.722656 234.429688 29.472656 234.617188 29.199219 C 234.808594 28.929688 234.972656 28.640625 235.109375 28.339844 C 235.246094 28.039062 235.355469 27.726562 235.433594 27.402344 C 235.511719 27.082031 235.558594 26.753906 235.574219 26.425781 C 235.589844 26.09375 235.578125 25.761719 235.53125 25.433594 C 235.484375 25.105469 235.410156 24.785156 235.304688 24.472656 C 235.199219 24.15625 235.0625 23.855469 234.902344 23.566406 C 234.738281 23.277344 234.550781 23.007812 234.335938 22.753906 C 234.101562 22.488281 233.84375 22.246094 233.5625 22.03125 C 233.28125 21.816406 232.976562 21.632812 232.65625 21.484375 C 232.335938 21.332031 232.003906 21.210938 231.660156 21.128906 C 231.316406 21.046875 230.964844 20.996094 230.609375 20.984375 C 230.257812 20.972656 229.902344 21 229.554688 21.058594 C 229.203125 21.121094 228.867188 21.214844 228.535156 21.347656 C 228.207031 21.476562 227.894531 21.640625 227.597656 21.835938 C 227.300781 22.03125 227.027344 22.253906 226.777344 22.503906 L 193.402344 55.878906 C 192.835938 56.4375 192.15625 56.6875 191.363281 56.636719 L 191.277344 56.636719 C 190.761719 56.601562 190.300781 56.425781 189.886719 56.117188 C 189.472656 55.808594 189.175781 55.414062 188.996094 54.929688 C 188.816406 54.449219 188.78125 53.957031 188.890625 53.453125 C 188.996094 52.949219 189.234375 52.511719 189.597656 52.148438 L 189.921875 51.824219 C 190.242188 51.511719 190.53125 51.171875 190.789062 50.800781 C 191.042969 50.429688 191.261719 50.039062 191.441406 49.628906 C 191.621094 49.214844 191.761719 48.792969 191.859375 48.351562 C 191.957031 47.914062 192.011719 47.46875 192.023438 47.019531 C 192.035156 46.570312 192.003906 46.125 191.929688 45.679688 C 191.851562 45.238281 191.734375 44.804688 191.578125 44.386719 C 191.417969 43.964844 191.21875 43.5625 190.984375 43.179688 C 190.746094 42.800781 190.476562 42.441406 190.167969 42.113281 C 189.855469 41.789062 189.511719 41.496094 189.140625 41.238281 C 188.765625 40.980469 188.375 40.761719 187.957031 40.585938 C 187.542969 40.40625 187.113281 40.269531 186.667969 40.175781 C 186.226562 40.082031 185.777344 40.035156 185.324219 40.03125 C 184.875 40.027344 184.425781 40.066406 183.980469 40.152344 C 183.535156 40.238281 183.105469 40.367188 182.683594 40.539062 C 182.265625 40.707031 181.867188 40.917969 181.492188 41.171875 C 181.113281 41.421875 180.765625 41.707031 180.445312 42.027344 L 168.855469 53.617188 C 167.675781 54.789062 166.339844 55.75 164.851562 56.5 C 163.367188 57.25 161.800781 57.75 160.152344 58.003906 C 158.257812 58.316406 156.367188 58.664062 154.488281 59.054688 C 152.605469 59.441406 150.734375 59.871094 148.871094 60.339844 C 147.007812 60.808594 145.152344 61.316406 143.3125 61.863281 C 141.46875 62.40625 139.640625 62.992188 137.824219 63.617188 C 136.007812 64.238281 134.203125 64.902344 132.414062 65.601562 C 130.625 66.300781 128.851562 67.035156 127.089844 67.8125 C 125.332031 68.585938 123.59375 69.394531 121.867188 70.242188 C 120.144531 71.089844 118.4375 71.972656 116.75 72.894531 C 115.0625 73.8125 113.398438 74.765625 111.75 75.757812 C 110.105469 76.746094 108.480469 77.769531 106.875 78.828125 C 105.273438 79.886719 103.691406 80.976562 102.132812 82.101562 C 100.574219 83.226562 99.042969 84.382812 97.535156 85.574219 C 96.023438 86.761719 94.542969 87.984375 93.085938 89.234375 C 91.628906 90.488281 90.195312 91.769531 88.792969 93.082031 C 87.390625 94.394531 86.015625 95.734375 84.667969 97.105469 C 83.320312 98.472656 82.003906 99.871094 80.714844 101.296875 C 79.425781 102.722656 78.171875 104.175781 76.941406 105.652344 C 75.714844 107.132812 74.519531 108.636719 73.359375 110.164062 C 72.195312 111.695312 71.0625 113.246094 69.964844 114.824219 C 68.867188 116.398438 67.804688 118 66.773438 119.621094 C 65.742188 121.242188 64.746094 122.882812 63.785156 124.546875 C 62.824219 126.210938 61.898438 127.894531 61.007812 129.597656 C 60.117188 131.296875 59.261719 133.019531 58.445312 134.757812 C 57.625 136.496094 56.84375 138.25 56.101562 140.023438 C 55.355469 141.792969 54.652344 143.578125 53.980469 145.378906 C 53.3125 147.179688 52.683594 148.996094 52.089844 150.824219 C 51.496094 152.652344 50.945312 154.488281 50.429688 156.339844 C 49.914062 158.191406 49.4375 160.054688 49.003906 161.925781 C 48.566406 163.796875 48.167969 165.675781 47.8125 167.5625 C 47.453125 169.449219 47.136719 171.34375 46.859375 173.246094 C 46.582031 175.144531 46.347656 177.050781 46.148438 178.964844 C 45.953125 180.875 45.792969 182.789062 45.679688 184.707031 C 45.5625 186.625 45.484375 188.542969 45.449219 190.464844 C 45.414062 192.386719 45.421875 194.304688 45.464844 196.226562 C 45.511719 198.148438 45.597656 200.066406 45.722656 201.984375 C 45.847656 203.902344 46.015625 205.8125 46.222656 207.722656 C 46.429688 209.632812 46.675781 211.539062 46.964844 213.4375 C 47.25 215.339844 47.578125 217.230469 47.945312 219.117188 C 48.3125 221.003906 48.71875 222.878906 49.164062 224.75 C 49.609375 226.617188 50.097656 228.476562 50.621094 230.324219 C 51.144531 232.171875 51.707031 234.007812 52.308594 235.832031 C 52.910156 237.65625 53.550781 239.46875 54.230469 241.265625 C 54.90625 243.0625 55.621094 244.847656 56.375 246.613281 C 57.128906 248.382812 57.917969 250.132812 58.746094 251.867188 C 59.574219 253.601562 60.4375 255.316406 61.335938 257.015625 C 62.234375 258.710938 63.167969 260.390625 64.140625 262.046875 C 65.109375 263.707031 66.113281 265.34375 67.152344 266.960938 C 68.191406 268.578125 69.265625 270.167969 70.371094 271.742188 C 71.476562 273.3125 72.613281 274.859375 73.785156 276.382812 C 74.957031 277.902344 76.160156 279.402344 77.394531 280.875 C 78.628906 282.347656 79.894531 283.792969 81.1875 285.210938 C 82.484375 286.628906 83.808594 288.019531 85.164062 289.382812 C 86.515625 290.746094 87.898438 292.082031 89.308594 293.386719 C 90.71875 294.691406 92.15625 295.964844 93.621094 297.210938 C 95.085938 298.453125 96.574219 299.667969 98.089844 300.847656 C 99.601562 302.03125 101.144531 303.179688 102.707031 304.296875 C 104.269531 305.410156 105.855469 306.496094 107.464844 307.542969 C 109.074219 308.59375 110.703125 309.609375 112.355469 310.589844 C 114.007812 311.574219 115.679688 312.519531 117.371094 313.429688 C 119.0625 314.339844 120.773438 315.214844 122.5 316.054688 C 124.230469 316.890625 125.976562 317.691406 127.738281 318.457031 C 129.5 319.222656 131.277344 319.949219 133.070312 320.640625 C 134.863281 321.332031 136.671875 321.984375 138.492188 322.597656 C 140.3125 323.210938 142.144531 323.785156 143.988281 324.324219 C 144.125 324.363281 144.25 324.421875 144.371094 324.496094 C 144.492188 324.570312 144.597656 324.65625 144.695312 324.757812 C 144.792969 324.859375 144.875 324.972656 144.945312 325.09375 C 145.011719 325.21875 145.0625 325.347656 145.097656 325.484375 C 145.132812 325.621094 145.148438 325.761719 145.148438 325.902344 C 145.148438 326.042969 145.128906 326.179688 145.089844 326.316406 C 145.050781 326.453125 145 326.582031 144.925781 326.703125 C 144.855469 326.824219 144.773438 326.933594 144.671875 327.035156 L 142.71875 328.988281 C 142.394531 329.363281 142.152344 329.792969 142 330.265625 C 141.84375 330.742188 141.789062 331.226562 141.828125 331.726562 C 141.871094 332.222656 142.003906 332.695312 142.234375 333.136719 C 142.464844 333.582031 142.773438 333.964844 143.15625 334.285156 C 143.34375 334.472656 143.546875 334.640625 143.769531 334.789062 C 143.992188 334.9375 144.226562 335.0625 144.472656 335.167969 C 144.71875 335.269531 144.972656 335.347656 145.234375 335.398438 C 145.496094 335.449219 145.761719 335.476562 146.027344 335.476562 C 146.292969 335.476562 146.558594 335.449219 146.820312 335.398438 C 147.082031 335.347656 147.335938 335.269531 147.582031 335.167969 C 147.828125 335.0625 148.0625 334.9375 148.285156 334.789062 C 148.507812 334.640625 148.710938 334.472656 148.898438 334.285156 L 155.003906 328.179688 C 155.320312 327.867188 155.6875 327.648438 156.109375 327.515625 C 156.53125 327.386719 156.957031 327.363281 157.394531 327.445312 C 157.882812 327.535156 158.316406 327.746094 158.6875 328.074219 C 159.0625 328.40625 159.324219 328.808594 159.472656 329.285156 C 159.621094 329.761719 159.636719 330.242188 159.515625 330.726562 C 159.398438 331.210938 159.164062 331.628906 158.808594 331.984375 L 151 339.78125 C 150.585938 340.183594 150.261719 340.652344 150.03125 341.179688 C 149.796875 341.710938 149.667969 342.265625 149.648438 342.84375 C 149.625 343.421875 149.714844 343.984375 149.910156 344.527344 C 150.105469 345.074219 150.394531 345.5625 150.777344 345.996094 C 150.980469 346.210938 151.199219 346.402344 151.441406 346.574219 C 151.679688 346.746094 151.9375 346.890625 152.207031 347.007812 C 152.476562 347.125 152.753906 347.21875 153.042969 347.28125 C 153.328125 347.34375 153.621094 347.378906 153.914062 347.382812 C 154.210938 347.386719 154.5 347.363281 154.792969 347.308594 C 155.082031 347.253906 155.363281 347.171875 155.636719 347.0625 C 155.90625 346.953125 156.167969 346.816406 156.414062 346.652344 C 156.660156 346.488281 156.886719 346.304688 157.09375 346.097656 L 189.421875 313.765625 C 186.8125 313.941406 184.175781 314.015625 181.515625 314.015625 C 179.949219 314.015625 178.394531 314.015625 176.851562 313.917969 C 112.578125 311.355469 60.851562 258.125 60.691406 193.277344 C 60.683594 190.828125 60.753906 188.378906 60.894531 185.933594 C 61.039062 183.488281 61.257812 181.046875 61.546875 178.613281 C 61.835938 176.179688 62.203125 173.757812 62.640625 171.347656 C 63.078125 168.9375 63.589844 166.539062 64.171875 164.160156 C 64.753906 161.78125 65.410156 159.417969 66.136719 157.078125 C 66.863281 154.738281 67.660156 152.421875 68.527344 150.128906 C 69.394531 147.839844 70.332031 145.574219 71.335938 143.339844 C 72.339844 141.105469 73.410156 138.902344 74.550781 136.730469 C 75.6875 134.5625 76.890625 132.429688 78.160156 130.332031 C 79.425781 128.234375 80.757812 126.175781 82.148438 124.160156 C 83.542969 122.144531 84.996094 120.171875 86.507812 118.242188 C 88.019531 116.316406 89.589844 114.433594 91.214844 112.601562 C 92.839844 110.769531 94.523438 108.988281 96.257812 107.253906 C 97.992188 105.523438 99.777344 103.847656 101.613281 102.226562 C 103.449219 100.601562 105.332031 99.039062 107.265625 97.527344 C 109.195312 96.019531 111.171875 94.574219 113.191406 93.183594 C 115.210938 91.796875 117.269531 90.46875 119.371094 89.207031 C 121.46875 87.941406 123.605469 86.746094 125.777344 85.609375 C 127.949219 84.476562 130.15625 83.410156 132.390625 82.410156 C 134.628906 81.410156 136.894531 80.480469 139.1875 79.617188 C 141.484375 78.753906 143.800781 77.960938 146.144531 77.242188 C 148.484375 76.519531 150.847656 75.871094 153.226562 75.289062 C 155.609375 74.710938 158.003906 74.207031 160.417969 73.773438 C 162.828125 73.339844 165.253906 72.980469 167.6875 72.695312 C 170.121094 72.410156 172.558594 72.199219 175.007812 72.0625 C 177.453125 71.921875 179.902344 71.859375 182.351562 71.871094 C 184.804688 71.882812 187.25 71.964844 189.695312 72.125 C 192.140625 72.285156 194.582031 72.519531 197.011719 72.828125 C 199.441406 73.132812 201.863281 73.515625 204.269531 73.96875 C 206.679688 74.421875 209.070312 74.949219 211.445312 75.550781 C 213.824219 76.148438 216.179688 76.820312 218.515625 77.5625 C 220.847656 78.304688 223.160156 79.117188 225.445312 80 L 225.769531 80.136719 C 226.8125 80.546875 227.894531 80.796875 229.011719 80.890625 C 230.132812 80.980469 231.238281 80.910156 232.335938 80.679688 C 233.433594 80.445312 234.472656 80.058594 235.457031 79.519531 C 236.441406 78.980469 237.328125 78.3125 238.117188 77.515625 L 244.332031 71.296875 L 275.417969 40.210938 C 275.6875 39.917969 275.921875 39.597656 276.128906 39.257812 C 276.335938 38.917969 276.507812 38.5625 276.644531 38.1875 C 276.78125 37.816406 276.882812 37.433594 276.945312 37.039062 C 277.011719 36.648438 277.035156 36.253906 277.023438 35.855469 C 277.011719 35.457031 276.964844 35.066406 276.878906 34.675781 C 276.789062 34.289062 276.667969 33.914062 276.507812 33.550781 C 276.347656 33.183594 276.15625 32.839844 275.929688 32.511719 C 275.703125 32.183594 275.449219 31.878906 275.167969 31.601562 C 274.882812 31.324219 274.574219 31.074219 274.242188 30.855469 C 273.910156 30.636719 273.5625 30.449219 273.195312 30.296875 C 272.828125 30.144531 272.449219 30.027344 272.058594 29.949219 C 271.671875 29.867188 271.277344 29.824219 270.878906 29.820312 C 270.480469 29.816406 270.085938 29.851562 269.695312 29.921875 C 269.304688 29.992188 268.921875 30.101562 268.554688 30.246094 C 268.183594 30.390625 267.828125 30.570312 267.492188 30.78125 C 267.15625 30.992188 266.84375 31.234375 266.554688 31.507812 Z M 216.582031 56.152344 L 214.09375 58.640625 C 213.71875 59.011719 213.28125 59.269531 212.773438 59.414062 C 212.269531 59.558594 211.757812 59.574219 211.246094 59.460938 L 211.171875 59.460938 C 210.625 59.339844 210.144531 59.085938 209.734375 58.703125 C 209.328125 58.320312 209.042969 57.859375 208.886719 57.320312 C 208.730469 56.78125 208.722656 56.238281 208.863281 55.695312 C 209 55.152344 209.269531 54.683594 209.667969 54.285156 L 212.152344 51.800781 C 212.441406 51.515625 212.777344 51.292969 213.152344 51.140625 C 213.53125 50.984375 213.921875 50.90625 214.328125 50.90625 C 214.738281 50.90625 215.128906 50.984375 215.503906 51.140625 C 215.882812 51.292969 216.214844 51.515625 216.503906 51.800781 C 216.796875 52.085938 217.023438 52.414062 217.183594 52.789062 C 217.34375 53.164062 217.429688 53.554688 217.4375 53.960938 C 217.445312 54.367188 217.371094 54.761719 217.226562 55.140625 C 217.078125 55.519531 216.863281 55.859375 216.582031 56.152344 Z M 243.128906 54.910156 L 233.738281 64.296875 C 233.277344 64.757812 232.730469 65.058594 232.09375 65.199219 C 231.457031 65.339844 230.832031 65.292969 230.21875 65.066406 L 230.144531 65.066406 C 229.882812 64.972656 229.632812 64.84375 229.402344 64.6875 C 229.171875 64.53125 228.960938 64.347656 228.773438 64.136719 C 228.589844 63.925781 228.433594 63.695312 228.304688 63.445312 C 228.175781 63.195312 228.082031 62.933594 228.019531 62.660156 C 227.957031 62.386719 227.929688 62.109375 227.9375 61.828125 C 227.945312 61.546875 227.988281 61.273438 228.066406 61.003906 C 228.144531 60.734375 228.253906 60.476562 228.394531 60.234375 C 228.535156 59.992188 228.707031 59.769531 228.902344 59.570312 L 238.363281 50.160156 C 238.683594 49.863281 239.046875 49.636719 239.457031 49.480469 C 239.863281 49.324219 240.285156 49.25 240.722656 49.257812 C 241.15625 49.265625 241.574219 49.355469 241.976562 49.523438 C 242.378906 49.695312 242.734375 49.933594 243.042969 50.242188 C 243.351562 50.550781 243.589844 50.90625 243.761719 51.308594 C 243.933594 51.710938 244.019531 52.128906 244.027344 52.566406 C 244.035156 53 243.964844 53.421875 243.808594 53.832031 C 243.652344 54.238281 243.425781 54.601562 243.128906 54.921875 Z M 243.128906 54.910156 " fill-opacity="1" fill-rule="nonzero"/><g clip-path="url(#7488d38408)"><path fill="#51a1d2" d="M 302.203125 4.539062 C 301.945312 4.277344 301.664062 4.046875 301.359375 3.84375 C 301.054688 3.640625 300.734375 3.46875 300.394531 3.328125 C 300.058594 3.1875 299.707031 3.082031 299.347656 3.011719 C 298.988281 2.9375 298.628906 2.902344 298.261719 2.902344 C 297.894531 2.902344 297.53125 2.9375 297.171875 3.011719 C 296.816406 3.082031 296.464844 3.1875 296.128906 3.328125 C 295.789062 3.46875 295.46875 3.640625 295.164062 3.84375 C 294.859375 4.046875 294.578125 4.277344 294.320312 4.539062 L 287.804688 10.992188 C 287.542969 11.25 287.3125 11.53125 287.109375 11.835938 C 286.90625 12.140625 286.734375 12.460938 286.59375 12.800781 C 286.453125 13.136719 286.347656 13.484375 286.273438 13.84375 C 286.203125 14.203125 286.167969 14.566406 286.167969 14.933594 C 286.167969 15.300781 286.203125 15.664062 286.273438 16.023438 C 286.34375 16.382812 286.449219 16.730469 286.589844 17.070312 C 286.730469 17.40625 286.902344 17.730469 287.105469 18.03125 C 287.308594 18.335938 287.539062 18.621094 287.800781 18.878906 C 288.058594 19.136719 288.339844 19.367188 288.644531 19.570312 C 288.949219 19.777344 289.269531 19.949219 289.609375 20.085938 C 289.949219 20.226562 290.296875 20.332031 290.65625 20.40625 C 291.015625 20.476562 291.378906 20.511719 291.746094 20.511719 C 292.109375 20.511719 292.472656 20.476562 292.832031 20.402344 C 293.191406 20.332031 293.539062 20.226562 293.878906 20.085938 C 294.21875 19.945312 294.539062 19.773438 294.84375 19.570312 C 295.148438 19.363281 295.429688 19.132812 295.6875 18.875 L 302.203125 12.433594 C 302.460938 12.171875 302.691406 11.890625 302.894531 11.585938 C 303.097656 11.28125 303.269531 10.960938 303.410156 10.621094 C 303.550781 10.28125 303.65625 9.933594 303.726562 9.574219 C 303.796875 9.214844 303.832031 8.851562 303.832031 8.484375 C 303.832031 8.117188 303.796875 7.757812 303.726562 7.398438 C 303.65625 7.039062 303.550781 6.6875 303.410156 6.347656 C 303.269531 6.011719 303.097656 5.6875 302.894531 5.382812 C 302.691406 5.078125 302.460938 4.796875 302.203125 4.539062 Z M 302.203125 4.539062 " fill-opacity="1" fill-rule="nonzero"/></g><path fill="#51a1d2" d="M 193.476562 38.394531 C 193.753906 38.671875 194.058594 38.921875 194.386719 39.140625 C 194.710938 39.359375 195.058594 39.542969 195.421875 39.691406 C 195.785156 39.84375 196.15625 39.957031 196.542969 40.03125 C 196.929688 40.109375 197.316406 40.148438 197.710938 40.148438 C 198.105469 40.148438 198.492188 40.109375 198.878906 40.03125 C 199.265625 39.957031 199.640625 39.84375 200.003906 39.691406 C 200.363281 39.542969 200.710938 39.359375 201.039062 39.140625 C 201.363281 38.921875 201.667969 38.671875 201.945312 38.394531 L 204.234375 36.09375 C 204.523438 35.820312 204.78125 35.519531 205.011719 35.191406 C 205.242188 34.867188 205.4375 34.519531 205.597656 34.152344 C 205.757812 33.789062 205.878906 33.410156 205.960938 33.019531 C 206.046875 32.628906 206.09375 32.234375 206.097656 31.835938 C 206.101562 31.4375 206.066406 31.039062 205.992188 30.648438 C 205.921875 30.253906 205.808594 29.875 205.65625 29.503906 C 205.507812 29.132812 205.320312 28.78125 205.101562 28.449219 C 204.878906 28.117188 204.628906 27.808594 204.347656 27.527344 C 204.0625 27.246094 203.757812 26.992188 203.421875 26.773438 C 203.089844 26.550781 202.738281 26.367188 202.367188 26.214844 C 202 26.066406 201.617188 25.953125 201.226562 25.878906 C 200.832031 25.804688 200.4375 25.769531 200.039062 25.777344 C 199.636719 25.78125 199.242188 25.824219 198.851562 25.910156 C 198.464844 25.996094 198.085938 26.117188 197.71875 26.277344 C 197.351562 26.4375 197.007812 26.632812 196.679688 26.863281 C 196.351562 27.089844 196.050781 27.351562 195.777344 27.640625 L 193.476562 29.941406 C 193.199219 30.21875 192.949219 30.519531 192.730469 30.847656 C 192.511719 31.171875 192.328125 31.515625 192.179688 31.878906 C 192.027344 32.242188 191.914062 32.617188 191.835938 33 C 191.761719 33.386719 191.722656 33.777344 191.722656 34.167969 C 191.722656 34.5625 191.761719 34.949219 191.835938 35.335938 C 191.914062 35.71875 192.027344 36.09375 192.179688 36.457031 C 192.328125 36.820312 192.511719 37.164062 192.730469 37.492188 C 192.949219 37.816406 193.199219 38.117188 193.476562 38.394531 Z M 193.476562 38.394531 " fill-opacity="1" fill-rule="nonzero"/><path fill="#51a1d2" d="M 139.398438 351.40625 L 136.828125 354.042969 C 136.621094 354.246094 136.441406 354.46875 136.28125 354.707031 C 136.121094 354.949219 135.984375 355.203125 135.875 355.46875 C 135.765625 355.734375 135.679688 356.011719 135.625 356.292969 C 135.570312 356.574219 135.539062 356.863281 135.539062 357.152344 C 135.539062 357.4375 135.570312 357.726562 135.625 358.007812 C 135.679688 358.289062 135.765625 358.566406 135.875 358.832031 C 135.984375 359.097656 136.121094 359.351562 136.28125 359.59375 C 136.441406 359.832031 136.621094 360.054688 136.828125 360.257812 C 137.03125 360.460938 137.253906 360.644531 137.492188 360.804688 C 137.734375 360.964844 137.984375 361.101562 138.253906 361.210938 C 138.519531 361.320312 138.792969 361.402344 139.078125 361.460938 C 139.359375 361.515625 139.644531 361.542969 139.933594 361.542969 C 140.222656 361.542969 140.507812 361.515625 140.792969 361.460938 C 141.074219 361.402344 141.351562 361.320312 141.617188 361.210938 C 141.882812 361.101562 142.136719 360.964844 142.375 360.804688 C 142.617188 360.644531 142.839844 360.460938 143.042969 360.257812 L 145.667969 357.621094 C 146.046875 357.203125 146.332031 356.730469 146.53125 356.199219 C 146.726562 355.671875 146.816406 355.125 146.800781 354.558594 C 146.789062 353.996094 146.671875 353.453125 146.449219 352.933594 C 146.226562 352.417969 145.914062 351.957031 145.515625 351.558594 C 145.117188 351.160156 144.65625 350.847656 144.136719 350.625 C 143.617188 350.402344 143.078125 350.285156 142.511719 350.269531 C 141.949219 350.257812 141.402344 350.347656 140.871094 350.542969 C 140.34375 350.738281 139.867188 351.027344 139.449219 351.40625 Z M 139.398438 351.40625 " fill-opacity="1" fill-rule="nonzero"/><path fill="#ff5757" d="M 357.074219 47.359375 C 356.816406 47.101562 356.535156 46.871094 356.230469 46.667969 C 355.925781 46.464844 355.601562 46.292969 355.261719 46.15625 C 354.925781 46.015625 354.574219 45.910156 354.214844 45.835938 C 353.855469 45.765625 353.496094 45.730469 353.128906 45.730469 C 352.761719 45.730469 352.398438 45.765625 352.039062 45.835938 C 351.679688 45.910156 351.332031 46.015625 350.992188 46.15625 C 350.652344 46.292969 350.332031 46.464844 350.027344 46.667969 C 349.722656 46.871094 349.441406 47.101562 349.179688 47.359375 L 283.625 112.914062 C 283.214844 113.320312 282.84375 113.757812 282.511719 114.226562 C 282.175781 114.695312 281.886719 115.191406 281.636719 115.710938 C 281.390625 116.234375 281.1875 116.769531 281.035156 117.324219 C 280.878906 117.882812 280.773438 118.445312 280.71875 119.019531 C 280.660156 119.59375 280.65625 120.167969 280.699219 120.742188 C 280.742188 121.316406 280.832031 121.882812 280.976562 122.441406 C 281.117188 123 281.308594 123.542969 281.542969 124.070312 C 281.78125 124.59375 282.058594 125.097656 282.382812 125.574219 L 282.382812 125.648438 C 283.699219 127.613281 284.957031 129.617188 286.15625 131.65625 C 287.355469 133.695312 288.492188 135.765625 289.570312 137.875 C 290.648438 139.980469 291.664062 142.117188 292.617188 144.28125 C 293.570312 146.445312 294.457031 148.636719 295.28125 150.855469 C 296.105469 153.074219 296.863281 155.3125 297.554688 157.574219 C 298.246094 159.839844 298.875 162.117188 299.433594 164.417969 C 299.992188 166.714844 300.480469 169.03125 300.90625 171.355469 C 301.328125 173.683594 301.683594 176.023438 301.96875 178.371094 C 302.257812 180.71875 302.472656 183.074219 302.621094 185.4375 C 302.769531 187.796875 302.847656 190.160156 302.859375 192.527344 C 302.867188 194.890625 302.808594 197.257812 302.679688 199.617188 C 302.550781 201.980469 302.351562 204.335938 302.085938 206.6875 C 301.816406 209.039062 301.480469 211.378906 301.078125 213.710938 C 300.671875 216.042969 300.199219 218.359375 299.660156 220.660156 C 299.121094 222.964844 298.511719 225.25 297.839844 227.519531 C 297.164062 229.785156 296.421875 232.03125 295.617188 234.257812 C 294.8125 236.480469 293.941406 238.679688 293.007812 240.851562 C 292.070312 243.027344 291.074219 245.167969 290.011719 247.285156 C 288.953125 249.398438 287.832031 251.480469 286.648438 253.53125 C 285.464844 255.578125 284.226562 257.589844 282.925781 259.566406 C 281.625 261.542969 280.265625 263.480469 278.851562 265.378906 C 277.4375 267.273438 275.96875 269.128906 274.445312 270.9375 C 272.925781 272.75 271.347656 274.511719 269.722656 276.230469 C 268.097656 277.949219 266.421875 279.617188 264.699219 281.238281 C 262.972656 282.859375 261.203125 284.425781 259.386719 285.945312 C 257.570312 287.460938 255.710938 288.921875 253.8125 290.328125 C 251.910156 291.734375 249.96875 293.085938 247.988281 294.378906 C 246.007812 295.671875 243.988281 296.90625 241.9375 298.082031 C 239.882812 299.257812 237.796875 300.371094 235.679688 301.425781 C 233.558594 302.476562 231.410156 303.46875 229.234375 304.394531 C 227.058594 305.320312 224.855469 306.183594 222.628906 306.984375 C 220.402344 307.78125 218.152344 308.511719 215.882812 309.179688 C 211.5 310.46875 207.058594 311.507812 202.554688 312.289062 L 177.460938 337.390625 C 177.074219 337.765625 176.769531 338.199219 176.550781 338.691406 C 176.328125 339.179688 176.210938 339.695312 176.191406 340.234375 C 176.167969 340.773438 176.25 341.292969 176.433594 341.800781 C 176.617188 342.308594 176.890625 342.761719 177.25 343.160156 C 177.4375 343.359375 177.640625 343.539062 177.859375 343.695312 C 178.082031 343.851562 178.316406 343.988281 178.566406 344.097656 C 178.8125 344.207031 179.070312 344.289062 179.335938 344.347656 C 179.601562 344.40625 179.871094 344.4375 180.140625 344.441406 C 180.414062 344.445312 180.683594 344.421875 180.949219 344.371094 C 181.214844 344.324219 181.476562 344.246094 181.726562 344.144531 C 181.980469 344.042969 182.21875 343.914062 182.445312 343.765625 C 182.667969 343.613281 182.878906 343.441406 183.070312 343.25 L 194.695312 331.636719 C 195.644531 330.695312 196.714844 329.925781 197.910156 329.332031 C 199.105469 328.738281 200.363281 328.34375 201.683594 328.152344 C 202.925781 327.980469 204.070312 327.78125 205.265625 327.582031 C 205.511719 327.5625 205.746094 327.613281 205.964844 327.734375 C 206.179688 327.855469 206.347656 328.027344 206.460938 328.246094 C 206.578125 328.46875 206.621094 328.699219 206.597656 328.949219 C 206.570312 329.195312 206.480469 329.414062 206.320312 329.609375 L 200.351562 335.578125 C 200.054688 335.863281 199.820312 336.195312 199.644531 336.574219 C 199.46875 336.949219 199.367188 337.34375 199.339844 337.753906 C 199.3125 338.167969 199.359375 338.574219 199.480469 338.96875 C 199.601562 339.367188 199.789062 339.726562 200.042969 340.054688 C 200.1875 340.230469 200.347656 340.386719 200.523438 340.53125 C 200.699219 340.671875 200.890625 340.792969 201.09375 340.898438 C 201.296875 341 201.507812 341.078125 201.726562 341.136719 C 201.945312 341.195312 202.167969 341.230469 202.394531 341.242188 C 202.621094 341.25 202.847656 341.238281 203.074219 341.203125 C 203.296875 341.167969 203.515625 341.109375 203.726562 341.027344 C 203.9375 340.945312 204.140625 340.839844 204.328125 340.71875 C 204.519531 340.59375 204.695312 340.449219 204.855469 340.289062 L 217.363281 327.78125 C 219.871094 325.257812 222.804688 323.414062 226.167969 322.246094 C 229.476562 321.109375 232.738281 319.84375 235.949219 318.457031 C 239.164062 317.066406 242.316406 315.558594 245.414062 313.925781 C 248.511719 312.296875 251.542969 310.546875 254.503906 308.683594 C 257.464844 306.820312 260.351562 304.847656 263.164062 302.761719 C 265.976562 300.675781 268.703125 298.484375 271.34375 296.191406 C 273.988281 293.894531 276.539062 291.503906 279 289.011719 C 281.457031 286.523438 283.816406 283.941406 286.078125 281.269531 C 288.339844 278.597656 290.496094 275.84375 292.546875 273.007812 C 294.59375 270.171875 296.53125 267.257812 298.359375 264.273438 C 300.183594 261.285156 301.894531 258.234375 303.484375 255.117188 C 305.078125 252 306.546875 248.828125 307.894531 245.597656 C 309.246094 242.367188 310.46875 239.089844 311.5625 235.765625 C 312.660156 232.445312 313.628906 229.082031 314.464844 225.683594 C 315.304688 222.285156 316.011719 218.859375 316.589844 215.410156 C 317.164062 211.957031 317.605469 208.488281 317.917969 205 C 318.226562 201.515625 318.402344 198.019531 318.441406 194.523438 C 318.515625 187.929688 318.128906 181.363281 317.273438 174.824219 C 317.082031 173.347656 317.0625 171.867188 317.210938 170.382812 C 317.363281 168.902344 317.679688 167.453125 318.160156 166.042969 C 318.644531 164.632812 319.28125 163.296875 320.070312 162.03125 C 320.863281 160.769531 321.785156 159.613281 322.84375 158.5625 L 333.910156 147.496094 C 334.324219 147.09375 334.695312 146.660156 335.023438 146.191406 C 335.351562 145.71875 335.632812 145.222656 335.867188 144.699219 C 336.101562 144.171875 336.28125 143.632812 336.414062 143.070312 C 336.542969 142.511719 336.621094 141.945312 336.640625 141.371094 C 336.664062 140.800781 336.628906 140.226562 336.542969 139.660156 C 336.457031 139.09375 336.316406 138.539062 336.121094 138 C 335.929688 137.457031 335.683594 136.941406 335.394531 136.445312 C 335.101562 135.953125 334.765625 135.492188 334.382812 135.0625 C 333.980469 134.617188 333.539062 134.21875 333.054688 133.867188 C 332.574219 133.511719 332.058594 133.210938 331.515625 132.964844 C 330.96875 132.714844 330.40625 132.523438 329.824219 132.386719 C 329.242188 132.253906 328.652344 132.179688 328.050781 132.164062 C 327.453125 132.152344 326.859375 132.195312 326.273438 132.300781 C 325.683594 132.40625 325.109375 132.570312 324.554688 132.792969 C 324 133.015625 323.472656 133.292969 322.972656 133.621094 C 322.472656 133.949219 322.011719 134.328125 321.589844 134.75 L 315.371094 140.96875 C 315.097656 141.238281 314.792969 141.476562 314.460938 141.671875 C 314.132812 141.871094 313.78125 142.027344 313.410156 142.140625 C 313.039062 142.253906 312.664062 142.316406 312.277344 142.335938 C 311.890625 142.355469 311.507812 142.328125 311.128906 142.253906 C 310.75 142.179688 310.386719 142.0625 310.035156 141.898438 C 309.683594 141.734375 309.359375 141.53125 309.058594 141.289062 C 308.761719 141.042969 308.492188 140.769531 308.261719 140.460938 C 308.027344 140.152344 307.835938 139.816406 307.6875 139.460938 L 307.6875 139.375 C 307.5 138.941406 307.382812 138.488281 307.332031 138.019531 C 307.28125 137.546875 307.300781 137.082031 307.390625 136.617188 C 307.480469 136.152344 307.636719 135.710938 307.859375 135.292969 C 308.082031 134.875 308.359375 134.5 308.695312 134.164062 L 323.128906 119.792969 C 323.421875 119.507812 323.6875 119.199219 323.921875 118.863281 C 324.15625 118.53125 324.359375 118.179688 324.527344 117.804688 C 324.699219 117.433594 324.828125 117.050781 324.925781 116.652344 C 325.023438 116.257812 325.082031 115.855469 325.101562 115.445312 C 325.121094 115.039062 325.105469 114.632812 325.050781 114.226562 C 324.992188 113.824219 324.898438 113.429688 324.769531 113.042969 C 324.640625 112.65625 324.472656 112.28125 324.273438 111.925781 C 324.074219 111.570312 323.839844 111.238281 323.578125 110.925781 C 323.289062 110.597656 322.972656 110.300781 322.625 110.035156 C 322.273438 109.773438 321.902344 109.546875 321.507812 109.359375 C 321.113281 109.171875 320.703125 109.027344 320.28125 108.925781 C 319.855469 108.824219 319.425781 108.761719 318.988281 108.75 C 318.550781 108.734375 318.117188 108.765625 317.6875 108.839844 C 317.257812 108.914062 316.839844 109.03125 316.433594 109.191406 C 316.027344 109.351562 315.640625 109.550781 315.277344 109.792969 C 314.910156 110.03125 314.574219 110.304688 314.265625 110.613281 L 304.179688 120.699219 C 303.949219 120.933594 303.691406 121.136719 303.414062 121.3125 C 303.136719 121.488281 302.839844 121.628906 302.53125 121.738281 C 302.21875 121.847656 301.902344 121.921875 301.574219 121.960938 C 301.25 122 300.921875 122 300.59375 121.964844 C 300.265625 121.925781 299.949219 121.855469 299.636719 121.75 C 299.324219 121.640625 299.03125 121.5 298.75 121.324219 C 298.472656 121.152344 298.214844 120.949219 297.980469 120.71875 C 297.746094 120.484375 297.542969 120.230469 297.367188 119.953125 L 297.367188 119.878906 C 297.097656 119.457031 296.910156 119 296.796875 118.511719 C 296.6875 118.023438 296.65625 117.53125 296.714844 117.035156 C 296.769531 116.539062 296.90625 116.066406 297.121094 115.613281 C 297.335938 115.164062 297.621094 114.761719 297.976562 114.40625 L 357.125 55.269531 C 357.382812 55.007812 357.613281 54.722656 357.8125 54.417969 C 358.015625 54.109375 358.183594 53.785156 358.320312 53.445312 C 358.460938 53.105469 358.5625 52.757812 358.632812 52.394531 C 358.699219 52.035156 358.734375 51.671875 358.730469 51.304688 C 358.730469 50.9375 358.691406 50.574219 358.617188 50.214844 C 358.542969 49.855469 358.4375 49.507812 358.292969 49.167969 C 358.152344 48.832031 357.980469 48.507812 357.773438 48.207031 C 357.570312 47.902344 357.335938 47.621094 357.074219 47.359375 Z M 357.074219 47.359375 " fill-opacity="1" fill-rule="nonzero"/><path fill="#ff5757" d="M 338.324219 90.980469 C 337.503906 90.980469 336.71875 91.140625 335.960938 91.460938 C 335.207031 91.78125 334.542969 92.234375 333.972656 92.820312 L 328.316406 98.539062 C 327.988281 98.824219 327.695312 99.140625 327.433594 99.484375 C 327.175781 99.832031 326.957031 100.199219 326.773438 100.59375 C 326.59375 100.984375 326.457031 101.394531 326.363281 101.816406 C 326.269531 102.238281 326.21875 102.664062 326.21875 103.097656 C 326.214844 103.53125 326.257812 103.960938 326.347656 104.382812 C 326.4375 104.804688 326.570312 105.214844 326.746094 105.609375 C 326.921875 106.003906 327.136719 106.378906 327.390625 106.726562 C 327.648438 107.074219 327.9375 107.394531 328.261719 107.679688 C 328.582031 107.96875 328.933594 108.21875 329.3125 108.429688 C 329.6875 108.644531 330.082031 108.8125 330.496094 108.941406 C 330.910156 109.070312 331.332031 109.152344 331.761719 109.191406 C 332.191406 109.230469 332.621094 109.222656 333.050781 109.167969 C 333.480469 109.113281 333.898438 109.015625 334.308594 108.875 C 334.714844 108.730469 335.105469 108.546875 335.472656 108.320312 C 335.84375 108.09375 336.183594 107.832031 336.496094 107.535156 C 336.808594 107.234375 337.085938 106.90625 337.332031 106.546875 L 342.191406 101.785156 C 342.679688 101.390625 343.097656 100.929688 343.441406 100.40625 C 343.789062 99.882812 344.046875 99.316406 344.214844 98.714844 C 344.386719 98.109375 344.460938 97.492188 344.441406 96.867188 C 344.421875 96.238281 344.308594 95.628906 344.097656 95.035156 C 343.890625 94.445312 343.59375 93.898438 343.214844 93.394531 C 342.839844 92.894531 342.390625 92.460938 341.878906 92.101562 C 341.367188 91.738281 340.8125 91.460938 340.214844 91.269531 C 339.617188 91.078125 339.003906 90.980469 338.375 90.980469 Z M 338.324219 90.980469 " fill-opacity="1" fill-rule="nonzero"/><path fill="#ff5757" d="M 191.402344 344.378906 L 189.375 346.417969 C 189.058594 346.738281 188.8125 347.101562 188.640625 347.519531 C 188.46875 347.933594 188.382812 348.363281 188.382812 348.8125 C 188.382812 349.261719 188.46875 349.691406 188.640625 350.109375 C 188.8125 350.523438 189.058594 350.886719 189.375 351.203125 C 189.691406 351.523438 190.058594 351.765625 190.472656 351.9375 C 190.886719 352.109375 191.320312 352.195312 191.769531 352.195312 C 192.214844 352.195312 192.648438 352.109375 193.0625 351.941406 C 193.476562 351.769531 193.84375 351.523438 194.160156 351.207031 L 196.1875 349.167969 C 196.503906 348.851562 196.75 348.484375 196.921875 348.070312 C 197.09375 347.65625 197.179688 347.222656 197.179688 346.773438 C 197.179688 346.324219 197.09375 345.894531 196.921875 345.476562 C 196.75 345.0625 196.503906 344.699219 196.1875 344.378906 C 195.871094 344.0625 195.503906 343.816406 195.089844 343.648438 C 194.675781 343.476562 194.242188 343.390625 193.792969 343.390625 C 193.34375 343.390625 192.914062 343.476562 192.5 343.648438 C 192.085938 343.816406 191.71875 344.0625 191.402344 344.378906 Z M 191.402344 344.378906 " fill-opacity="1" fill-rule="nonzero"/><g clip-path="url(#ef96c2a68a)"><g clip-path="url(#3029ba8529)"><path fill="#f65a5b" d="M 224.101562 307.726562 L 234.230469 307.726562 L 234.230469 317.550781 L 224.101562 317.550781 Z M 224.101562 307.726562 " fill-opacity="1" fill-rule="nonzero"/></g></g></svg>